<svg width="24" height="22" viewBox="0 0 24 22" fill="none" xmlns="http://www.w3.org/2000/svg">
<g clip-path="url(#clip0_29_2790)">
<path fill-rule="evenodd" clip-rule="evenodd" d="M2.24313 15.3577C1.00446 14.3824 0.385127 13.8948 0.15308 13.3324L0 12.5665V9.42856H0.780955V10.9897C1.12273 10.6673 1.59925 10.292 2.24313 9.78506L8.43589 4.90902C9.67456 3.93372 10.2939 3.44607 11.0081 3.26336C11.6363 3.10264 12.313 3.10264 12.9411 3.26336C13.6553 3.44607 14.2747 3.93372 15.5133 4.90902L21.7061 9.78506C22.35 10.292 22.8265 10.6673 23.1683 10.9897V9.42856H23.9492V12.5714C23.9492 12.8283 23.8982 13.0851 23.7961 13.3324C23.5641 13.8948 22.9447 14.3824 21.7061 15.3577L15.5133 20.2338C14.2747 21.2091 13.6553 21.6967 12.9411 21.8794C12.313 22.0401 11.6363 22.0401 11.0081 21.8794C10.2939 21.6967 9.67456 21.2091 8.43589 20.2338L2.24313 15.3577Z" fill="#DBDBDB"/>
<path d="M2.24314 12.2149C1.00447 11.2396 0.385133 10.7519 0.153086 10.1896C-0.0510286 9.69497 -0.0510286 9.16214 0.153086 8.66752C0.385133 8.10523 1.00447 7.61758 2.24314 6.64223L8.43589 1.7662C9.67456 0.7909 10.2939 0.303247 11.0081 0.120537C11.6363 -0.040179 12.313 -0.040179 12.9412 0.120537C13.6553 0.303247 14.2747 0.7909 15.5133 1.7662L21.7061 6.64223C22.9447 7.61758 23.5641 8.10523 23.7961 8.66752C24.0002 9.16214 24.0002 9.69497 23.7961 10.1896C23.5641 10.7519 22.9447 11.2396 21.7061 12.2149L15.5133 17.0909C14.2747 18.0662 13.6553 18.5539 12.9412 18.7366C12.313 18.8973 11.6363 18.8973 11.0081 18.7366C10.2939 18.5539 9.67456 18.0662 8.43589 17.0909L2.24314 12.2149Z" fill="white"/>
<path d="M9.32081 6.17776C8.70145 5.69012 8.39179 5.44629 8.27574 5.16513C8.17371 4.91781 8.17371 4.6514 8.27574 4.40409C8.39179 4.12293 8.70145 3.8791 9.32081 3.39145L10.2054 2.69487C10.8248 2.20721 11.1345 1.96339 11.4915 1.87204C11.8057 1.79168 12.144 1.79168 12.4581 1.87204C12.8152 1.96339 13.1249 2.20721 13.7442 2.69487L14.6289 3.39145C15.2482 3.8791 15.5579 4.12293 15.6739 4.40409C15.776 4.6514 15.776 4.91781 15.6739 5.16513C15.5579 5.44629 15.2482 5.69012 14.6289 6.17776L13.7442 6.87436C13.1249 7.36201 12.8152 7.60583 12.4581 7.69716C12.144 7.77754 11.8057 7.77754 11.4915 7.69716C11.1345 7.60583 10.8248 7.36201 10.2054 6.87436L9.32081 6.17776Z" fill="#FF8686"/>
<path d="M15.2182 10.8218C14.5989 10.3342 14.2893 10.0903 14.1732 9.80917C14.0712 9.56186 14.0712 9.29545 14.1732 9.04814C14.2893 8.76696 14.5989 8.52314 15.2182 8.03549L16.1029 7.3389C16.7223 6.85125 17.0319 6.60742 17.389 6.5161C17.7031 6.43572 18.0415 6.43572 18.3555 6.5161C18.7126 6.60742 19.0223 6.85125 19.6416 7.3389L20.5263 8.03549C21.1456 8.52314 21.4553 8.76696 21.5713 9.04814C21.6734 9.29545 21.6734 9.56186 21.5713 9.80917C21.4553 10.0903 21.1456 10.3342 20.5263 10.8218L19.6416 11.5184C19.0223 12.006 18.7126 12.2498 18.3555 12.3412C18.0415 12.4216 17.7031 12.4216 17.389 12.3412C17.0319 12.2498 16.7223 12.006 16.1029 11.5184L15.2182 10.8218Z" fill="#5AFF88"/>
<path d="M3.42283 10.8218C2.8035 10.3342 2.49384 10.0903 2.37781 9.80917C2.27576 9.56186 2.27576 9.29545 2.37781 9.04814C2.49384 8.76696 2.8035 8.52314 3.42283 8.03549L4.30752 7.3389C4.92685 6.85125 5.23651 6.60742 5.59362 6.5161C5.9077 6.43572 6.24605 6.43572 6.56013 6.5161C6.91725 6.60742 7.2269 6.85125 7.84621 7.3389L14.6288 12.6794C15.2481 13.167 15.5578 13.4108 15.6738 13.692C15.7759 13.9393 15.7759 14.2057 15.6738 14.453C15.5578 14.7342 15.2481 14.978 14.6288 15.4656L13.7441 16.1622C13.1248 16.6499 12.8151 16.8937 12.458 16.9851C12.1439 17.0654 11.8056 17.0654 11.4914 16.9851C11.1344 16.8937 10.8247 16.6499 10.2054 16.1622L3.42283 10.8218Z" fill="#768CFF"/>
</g>
<defs>
<clipPath id="clip0_29_2790">
<rect width="24" height="22" fill="white"/>
</clipPath>
</defs>
</svg>
