<svg width="18" height="18" viewBox="0 0 18 18" fill="none" xmlns="http://www.w3.org/2000/svg">
<g clip-path="url(#clip0_33_63)">
<path fill-rule="evenodd" clip-rule="evenodd" d="M8.97318 0.183594C4.01125 0.183594 0 4.22441 0 9.22345C0 13.2194 2.57014 16.602 6.13561 17.7992C6.58139 17.8892 6.74467 17.6047 6.74467 17.3653C6.74467 17.1558 6.72998 16.4374 6.72998 15.6889C4.23386 16.2278 3.71406 14.6113 3.71406 14.6113C3.31292 13.5637 2.71855 13.2944 2.71855 13.2944C1.90157 12.7406 2.77806 12.7406 2.77806 12.7406C3.68431 12.8005 4.15984 13.6685 4.15984 13.6685C4.96194 15.0453 6.25445 14.6563 6.77443 14.4168C6.84863 13.8331 7.08649 13.429 7.33904 13.2046C5.3482 12.995 3.25359 12.2168 3.25359 8.74443C3.25359 7.75663 3.60992 6.94847 4.17453 6.31994C4.08545 6.09549 3.77339 5.16739 4.2638 3.92521C4.2638 3.92521 5.02145 3.6857 6.7298 4.85312C7.4612 4.65525 8.21549 4.55458 8.97318 4.55374C9.73084 4.55374 10.5032 4.65861 11.2164 4.85312C12.9249 3.6857 13.6826 3.92521 13.6826 3.92521C14.173 5.16739 13.8607 6.09549 13.7717 6.31994C14.3511 6.94847 14.6928 7.75663 14.6928 8.74443C14.6928 12.2168 12.5982 12.9799 10.5924 13.2046C10.9194 13.4889 11.2015 14.0276 11.2015 14.8808C11.2015 16.093 11.1868 17.0659 11.1868 17.3651C11.1868 17.6047 11.3503 17.8892 11.7959 17.7993C15.3613 16.6018 17.9315 13.2194 17.9315 9.22345C17.9462 4.22441 13.9202 0.183594 8.97318 0.183594Z" fill="white"/>
</g>
<defs>
<clipPath id="clip0_33_63">
<rect width="18" height="17.6327" fill="white" transform="translate(0 0.183594)"/>
</clipPath>
</defs>
</svg>
