<?xml version="1.0" encoding="utf-8"?>
<!-- Generator: Adobe Illustrator 16.0.3, SVG Export Plug-In . SVG Version: 6.00 Build 0)  -->
<!DOCTYPE svg PUBLIC "-//W3C//DTD SVG 1.1//EN" "http://www.w3.org/Graphics/SVG/1.1/DTD/svg11.dtd">
<svg version="1.1" id="Layer_1" xmlns="http://www.w3.org/2000/svg" xmlns:xlink="http://www.w3.org/1999/xlink" x="0px" y="0px"
	 width="141.732px" height="205px" viewBox="-3.866 0 141.732 205" enable-background="new -3.866 0 141.732 205"
	 xml:space="preserve">
<rect id="_x3C_Slice_x3E__94_" fill="none" width="133.548" height="203.65"/>
<g>
	<g>
		<path fill="#806F49" d="M48.015,170.916c-5.909-7.356-34.037-43.302-40.241-54.035c-5.238-9.056-11.46-28.147-1.331-47.901
			c8.688-16.978,27.903-28.201,57.101-33.334c21.258-3.748,29.467-7.407,33.057-9.814c3.584-2.406-1.057-4.159-1.721-4.524
			L64.435,6.445l34.022-2.447c0.721-0.098,2.23-0.212,4.252,0.034c6.619,0.781,24.996,4.227,30.319,35.895
			c4.433,26.325-19.021,45.599-36.739,59.92c-7.963,6.438-14.633,12.996-18.179,17.982c-13.345,18.833-11.032,46.21-10.808,49.673
			c0.617,9.863,3.536,31.805,3.536,31.805L48.015,170.916z"/>
	</g>
	<g>
		<path fill="#FFFFFF" d="M52.279,167.49c-3.586-4.466-32.308-39.295-39.577-52.993c-4.21-7.942-10.4-25.451-1.403-43.016
			c7.873-15.386,25.769-25.626,53.185-30.455c37.246-6.547,38.676-12.761,38.985-14.625c0.3-1.865-0.057-6.097-5.159-8.394
			L80.616,9.595l18.536-0.169c0.385-0.042,1.425-0.145,2.91,0.041c5.409,0.638,21.602,3.011,26.1,31.13
			c3.766,23.605-17.858,40.896-35.309,54.991c-8.763,7.074-15.896,13.878-19.942,19.804c-11.25,16.508-11.081,42.235-10.926,48.152
			c0.21,7.91,1.707,18.139,1.707,18.139L52.279,167.49z"/>
	</g>
	<g>
		<path fill="#806F49" d="M17.656,112.545c-4.748-8.629-22.343-53.355,47.813-65.702c58.738-10.342,43.229-25.492,36.635-30.15
			c-0.119-0.093-2.984-2.123-2.984-2.123s1.678,0.152,3.139,0.372c5.093,0.765,16.765,2.118,20.898,25.783
			c5.775,33.01-41.916,51.269-55.251,73.802c-14.802,25.021-9.828,53.585-9.828,53.585S25.619,127.015,17.656,112.545z"/>
	</g>
	<g>
		<polygon fill="#FFFFFF" points="55.214,166.039 43.992,128.515 59.307,167.398 58.386,168.629 		"/>
	</g>
	<g>
		<path fill="#806F49" d="M64.107,174.839c1.17,3.286,0.729,6.443-0.985,7.04c-1.699,0.602-4.02-1.57-5.181-4.854
			c-1.176-3.293-0.719-6.452,0.975-7.05C60.622,169.372,62.95,171.543,64.107,174.839z"/>
	</g>
	<g>
		<g>
			<path fill="#FBDB04" d="M50.002,132.799c-0.147,2.186-2.05,3.825-4.237,3.681c-2.189-0.157-3.85-2.057-3.681-4.248
				c0.145-2.188,2.047-3.839,4.249-3.677C48.51,128.703,50.163,130.604,50.002,132.799z"/>
		</g>
		<path fill="#FBDB04" d="M61.604,93.134c0.747-10.533-7.179-19.661-17.711-20.409c-10.537-0.746-19.673,7.174-20.416,17.707
			c-0.274,3.946,0.664,7.688,2.495,10.869l0.009,0.018c0,0.005,0,0.007,0,0.007l14.483,25.51l5.322-2.798l-3.009-13.153
			C52.626,110.768,60.903,103.129,61.604,93.134z M44.631,104.066c-4.134-0.29-7.244-3.869-6.939-8.005
			c0.281-4.125,3.863-7.235,7.992-6.947c4.132,0.3,7.239,3.881,6.942,8.01C52.331,101.247,48.754,104.36,44.631,104.066z"/>
		<g>
			<g>
				<path fill="#FBDB04" d="M80.086,73.706l-13.519,8.771c0.731,1.065,1.508,1.696,2.337,1.892c1.172,0.289,2.344,0.017,3.525-0.82
					c0.729-0.514,1.328-1.177,1.797-1.967c0.282-0.493,0.504-1.16,0.666-2.004l5.947-3.411c0.45,1.772,0.246,3.516-1.219,6.268
					c-1.006,1.895-2.264,3.267-5.182,5.45c-2.644,1.972-8.882,5.57-8.771,3.785c0.186-3.557-0.744-6.133-1.792-8.271
					c-1.448-3.005-2.296-3.915-4.349-6.278c-1.605-2.378,1.633-6.712,5.237-8.732c2.799-1.577,3.965-1.646,5.871-1.804
					c2.105,0.162,3.962,0.631,5.432,1.497c1.484,0.864,2.323,2.313,3.519,4.455L80.086,73.706z M72.402,73.583
					c-0.811-1.183-1.664-1.85-2.57-2.023c-0.902-0.169-1.877,0.052-2.905,0.667c-1.22,0.729-1.989,1.753-2.302,3.067
					c-0.207,0.836-0.101,1.846,0.314,3.018L72.402,73.583z"/>
			</g>
			<g>
				<path fill="#FBDB04" d="M75.509,65.003l4.011-2.306l1.869,1.718c-0.149-1.409-0.099-1.999,0.389-2.776
					c0.466-0.779,1.188-1.453,2.14-2.04c1.274-0.784,3.616-0.378,4.535,0.377c1.38,1.143,1.831,1.724,3.344,4.112
					c1.548,2.471,2.031,6.776,2.031,6.776L90.4,74.081c0,0-0.838-4.505-2.031-6.976c-0.668-1.38-1.841-2.595-2.49-3.069
					c-0.399-0.3-1.116-0.629-2.18-0.198c-0.822,0.341-0.688,1.015-0.672,2.058c0,0.694,0.566,0.349,2.121,3.512
					c2.106,4.315,2.182,7.355,2.182,7.355l-3.191,2.761c0,0-0.836-4.894-2.773-8.673C79.496,67.214,75.509,65.003,75.509,65.003z"/>
			</g>
			<g>
				<path fill="#FBDB04" d="M96.609,51.983l2.324-1.93l1.61,0.946c-0.368-0.922-0.434-1.31-0.251-1.884
					c0.184-0.56,0.557-1.086,1.133-1.594c0.733-0.65,2.463-0.643,3.254-0.228c1.188,0.624,1.873,0.934,3.369,2.365
					c1.54,1.49,2.402,3.548,2.402,3.548l-2.316,3.188c0,0-0.946-2.833-2.23-4.338c-0.703-0.843-1.754-1.525-2.291-1.779
					c-0.339-0.151-0.901-0.293-1.561,0.1c-0.518,0.312-0.289,0.741-0.104,1.427c0.136,0.452,0.473,0.172,2.125,2.094
					c2.246,2.602,2.543,4.632,2.543,4.632l-1.729,2.067c0,0-1.151-3.142-3.158-5.386C99.762,53.023,96.609,51.983,96.609,51.983z"/>
			</g>
			<g>
				<path fill="#FBDB04" d="M93.73,58.816l-2.494,2.559c-0.947-0.967-1.27-1.5-1.904-1.997c-0.475-0.35,0.07-1.334,0.343-1.951
					c0.187-0.438,0.539-0.919,1.049-1.451c0.489-0.52,1.072-1.008,1.731-1.479c1.016-0.739,0.693-0.536,1.408-0.865
					c0.695-0.327,1.487-0.572,2.023-0.548c0.688,0.028,1.322,0.317,1.861,0.662c0.537,0.343,1.019,0.658,2.094,1.654
					c1.407,1.336,2.189,2.882,2.611,3.814c0.439,0.943,0.731,2.139,0.936,2.833l-1.486,1.396c-0.08-0.703,0.15-0.19-0.039-0.826
					c-0.154-0.537-0.398-0.76-0.672-1.011c-0.023,0.846-0.16,1.571-0.409,2.154c-0.347,0.824-0.896,1.88-1.69,2.618
					c-1.064,1.01-2.517,1.982-3.565,1.935c-0.739-0.034-0.511,0.103-0.982-1.172c-0.466-1.296-1.411-3.212-1.987-4.182
					c-0.433-0.75,0.12-1.438,1.06-2.594c1.095-1.339,2.015-2.001,2.303-2.42c0.28-0.401,1.1-1.053,0.825-1.349
					c-0.281-0.311-0.699-0.682-1.012-0.734c-0.311-0.035-0.683,0.098-1.101,0.424c-0.571,0.434-0.915,0.851-1.045,1.266
					C93.486,57.873,93.537,58.292,93.73,58.816z M98.707,58.034c-0.303,0.544-0.631,1.089-1.004,1.635
					c-0.514,0.77-0.785,1.339-0.804,1.691c-0.025,0.363,0.071,0.687,0.276,0.939c0.247,0.3,0.537,0.474,0.875,0.496
					c0.35,0.024,0.691-0.112,1.041-0.424c0.361-0.324,0.616-0.719,0.76-1.204c0.145-0.466,0.162-0.9,0.05-1.288
					c-0.11-0.399-0.351-0.82-0.716-1.275L98.707,58.034z"/>
			</g>
			<g>
				<path fill="#FBDB04" d="M108.656,45.528l-0.979,2.393c-0.694-0.615-1.189-1.027-1.71-1.153
					c-0.371-0.102-0.309-0.622-0.252-1.072c0.057-0.317,0.189-0.699,0.432-1.146c0.236-0.45,0.527-0.905,0.867-1.358
					c0.55-0.723,0.379-0.522,0.795-0.903c0.393-0.383,0.884-0.74,1.25-0.865c0.467-0.164,0.948-0.141,1.368-0.074
					c0.425,0.084,0.796,0.15,1.696,0.508c1.182,0.46,0.805,0.486,1.506,0.77c0.625,0.333,1.055-0.146,1.613-0.579
					c0,0-0.141,2.051-0.504,2.402c-0.368,0.352-0.476,0.588-0.705,0.498c-0.268-0.105-0.156-0.105-0.38-0.184
					c0.505,0.481,0.682,1.184,0.609,1.604c-0.095,0.582-0.442,1.623-0.796,2.254c-0.615,1.117-1.425,1.987-1.715,2.188
					c-0.291,0.192-0.672,0.376-1.211-0.272c-0.534-0.658-1.408-1.249-1.943-1.696c-0.423-0.345-0.162-1.403,0.252-2.335
					c0.486-1.096,0.981-1.742,1.096-2.068c0.124-0.326,0.554-0.924,0.302-1.048c-0.225-0.114-0.577-0.238-0.798-0.188
					c-0.209,0.05-0.436,0.229-0.656,0.546c-0.293,0.402-0.454,0.75-0.467,1.036C108.326,45.011,108.424,45.252,108.656,45.528z
					 M111.912,44.144c-0.107,0.415-0.232,0.832-0.391,1.268c-0.214,0.595-0.281,1.012-0.242,1.231
					c0.056,0.241,0.168,0.403,0.357,0.512c0.207,0.122,0.438,0.155,0.673,0.084c0.228-0.067,0.431-0.238,0.612-0.522
					c0.184-0.289,0.291-0.599,0.303-0.923c0.014-0.328-0.051-0.595-0.193-0.814c-0.141-0.217-0.375-0.413-0.703-0.591
					L111.912,44.144z"/>
			</g>
		</g>
	</g>
</g>
</svg>
