<svg width="18" height="18" viewBox="0 0 18 18" fill="none" xmlns="http://www.w3.org/2000/svg">
<g clip-path="url(#clip0_33_65)">
<mask id="mask0_33_65" style="mask-type:luminance" maskUnits="userSpaceOnUse" x="0" y="0" width="18" height="18">
<path d="M0 0H18V18H0V0Z" fill="white"/>
</mask>
<g mask="url(#mask0_33_65)">
<path d="M14.3687 6.13199C14.8425 6.99634 15.112 7.98827 15.112 9.04342C15.112 11.2823 13.8987 13.2371 12.0945 14.289L13.948 8.9297C14.2942 8.06392 14.4095 7.37163 14.4095 6.75606C14.4095 6.53263 14.3948 6.32527 14.3687 6.13199ZM9.87974 6.19806C10.2451 6.17884 10.5743 6.14042 10.5743 6.14042C10.9013 6.1017 10.8627 5.62113 10.5356 5.64027C10.5356 5.64027 9.5526 5.71742 8.91803 5.71742C8.32174 5.71742 7.31974 5.64027 7.31974 5.64027C6.99246 5.62113 6.9541 6.12106 7.28124 6.14042C7.28124 6.14042 7.59081 6.17884 7.91781 6.19806L8.86324 8.7887L7.53496 12.7718L5.3251 6.19806C5.69074 6.17884 6.0196 6.14042 6.0196 6.14042C6.34639 6.1017 6.30781 5.62113 5.98081 5.64027C5.98081 5.64027 4.99803 5.71742 4.36339 5.71742C4.24953 5.71742 4.11531 5.71463 3.97281 5.71006C5.05796 4.06263 6.9231 2.9747 9.04339 2.9747C10.6232 2.9747 12.0618 3.57877 13.1415 4.56806C13.1153 4.56649 13.0898 4.5632 13.0629 4.5632C12.4667 4.5632 12.0437 5.08249 12.0437 5.64027C12.0437 6.14042 12.3323 6.56356 12.6399 7.06363C12.8707 7.46784 13.1402 7.98706 13.1402 8.73734C13.1402 9.2567 12.9405 9.85949 12.6785 10.6992L12.073 12.7217L9.87974 6.19806ZM9.04339 15.1126C8.44767 15.1126 7.87274 15.0253 7.32889 14.8653L9.14996 9.57427L11.0152 14.6849C11.0275 14.7149 11.0426 14.7426 11.0587 14.7686C10.4279 14.9906 9.7501 15.1126 9.04339 15.1126ZM2.97467 9.04342C2.97467 8.16356 3.16339 7.32834 3.50017 6.57363L6.3951 14.5052C4.37046 13.5216 2.97467 11.4456 2.97467 9.04342ZM9.04339 2.29363C5.32146 2.29363 2.29346 5.32156 2.29346 9.04342C2.29346 12.7654 5.32146 15.7937 9.04339 15.7937C12.7652 15.7937 15.7934 12.7654 15.7934 9.04342C15.7934 5.32156 12.7652 2.29363 9.04339 2.29363Z" fill="#3858E9"/>
</g>
</g>
<defs>
<clipPath id="clip0_33_65">
<rect width="18" height="18" fill="white"/>
</clipPath>
</defs>
</svg>
