<svg width="74" height="34" viewBox="0 0 74 34" fill="none" xmlns="http://www.w3.org/2000/svg">
<g clip-path="url(#clip0_534_384)">
<path fill-rule="evenodd" clip-rule="evenodd" d="M15.593 0L31.186 8.21071L15.593 16.4214L2.76137e-05 8.21071L15.593 0Z" fill="#333333"/>
<path fill-rule="evenodd" clip-rule="evenodd" d="M0 8.21069L15.593 16.4214L15.593 34.0428L1.68767e-06 25.8322L0 8.21069Z" fill="#4D4D4D"/>
<path d="M27.7529 30.977C26.8948 30.977 26.0927 30.8226 25.3465 30.5138C24.6128 30.1927 23.9661 29.7295 23.4064 29.1242C22.8468 28.5189 22.4115 27.784 22.1006 26.9193C21.7897 26.0423 21.6343 25.0418 21.6343 23.9177C21.6343 22.8061 21.7959 21.8117 22.1193 20.9347C22.4426 20.0577 22.8841 19.3166 23.4437 18.7113C24.0034 18.0937 24.6625 17.6243 25.4211 17.3031C26.1797 16.982 26.9943 16.8214 27.8648 16.8214C28.7105 16.8214 29.4629 16.9943 30.122 17.3402C30.7811 17.6861 31.3221 18.0875 31.7449 18.5445L30.5884 19.9156C30.2277 19.5574 29.8235 19.2671 29.3758 19.0448C28.9406 18.8101 28.4493 18.6928 27.9021 18.6928C27.1062 18.6928 26.4036 18.9028 25.7942 19.3227C25.1973 19.7427 24.7247 20.3356 24.3765 21.1014C24.0407 21.8673 23.8728 22.7875 23.8728 23.8622C23.8728 24.9368 24.0345 25.8694 24.3578 26.6599C24.6812 27.4381 25.1413 28.0372 25.7382 28.4572C26.3352 28.8772 27.0378 29.0871 27.8462 29.0871C28.468 29.0871 29.0214 28.9574 29.5064 28.6981C30.0039 28.4263 30.4578 28.0681 30.8682 27.6234L32.0434 28.9945C31.4838 29.6368 30.8495 30.1309 30.1407 30.4768C29.4442 30.8103 28.6483 30.977 27.7529 30.977Z" fill="white"/>
<path d="M34.4587 30.7176V17.0623H42.592V18.878H36.6226V23.0469H41.7153V24.8441H36.6226V30.7176H34.4587Z" fill="white"/>
<path d="M45.0249 30.7176V17.0623H49.2967C50.2295 17.0623 51.0565 17.1734 51.7778 17.3958C52.5115 17.6181 53.0836 17.9763 53.494 18.4704C53.9168 18.9521 54.1282 19.6006 54.1282 20.4159C54.1282 20.8606 54.0474 21.2805 53.8857 21.6758C53.7365 22.0711 53.5188 22.4231 53.2328 22.7319C52.9468 23.0284 52.5923 23.2445 52.1695 23.3804V23.4731C52.953 23.6336 53.5997 23.9857 54.1096 24.5292C54.6195 25.0603 54.8744 25.7891 54.8744 26.7155C54.8744 27.6172 54.6443 28.3645 54.1842 28.9574C53.7365 29.5503 53.1147 29.995 52.3187 30.2915C51.5353 30.5756 50.6336 30.7176 49.6139 30.7176H45.0249ZM47.1888 22.769H49.0356C50.0802 22.769 50.8326 22.5837 51.2928 22.2131C51.7653 21.8426 52.0016 21.3423 52.0016 20.7123C52.0016 20.0083 51.7591 19.508 51.2741 19.2115C50.7891 18.9027 50.0616 18.7483 49.0915 18.7483H47.1888V22.769ZM47.1888 29.0315H49.3714C50.4409 29.0315 51.2679 28.8339 51.8524 28.4386C52.4493 28.0434 52.7478 27.4319 52.7478 26.6043C52.7478 25.8385 52.4555 25.2826 51.871 24.9368C51.299 24.5786 50.4658 24.3995 49.3714 24.3995H47.1888V29.0315Z" fill="white"/>
<path d="M61.4214 30.9771C60.5758 30.9771 59.7798 30.7671 59.0337 30.3471C58.2999 29.9148 57.703 29.3033 57.2428 28.5128C56.7951 27.7099 56.5713 26.7464 56.5713 25.6224C56.5713 24.486 56.7951 23.5225 57.2428 22.732C57.703 21.9291 58.2999 21.3176 59.0337 20.8977C59.7798 20.4777 60.5758 20.2677 61.4214 20.2677C62.0432 20.2677 62.6464 20.3912 63.2309 20.6383C63.8154 20.873 64.3315 21.2188 64.7792 21.6758C65.2269 22.1329 65.5813 22.6949 65.8425 23.3619C66.1037 24.0166 66.2342 24.7701 66.2342 25.6224C66.2342 26.7464 66.0042 27.7099 65.544 28.5128C65.0963 29.3033 64.5056 29.9148 63.7719 30.3471C63.0506 30.7671 62.2671 30.9771 61.4214 30.9771ZM61.4214 29.1983C61.9562 29.1983 62.4163 29.0501 62.8018 28.7537C63.1998 28.4572 63.5045 28.0434 63.7159 27.5123C63.9273 26.9688 64.033 26.3388 64.033 25.6224C64.033 24.906 63.9273 24.2822 63.7159 23.751C63.5045 23.2075 63.1998 22.7875 62.8018 22.4911C62.4163 22.1823 61.9562 22.0279 61.4214 22.0279C60.8742 22.0279 60.4017 22.1823 60.0037 22.4911C59.6182 22.7875 59.3197 23.2075 59.1083 23.751C58.8969 24.2822 58.7912 24.906 58.7912 25.6224C58.7912 26.3388 58.8969 26.9688 59.1083 27.5123C59.3197 28.0434 59.6182 28.4572 60.0037 28.7537C60.4017 29.0501 60.8742 29.1983 61.4214 29.1983Z" fill="white"/>
<path d="M72.008 30.9771C71.237 30.9771 70.6214 30.8288 70.1612 30.5324C69.7135 30.2236 69.3902 29.8036 69.1912 29.2724C68.9922 28.729 68.8927 28.099 68.8927 27.3826V22.2317H67.4004V20.6383L69.0047 20.5086L69.2472 17.6923H71.038V20.5086H73.7056V22.2317H71.038V27.4011C71.038 28.0064 71.1561 28.4696 71.3924 28.7907C71.6287 29.0995 72.0142 29.2539 72.549 29.2539C72.7231 29.2539 72.9096 29.2292 73.1086 29.1798C73.3076 29.1304 73.4817 29.0748 73.6309 29.0131L74.0227 30.588C73.7491 30.6744 73.4382 30.7609 73.09 30.8474C72.7542 30.9338 72.3935 30.9771 72.008 30.9771Z" fill="white"/>
</g>
<defs>
<clipPath id="clip0_534_384">
<rect width="74" height="34" fill="white"/>
</clipPath>
</defs>
</svg>
