<svg width="256" height="68" viewBox="0 0 256 68" fill="none" xmlns="http://www.w3.org/2000/svg">
<path d="M0 37.3876V0.733091H6.88696V31.104H23.5826V37.3876H0Z" fill="#CDD6F4"/>
<path d="M27.9648 37.3876V11.4153H34.5387V37.3876H27.9648ZM31.2518 8.37818C30.0692 8.37818 29.0605 7.99418 28.2257 7.22618C27.4257 6.45818 27.0257 5.44582 27.0257 4.18909C27.0257 2.93237 27.4257 1.92 28.2257 1.152C29.0605 0.384 30.0692 0 31.2518 0C32.4692 0 33.4779 0.384 34.2779 1.152C35.0779 1.92 35.4779 2.93237 35.4779 4.18909C35.4779 5.44582 35.0779 6.45818 34.2779 7.22618C33.4779 7.99418 32.4692 8.37818 31.2518 8.37818Z" fill="#CDD6F4"/>
<path d="M40.0496 24.5062V23.6684C40.0496 20.9455 40.5887 18.624 41.667 16.704C42.7452 14.7491 44.1713 13.2655 45.9452 12.2531C47.7539 11.2058 49.7192 10.6822 51.8409 10.6822C54.2061 10.6822 55.9974 11.1011 57.2148 11.9389C58.4322 12.7767 59.3192 13.6495 59.8757 14.5571H60.8148V11.4153H67.2844V41.9956C67.2844 43.776 66.7626 45.1898 65.7192 46.2371C64.6757 47.3193 63.2844 47.8604 61.5452 47.8604H44.2235V42.1004H59.2496C60.2235 42.1004 60.7105 41.5767 60.7105 40.5295V33.7746H59.7713C59.4235 34.3331 58.9366 34.9091 58.3105 35.5025C57.6844 36.0611 56.8496 36.5324 55.8061 36.9164C54.7626 37.3004 53.4409 37.4924 51.8409 37.4924C49.7192 37.4924 47.7539 36.9862 45.9452 35.9738C44.1713 34.9265 42.7452 33.4429 41.667 31.5229C40.5887 29.568 40.0496 27.2291 40.0496 24.5062ZM53.7192 31.7324C55.7365 31.7324 57.4235 31.0865 58.78 29.7949C60.1366 28.5033 60.8148 26.688 60.8148 24.3491V23.8255C60.8148 21.4516 60.1366 19.6364 58.78 18.3796C57.4583 17.088 55.7713 16.4422 53.7192 16.4422C51.7018 16.4422 50.0148 17.088 48.6583 18.3796C47.3018 19.6364 46.6235 21.4516 46.6235 23.8255V24.3491C46.6235 26.688 47.3018 28.5033 48.6583 29.7949C50.0148 31.0865 51.7018 31.7324 53.7192 31.7324Z" fill="#CDD6F4"/>
<path d="M73.913 37.3876V0.733091H80.8V15.8662H94.3652V0.733091H101.252V37.3876H94.3652V22.1498H80.8V37.3876H73.913Z" fill="#A6ADC8"/>
<path d="M116.083 37.3876V7.01673H105.439V0.733091H133.613V7.01673H122.97V37.3876H116.083Z" fill="#A6ADC8"/>
<path d="M146.233 37.3876V7.01673H135.59V0.733091H163.764V7.01673H153.12V37.3876H146.233Z" fill="#A6ADC8"/>
<path d="M167.932 37.3876V0.733091H182.958C185.254 0.733091 187.271 1.20436 189.01 2.14691C190.784 3.05455 192.158 4.34618 193.132 6.02182C194.141 7.69746 194.645 9.68727 194.645 11.9913V12.7244C194.645 14.9935 194.123 16.9833 193.08 18.6938C192.071 20.3695 190.68 21.6785 188.906 22.6211C187.167 23.5287 185.184 23.9825 182.958 23.9825H174.819V37.3876H167.932ZM174.819 17.6989H182.28C183.915 17.6989 185.236 17.2451 186.245 16.3375C187.254 15.4298 187.758 14.1905 187.758 12.6196V12.096C187.758 10.5251 187.254 9.28582 186.245 8.37818C185.236 7.47055 183.915 7.01673 182.28 7.01673H174.819V17.6989Z" fill="#A6ADC8"/>
<path d="M1.28003 64V52.8H3.84003L6.81603 63.152H7.02403L10 52.8H12.56V64H11.264V53.68H11.04L8.08003 64H5.76003L2.80003 53.68H2.57603V64H1.28003Z" fill="#9399B2"/>
<path d="M17.5718 64.224C17.0278 64.224 16.5318 64.128 16.0838 63.936C15.6358 63.744 15.2838 63.4667 15.0278 63.104C14.7718 62.7413 14.6438 62.2987 14.6438 61.776C14.6438 61.2427 14.7718 60.8053 15.0278 60.464C15.2838 60.112 15.6358 59.8507 16.0838 59.68C16.5318 59.4987 17.0331 59.408 17.5878 59.408H20.2278V58.832C20.2278 58.2773 20.0624 57.84 19.7318 57.52C19.4118 57.2 18.9318 57.04 18.2918 57.04C17.6624 57.04 17.1718 57.1947 16.8198 57.504C16.4678 57.8027 16.2278 58.208 16.0998 58.72L14.9158 58.336C15.0438 57.8987 15.2464 57.504 15.5238 57.152C15.8011 56.7893 16.1691 56.5013 16.6278 56.288C17.0971 56.064 17.6571 55.952 18.3078 55.952C19.3104 55.952 20.0891 56.2133 20.6438 56.736C21.1984 57.248 21.4758 57.9733 21.4758 58.912V62.448C21.4758 62.768 21.6251 62.928 21.9238 62.928H22.6438V64H21.5398C21.1878 64 20.9051 63.904 20.6918 63.712C20.4784 63.5093 20.3718 63.2427 20.3718 62.912V62.832H20.1798C20.0624 63.0347 19.9024 63.248 19.6998 63.472C19.5078 63.6853 19.2411 63.8613 18.8998 64C18.5584 64.1493 18.1158 64.224 17.5718 64.224ZM17.7158 63.136C18.4624 63.136 19.0651 62.9173 19.5238 62.48C19.9931 62.032 20.2278 61.408 20.2278 60.608V60.432H17.6358C17.1344 60.432 16.7184 60.544 16.3878 60.768C16.0678 60.9813 15.9078 61.3067 15.9078 61.744C15.9078 62.1813 16.0731 62.5227 16.4038 62.768C16.7451 63.0133 17.1824 63.136 17.7158 63.136Z" fill="#9399B2"/>
<path d="M24.3749 64V52.8H25.6389V59.392H25.8629L29.4469 56.176H31.2069L26.8709 59.984L31.3349 64H29.5909L25.8629 60.592H25.6389V64H24.3749Z" fill="#9399B2"/>
<path d="M36.1464 64.224C35.3571 64.224 34.6637 64.0587 34.0664 63.728C33.4691 63.3867 33.0051 62.912 32.6744 62.304C32.3437 61.696 32.1784 60.992 32.1784 60.192V60C32.1784 59.1893 32.3437 58.48 32.6744 57.872C33.0051 57.264 33.4637 56.7947 34.0504 56.464C34.6371 56.1227 35.3091 55.952 36.0664 55.952C36.8024 55.952 37.4531 56.112 38.0184 56.432C38.5837 56.7413 39.0264 57.1893 39.3464 57.776C39.6664 58.3627 39.8264 59.0507 39.8264 59.84V60.416H33.4424C33.4744 61.2587 33.7464 61.92 34.2584 62.4C34.7704 62.8693 35.4104 63.104 36.1784 63.104C36.8504 63.104 37.3677 62.9493 37.7304 62.64C38.0931 62.3307 38.3704 61.9627 38.5624 61.536L39.6504 62.064C39.4904 62.3947 39.2664 62.7253 38.9784 63.056C38.7011 63.3867 38.3331 63.664 37.8744 63.888C37.4264 64.112 36.8504 64.224 36.1464 64.224ZM33.4584 59.376H38.5464C38.5037 58.6507 38.2531 58.0853 37.7944 57.68C37.3464 57.2747 36.7704 57.072 36.0664 57.072C35.3517 57.072 34.7651 57.2747 34.3064 57.68C33.8477 58.0853 33.5651 58.6507 33.4584 59.376Z" fill="#9399B2"/>
<path d="M46.1405 64V56.176H47.3725V57.136H47.5965C47.7352 56.7947 47.9485 56.544 48.2365 56.384C48.5245 56.224 48.9032 56.144 49.3725 56.144H50.3005V57.296H49.2925C48.7272 57.296 48.2685 57.456 47.9165 57.776C47.5752 58.0853 47.4045 58.5707 47.4045 59.232V64H46.1405Z" fill="#9399B2"/>
<path d="M55.4745 64.224C54.6852 64.224 53.9919 64.0587 53.3945 63.728C52.7972 63.3867 52.3332 62.912 52.0025 62.304C51.6719 61.696 51.5065 60.992 51.5065 60.192V60C51.5065 59.1893 51.6719 58.48 52.0025 57.872C52.3332 57.264 52.7919 56.7947 53.3785 56.464C53.9652 56.1227 54.6372 55.952 55.3945 55.952C56.1305 55.952 56.7812 56.112 57.3465 56.432C57.9119 56.7413 58.3545 57.1893 58.6745 57.776C58.9945 58.3627 59.1545 59.0507 59.1545 59.84V60.416H52.7705C52.8025 61.2587 53.0745 61.92 53.5865 62.4C54.0985 62.8693 54.7385 63.104 55.5065 63.104C56.1785 63.104 56.6959 62.9493 57.0585 62.64C57.4212 62.3307 57.6985 61.9627 57.8905 61.536L58.9785 62.064C58.8185 62.3947 58.5945 62.7253 58.3065 63.056C58.0292 63.3867 57.6612 63.664 57.2025 63.888C56.7545 64.112 56.1785 64.224 55.4745 64.224ZM52.7865 59.376H57.8745C57.8319 58.6507 57.5812 58.0853 57.1225 57.68C56.6745 57.2747 56.0985 57.072 55.3945 57.072C54.6799 57.072 54.0932 57.2747 53.6345 57.68C53.1759 58.0853 52.8932 58.6507 52.7865 59.376Z" fill="#9399B2"/>
<path d="M67.7433 67.2V62.768H67.5193C67.3913 63.0027 67.21 63.232 66.9753 63.456C66.7406 63.68 66.4313 63.8613 66.0473 64C65.674 64.1493 65.2153 64.224 64.6713 64.224C63.9886 64.224 63.3646 64.064 62.7993 63.744C62.2446 63.424 61.802 62.96 61.4713 62.352C61.1406 61.744 60.9753 61.024 60.9753 60.192V59.984C60.9753 59.1413 61.1406 58.4213 61.4713 57.824C61.802 57.2267 62.25 56.768 62.8153 56.448C63.3806 56.1173 63.9993 55.952 64.6713 55.952C65.482 55.952 66.1113 56.1067 66.5593 56.416C67.0073 56.7253 67.338 57.0773 67.5513 57.472H67.7753V56.176H69.0073V67.2H67.7433ZM65.0073 63.104C65.818 63.104 66.474 62.848 66.9753 62.336C67.4873 61.8133 67.7433 61.088 67.7433 60.16V60.016C67.7433 59.088 67.4873 58.368 66.9753 57.856C66.474 57.3333 65.818 57.072 65.0073 57.072C64.2073 57.072 63.546 57.3333 63.0233 57.856C62.5113 58.368 62.2553 59.088 62.2553 60.016V60.16C62.2553 61.088 62.5113 61.8133 63.0233 62.336C63.546 62.848 64.2073 63.104 65.0073 63.104Z" fill="#9399B2"/>
<path d="M74.6482 64.144C74.0828 64.144 73.5602 64.0213 73.0802 63.776C72.6108 63.5307 72.2375 63.168 71.9602 62.688C71.6935 62.1973 71.5602 61.6053 71.5602 60.912V56.176H72.8242V60.816C72.8242 61.5947 73.0162 62.16 73.4002 62.512C73.7948 62.864 74.3228 63.04 74.9842 63.04C75.7308 63.04 76.3442 62.7947 76.8242 62.304C77.3042 61.8133 77.5442 61.0827 77.5442 60.112V56.176H78.8082V64H77.5762V62.672H77.3522C77.1815 63.0453 76.8882 63.3867 76.4722 63.696C76.0562 63.9947 75.4482 64.144 74.6482 64.144Z" fill="#9399B2"/>
<path d="M85.037 64.224C84.2477 64.224 83.5544 64.0587 82.957 63.728C82.3597 63.3867 81.8957 62.912 81.565 62.304C81.2344 61.696 81.069 60.992 81.069 60.192V60C81.069 59.1893 81.2344 58.48 81.565 57.872C81.8957 57.264 82.3544 56.7947 82.941 56.464C83.5277 56.1227 84.1997 55.952 84.957 55.952C85.693 55.952 86.3437 56.112 86.909 56.432C87.4744 56.7413 87.917 57.1893 88.237 57.776C88.557 58.3627 88.717 59.0507 88.717 59.84V60.416H82.333C82.365 61.2587 82.637 61.92 83.149 62.4C83.661 62.8693 84.301 63.104 85.069 63.104C85.741 63.104 86.2584 62.9493 86.621 62.64C86.9837 62.3307 87.261 61.9627 87.453 61.536L88.541 62.064C88.381 62.3947 88.157 62.7253 87.869 63.056C87.5917 63.3867 87.2237 63.664 86.765 63.888C86.317 64.112 85.741 64.224 85.037 64.224ZM82.349 59.376H87.437C87.3944 58.6507 87.1437 58.0853 86.685 57.68C86.237 57.2747 85.661 57.072 84.957 57.072C84.2424 57.072 83.6557 57.2747 83.197 57.68C82.7384 58.0853 82.4557 58.6507 82.349 59.376Z" fill="#9399B2"/>
<path d="M94.0738 64.224C93.1031 64.224 92.2818 64 91.6098 63.552C90.9485 63.104 90.5485 62.3947 90.4098 61.424L91.6098 61.152C91.6951 61.664 91.8551 62.0693 92.0898 62.368C92.3245 62.656 92.6125 62.864 92.9538 62.992C93.3058 63.1093 93.6791 63.168 94.0738 63.168C94.6605 63.168 95.1245 63.0507 95.4658 62.816C95.8071 62.5813 95.9778 62.2667 95.9778 61.872C95.9778 61.4667 95.8125 61.184 95.4818 61.024C95.1618 60.8533 94.7191 60.7147 94.1538 60.608L93.4978 60.496C92.9965 60.4107 92.5378 60.2773 92.1218 60.096C91.7058 59.9147 91.3751 59.6693 91.1298 59.36C90.8845 59.0507 90.7618 58.6613 90.7618 58.192C90.7618 57.488 91.0338 56.9387 91.5778 56.544C92.1218 56.1493 92.8418 55.952 93.7378 55.952C94.6231 55.952 95.3378 56.1547 95.8818 56.56C96.4365 56.9547 96.7938 57.5147 96.9538 58.24L95.7698 58.544C95.6738 57.9787 95.4445 57.584 95.0818 57.36C94.7191 57.1253 94.2711 57.008 93.7378 57.008C93.2045 57.008 92.7831 57.1093 92.4738 57.312C92.1645 57.504 92.0098 57.792 92.0098 58.176C92.0098 58.5493 92.1538 58.8267 92.4418 59.008C92.7405 59.1787 93.1351 59.3067 93.6258 59.392L94.2818 59.504C94.8365 59.6 95.3325 59.7333 95.7698 59.904C96.2178 60.064 96.5698 60.2987 96.8258 60.608C97.0925 60.9173 97.2258 61.3227 97.2258 61.824C97.2258 62.592 96.9378 63.184 96.3618 63.6C95.7965 64.016 95.0338 64.224 94.0738 64.224Z" fill="#9399B2"/>
<path d="M102.067 64C101.619 64 101.273 63.8773 101.027 63.632C100.793 63.3867 100.675 63.0507 100.675 62.624V57.28H98.3234V56.176H100.675V53.392H101.939V56.176H104.499V57.28H101.939V62.432C101.939 62.752 102.094 62.912 102.403 62.912H104.147V64H102.067Z" fill="#9399B2"/>
<path d="M110.656 64V52.8H111.92V64H110.656Z" fill="#9399B2"/>
<path d="M114.578 64V56.176H115.842V64H114.578ZM115.218 54.96C114.941 54.96 114.706 54.8693 114.514 54.688C114.333 54.5067 114.242 54.2773 114.242 54C114.242 53.712 114.333 53.4773 114.514 53.296C114.706 53.1147 114.941 53.024 115.218 53.024C115.495 53.024 115.725 53.1147 115.906 53.296C116.087 53.4773 116.178 53.712 116.178 54C116.178 54.2773 116.087 54.5067 115.906 54.688C115.725 54.8693 115.495 54.96 115.218 54.96Z" fill="#9399B2"/>
<path d="M118.116 60.128V59.904C118.116 59.0827 118.281 58.3787 118.612 57.792C118.943 57.2053 119.391 56.752 119.956 56.432C120.521 56.112 121.14 55.952 121.812 55.952C122.633 55.952 123.263 56.112 123.7 56.432C124.148 56.7413 124.479 57.088 124.692 57.472H124.916V56.176H126.116V65.824C126.116 66.2507 125.999 66.5867 125.764 66.832C125.529 67.0773 125.188 67.2 124.74 67.2H119.428V66.08H124.404C124.724 66.08 124.884 65.92 124.884 65.6V62.624H124.66C124.532 62.8587 124.351 63.088 124.116 63.312C123.881 63.536 123.577 63.7227 123.204 63.872C122.831 64.0107 122.367 64.08 121.812 64.08C121.14 64.08 120.521 63.92 119.956 63.6C119.391 63.28 118.943 62.8267 118.612 62.24C118.281 61.6427 118.116 60.9387 118.116 60.128ZM122.148 62.96C122.959 62.96 123.615 62.704 124.116 62.192C124.628 61.68 124.884 60.976 124.884 60.08V59.952C124.884 59.0453 124.628 58.3413 124.116 57.84C123.615 57.328 122.959 57.072 122.148 57.072C121.348 57.072 120.687 57.328 120.164 57.84C119.652 58.3413 119.396 59.0453 119.396 59.952V60.08C119.396 60.976 119.652 61.68 120.164 62.192C120.687 62.704 121.348 62.96 122.148 62.96Z" fill="#9399B2"/>
<path d="M128.766 64V52.8H130.03V57.424H130.254C130.36 57.1893 130.52 56.9707 130.734 56.768C130.958 56.5547 131.24 56.3787 131.582 56.24C131.934 56.1013 132.376 56.032 132.91 56.032C133.496 56.032 134.019 56.16 134.478 56.416C134.947 56.6613 135.32 57.024 135.598 57.504C135.875 57.9733 136.014 58.56 136.014 59.264V64H134.75V59.36C134.75 58.5813 134.552 58.016 134.158 57.664C133.774 57.312 133.251 57.136 132.59 57.136C131.832 57.136 131.214 57.3813 130.734 57.872C130.264 58.3627 130.03 59.0933 130.03 60.064V64H128.766Z" fill="#9399B2"/>
<path d="M141.239 64C140.791 64 140.445 63.8773 140.199 63.632C139.965 63.3867 139.847 63.0507 139.847 62.624V57.28H137.495V56.176H139.847V53.392H141.111V56.176H143.671V57.28H141.111V62.432C141.111 62.752 141.266 62.912 141.575 62.912H143.319V64H141.239Z" fill="#9399B2"/>
<path d="M149.021 64.224C148.232 64.224 147.539 64.0587 146.941 63.728C146.344 63.3867 145.88 62.912 145.549 62.304C145.219 61.696 145.053 60.992 145.053 60.192V60C145.053 59.1893 145.219 58.48 145.549 57.872C145.88 57.264 146.339 56.7947 146.925 56.464C147.512 56.1227 148.184 55.952 148.941 55.952C149.677 55.952 150.328 56.112 150.893 56.432C151.459 56.7413 151.901 57.1893 152.221 57.776C152.541 58.3627 152.701 59.0507 152.701 59.84V60.416H146.317C146.349 61.2587 146.621 61.92 147.133 62.4C147.645 62.8693 148.285 63.104 149.053 63.104C149.725 63.104 150.243 62.9493 150.605 62.64C150.968 62.3307 151.245 61.9627 151.437 61.536L152.525 62.064C152.365 62.3947 152.141 62.7253 151.853 63.056C151.576 63.3867 151.208 63.664 150.749 63.888C150.301 64.112 149.725 64.224 149.021 64.224ZM146.333 59.376H151.421C151.379 58.6507 151.128 58.0853 150.669 57.68C150.221 57.2747 149.645 57.072 148.941 57.072C148.227 57.072 147.64 57.2747 147.181 57.68C146.723 58.0853 146.44 58.6507 146.333 59.376Z" fill="#9399B2"/>
<path d="M154.906 64V56.176H156.138V57.136H156.362C156.501 56.7947 156.714 56.544 157.002 56.384C157.29 56.224 157.669 56.144 158.138 56.144H159.066V57.296H158.058C157.493 57.296 157.034 57.456 156.682 57.776C156.341 58.0853 156.17 58.5707 156.17 59.232V64H154.906Z" fill="#9399B2"/>
<path d="M167.927 64C167.479 64 167.132 63.8773 166.887 63.632C166.652 63.3867 166.535 63.0507 166.535 62.624V57.28H164.183V56.176H166.535V53.392H167.799V56.176H170.359V57.28H167.799V62.432C167.799 62.752 167.953 62.912 168.263 62.912H170.007V64H167.927Z" fill="#9399B2"/>
<path d="M172.406 64V52.8H173.67V57.424H173.894C174.001 57.1893 174.161 56.9707 174.374 56.768C174.598 56.5547 174.881 56.3787 175.222 56.24C175.574 56.1013 176.017 56.032 176.55 56.032C177.137 56.032 177.66 56.16 178.118 56.416C178.588 56.6613 178.961 57.024 179.238 57.504C179.516 57.9733 179.654 58.56 179.654 59.264V64H178.39V59.36C178.39 58.5813 178.193 58.016 177.798 57.664C177.414 57.312 176.891 57.136 176.23 57.136C175.473 57.136 174.854 57.3813 174.374 57.872C173.905 58.3627 173.67 59.0933 173.67 60.064V64H172.406Z" fill="#9399B2"/>
<path d="M184.619 64.224C184.075 64.224 183.579 64.128 183.131 63.936C182.683 63.744 182.331 63.4667 182.075 63.104C181.819 62.7413 181.691 62.2987 181.691 61.776C181.691 61.2427 181.819 60.8053 182.075 60.464C182.331 60.112 182.683 59.8507 183.131 59.68C183.579 59.4987 184.08 59.408 184.635 59.408H187.275V58.832C187.275 58.2773 187.109 57.84 186.779 57.52C186.459 57.2 185.979 57.04 185.339 57.04C184.709 57.04 184.219 57.1947 183.867 57.504C183.515 57.8027 183.275 58.208 183.147 58.72L181.963 58.336C182.091 57.8987 182.293 57.504 182.571 57.152C182.848 56.7893 183.216 56.5013 183.675 56.288C184.144 56.064 184.704 55.952 185.355 55.952C186.357 55.952 187.136 56.2133 187.691 56.736C188.245 57.248 188.523 57.9733 188.523 58.912V62.448C188.523 62.768 188.672 62.928 188.971 62.928H189.691V64H188.587C188.235 64 187.952 63.904 187.739 63.712C187.525 63.5093 187.419 63.2427 187.419 62.912V62.832H187.227C187.109 63.0347 186.949 63.248 186.747 63.472C186.555 63.6853 186.288 63.8613 185.947 64C185.605 64.1493 185.163 64.224 184.619 64.224ZM184.763 63.136C185.509 63.136 186.112 62.9173 186.571 62.48C187.04 62.032 187.275 61.408 187.275 60.608V60.432H184.683C184.181 60.432 183.765 60.544 183.435 60.768C183.115 60.9813 182.955 61.3067 182.955 61.744C182.955 62.1813 183.12 62.5227 183.451 62.768C183.792 63.0133 184.229 63.136 184.763 63.136Z" fill="#9399B2"/>
<path d="M191.422 64V56.176H192.654V57.504H192.878C193.048 57.1307 193.336 56.7947 193.742 56.496C194.158 56.1867 194.766 56.032 195.566 56.032C196.152 56.032 196.675 56.1547 197.134 56.4C197.603 56.6453 197.976 57.008 198.254 57.488C198.531 57.968 198.67 58.56 198.67 59.264V64H197.406V59.36C197.406 58.5813 197.208 58.016 196.814 57.664C196.43 57.312 195.907 57.136 195.246 57.136C194.488 57.136 193.87 57.3813 193.39 57.872C192.92 58.3627 192.686 59.0933 192.686 60.064V64H191.422Z" fill="#9399B2"/>
<path d="M209.68 64.224C208.869 64.224 208.234 64.0693 207.776 63.76C207.328 63.4507 207.002 63.0987 206.8 62.704H206.576V64H205.344V52.8H206.608V57.408H206.832C206.96 57.1627 207.141 56.9333 207.376 56.72C207.61 56.496 207.914 56.3147 208.288 56.176C208.672 56.0267 209.136 55.952 209.68 55.952C210.362 55.952 210.981 56.1173 211.536 56.448C212.101 56.768 212.549 57.232 212.88 57.84C213.21 58.4373 213.376 59.152 213.376 59.984V60.192C213.376 61.024 213.205 61.744 212.864 62.352C212.533 62.96 212.085 63.424 211.52 63.744C210.965 64.064 210.352 64.224 209.68 64.224ZM209.344 63.104C210.154 63.104 210.81 62.848 211.312 62.336C211.824 61.8133 212.08 61.088 212.08 60.16V60.016C212.08 59.088 211.824 58.368 211.312 57.856C210.81 57.3333 210.154 57.072 209.344 57.072C208.544 57.072 207.882 57.3333 207.36 57.856C206.848 58.368 206.592 59.088 206.592 60.016V60.16C206.592 61.088 206.848 61.8133 207.36 62.336C207.882 62.848 208.544 63.104 209.344 63.104Z" fill="#9399B2"/>
<path d="M219.225 64.224C218.435 64.224 217.742 64.0587 217.145 63.728C216.547 63.3867 216.083 62.912 215.753 62.304C215.422 61.696 215.257 60.992 215.257 60.192V60C215.257 59.1893 215.422 58.48 215.753 57.872C216.083 57.264 216.542 56.7947 217.129 56.464C217.715 56.1227 218.387 55.952 219.145 55.952C219.881 55.952 220.531 56.112 221.097 56.432C221.662 56.7413 222.105 57.1893 222.425 57.776C222.745 58.3627 222.905 59.0507 222.905 59.84V60.416H216.521C216.553 61.2587 216.825 61.92 217.337 62.4C217.849 62.8693 218.489 63.104 219.257 63.104C219.929 63.104 220.446 62.9493 220.809 62.64C221.171 62.3307 221.449 61.9627 221.641 61.536L222.729 62.064C222.569 62.3947 222.345 62.7253 222.057 63.056C221.779 63.3867 221.411 63.664 220.953 63.888C220.505 64.112 219.929 64.224 219.225 64.224ZM216.537 59.376H221.625C221.582 58.6507 221.331 58.0853 220.873 57.68C220.425 57.2747 219.849 57.072 219.145 57.072C218.43 57.072 217.843 57.2747 217.385 57.68C216.926 58.0853 216.643 58.6507 216.537 59.376Z" fill="#9399B2"/>
<path d="M226.317 64V57.28H223.917V56.176H226.317V54.176C226.317 53.7493 226.435 53.4133 226.669 53.168C226.915 52.9227 227.261 52.8 227.709 52.8H229.677V53.888H228.061C227.741 53.888 227.581 54.048 227.581 54.368V56.176H230.045V57.28H227.581V64H226.317Z" fill="#9399B2"/>
<path d="M235.085 64.224C234.295 64.224 233.597 64.0587 232.989 63.728C232.391 63.3973 231.922 62.9333 231.581 62.336C231.25 61.728 231.085 61.0133 231.085 60.192V59.984C231.085 59.1733 231.25 58.464 231.581 57.856C231.922 57.248 232.391 56.7787 232.989 56.448C233.597 56.1173 234.295 55.952 235.085 55.952C235.874 55.952 236.567 56.1173 237.165 56.448C237.773 56.7787 238.242 57.248 238.573 57.856C238.914 58.464 239.085 59.1733 239.085 59.984V60.192C239.085 61.0133 238.914 61.728 238.573 62.336C238.242 62.9333 237.773 63.3973 237.165 63.728C236.567 64.0587 235.874 64.224 235.085 64.224ZM235.085 63.088C235.917 63.088 236.578 62.8267 237.069 62.304C237.57 61.7707 237.821 61.056 237.821 60.16V60.016C237.821 59.12 237.57 58.4107 237.069 57.888C236.578 57.3547 235.917 57.088 235.085 57.088C234.263 57.088 233.602 57.3547 233.101 57.888C232.599 58.4107 232.349 59.12 232.349 60.016V60.16C232.349 61.056 232.599 61.7707 233.101 62.304C233.602 62.8267 234.263 63.088 235.085 63.088Z" fill="#9399B2"/>
<path d="M241.359 64V56.176H242.591V57.136H242.815C242.954 56.7947 243.167 56.544 243.455 56.384C243.743 56.224 244.122 56.144 244.591 56.144H245.519V57.296H244.511C243.946 57.296 243.487 57.456 243.135 57.776C242.794 58.0853 242.623 58.5707 242.623 59.232V64H241.359Z" fill="#9399B2"/>
<path d="M250.693 64.224C249.904 64.224 249.211 64.0587 248.613 63.728C248.016 63.3867 247.552 62.912 247.221 62.304C246.891 61.696 246.725 60.992 246.725 60.192V60C246.725 59.1893 246.891 58.48 247.221 57.872C247.552 57.264 248.011 56.7947 248.597 56.464C249.184 56.1227 249.856 55.952 250.613 55.952C251.349 55.952 252 56.112 252.565 56.432C253.131 56.7413 253.573 57.1893 253.893 57.776C254.213 58.3627 254.373 59.0507 254.373 59.84V60.416H247.989C248.021 61.2587 248.293 61.92 248.805 62.4C249.317 62.8693 249.957 63.104 250.725 63.104C251.397 63.104 251.915 62.9493 252.277 62.64C252.64 62.3307 252.917 61.9627 253.109 61.536L254.197 62.064C254.037 62.3947 253.813 62.7253 253.525 63.056C253.248 63.3867 252.88 63.664 252.421 63.888C251.973 64.112 251.397 64.224 250.693 64.224ZM248.005 59.376H253.093C253.051 58.6507 252.8 58.0853 252.341 57.68C251.893 57.2747 251.317 57.072 250.613 57.072C249.899 57.072 249.312 57.2747 248.853 57.68C248.395 58.0853 248.112 58.6507 248.005 59.376Z" fill="#9399B2"/>
</svg>
