<svg width="245" height="24" viewBox="0 0 245 24" fill="none" xmlns="http://www.w3.org/2000/svg">
<path d="M3.42244 24H0V0H3.42244V3.42857H5.13366V5.14286H6.84488V6.85714H10.2673V5.14286H11.9785V3.42857H13.6898V0H17.1122V24H13.6898V8.57143H11.9785V10.2857H10.2673V13.7143H6.84488V10.2857H5.13366V8.57143H3.42244V24Z" fill="white"/>
<path d="M35.7084 1.71429V5.14286H32.286V1.71429H35.7084ZM37.4196 20.5714H39.1308V24H35.7084V22.2857H33.9972V20.5714H32.286V12H28.8635V8.57143H35.7084V18.8571H37.4196V20.5714Z" fill="white"/>
<path d="M54.3046 10.2857V24H50.8821V5.14286H54.3046V6.85714H56.0158V5.14286H64.5719V6.85714H66.2831V8.57143H67.9943V24H64.5719V10.2857H62.8607V8.57143H56.0158V10.2857H54.3046Z" fill="white"/>
<path d="M79.7456 10.2857V12H90.013V10.2857H88.3017V8.57143H81.4569V10.2857H79.7456ZM93.4354 18.8571V20.5714H91.7242V22.2857H90.013V24H79.7456V22.2857H78.0344V20.5714H76.3232V8.57143H78.0344V6.85714H79.7456V5.14286H90.013V6.85714H91.7242V8.57143H93.4354V13.7143H91.7242V15.4286H79.7456V18.8571H81.4569V20.5714H88.3017V18.8571H93.4354Z" fill="white"/>
<path d="M104.105 3.42857V10.2857H112.661V8.57143H114.372V5.14286H112.661V3.42857H104.105ZM104.105 13.7143V24H100.682V0H114.372V1.71429H116.083V3.42857H117.795V10.2857H116.083V12H114.372V13.7143H104.105Z" fill="#C6D1CF"/>
<path d="M136.391 0V24H132.968V0H136.391Z" fill="#C6D1CF"/>
<path d="M156.698 20.5714H163.543V18.8571H165.254V15.4286H163.543V13.7143H156.698V15.4286H154.987V18.8571H156.698V20.5714ZM154.987 24V22.2857H153.276V20.5714H151.565V13.7143H153.276V12H154.987V10.2857H163.543V12H165.254V8.57143H163.543V6.85714H154.987V3.42857H165.254V5.14286H166.966V6.85714H168.677V24H165.254V22.2857H163.543V24H154.987Z" fill="#C6D1CF"/>
<path d="M180.428 24V20.5714H188.984V18.8571H190.695V13.7143H188.984V15.4286H187.273V17.1429H180.428V15.4286H178.717V13.7143H177.006V3.42857H180.428V12H182.139V13.7143H185.562V12H187.273V10.2857H188.984V6.85714H190.695V3.42857H194.118V20.5714H192.407V22.2857H190.695V24H180.428Z" fill="#C6D1CF"/>
<path d="M205.869 10.2857V12H216.136V10.2857H214.425V8.57143H207.58V10.2857H205.869ZM219.559 18.8571V20.5714H217.848V22.2857H216.136V24H205.869V22.2857H204.158V20.5714H202.447V8.57143H204.158V6.85714H205.869V5.14286H216.136V6.85714H217.848V8.57143H219.559V13.7143H217.848V15.4286H205.869V18.8571H207.58V20.5714H214.425V18.8571H219.559Z" fill="#C6D1CF"/>
<path d="M231.31 13.7143V24H227.888V5.14286H231.31V8.57143H233.021V6.85714H234.733V5.14286H241.578V6.85714H243.289V8.57143H245V12H241.578V10.2857H239.866V8.57143H236.444V10.2857H234.733V12H233.021V13.7143H231.31Z" fill="#C6D1CF"/>
</svg>
