<svg width="249" height="26" viewBox="0 0 249 26" fill="none" xmlns="http://www.w3.org/2000/svg">
<rect x="180.447" width="67.7133" height="25.5738" rx="10" fill="#2D2D2D"/>
<path d="M207.38 19.6066V6.97314H215.066V9.08724H209.885V12.0027H214.27V14.1167H209.885V17.4925H215.252V19.6066H207.38Z" fill="white"/>
<path d="M216.508 19.6066L220.013 13.1108L216.695 6.97314H219.488L220.74 9.59872C220.887 9.88287 221.034 10.1898 221.181 10.5194C221.327 10.8376 221.491 11.19 221.672 11.5764H221.739C221.897 11.19 222.044 10.8376 222.179 10.5194C222.315 10.1898 222.45 9.88287 222.586 9.59872L223.771 6.97314H226.411L223.11 13.2131L226.632 19.6066H223.855L222.45 16.8105C222.304 16.4923 222.146 16.1627 221.976 15.8217C221.818 15.4807 221.649 15.117 221.468 14.7305H221.401C221.243 15.117 221.09 15.4807 220.944 15.8217C220.797 16.1627 220.645 16.4923 220.487 16.8105L219.149 19.6066H216.508Z" fill="white"/>
<path d="M230.417 19.6066V9.08724H226.896V6.97314H236.461V9.08724H232.923V19.6066H230.417Z" fill="white"/>
<path d="M201.608 14.8115V6.8197H204.147V19.6066H201.608L194.836 6.8197H197.375L201.608 14.8115Z" fill="white"/>
<path d="M195.021 13.2131L191.45 6.8197H193.831L197.402 13.2131L193.831 19.6066H191.45L195.021 13.2131Z" fill="#86EFAC"/>
<path d="M13.4657 8.13713C13.3631 6.90365 12.8629 5.90589 11.9652 5.14384C11.0739 4.38179 9.9197 4.00077 8.50259 4.00077C7.54717 4.00077 6.69755 4.17837 5.95373 4.53356C5.20991 4.88875 4.62639 5.3731 4.20318 5.98661C3.77998 6.60012 3.56837 7.30405 3.56837 8.09839C3.56837 8.60857 3.66455 9.07032 3.85692 9.48363C4.0557 9.89049 4.33463 10.2554 4.69372 10.5783C5.05281 10.8947 5.47922 11.1724 5.97296 11.4114C6.46671 11.6503 7.01175 11.8602 7.60809 12.041L9.7626 12.6804C10.5 12.9064 11.1797 13.1679 11.8017 13.465C12.4301 13.7621 12.9751 14.1173 13.4368 14.5306C13.9049 14.9374 14.2672 15.4153 14.5237 15.9643C14.7866 16.5132 14.918 17.1461 14.918 17.8629C14.918 18.9091 14.6487 19.8455 14.1101 20.6722C13.5779 21.4988 12.818 22.151 11.8305 22.6289C10.8495 23.1004 9.69207 23.3361 8.35832 23.3361C7.08869 23.3361 5.98258 23.1197 5.03998 22.6871C4.10379 22.2544 3.36318 21.6538 2.81814 20.8853C2.2731 20.1103 1.96531 19.2191 1.89478 18.2116H3.12593C3.19005 19.0318 3.44974 19.7422 3.90501 20.3428C4.3667 20.9369 4.97907 21.3955 5.74212 21.7184C6.50518 22.0413 7.37724 22.2027 8.35832 22.2027C9.41634 22.2027 10.3493 22.0219 11.1573 21.6602C11.9652 21.2921 12.5968 20.7819 13.0521 20.1297C13.5074 19.4774 13.735 18.7186 13.735 17.8532C13.735 17.1558 13.5715 16.5584 13.2445 16.0611C12.9174 15.5639 12.4333 15.1344 11.7921 14.7728C11.1573 14.4111 10.3686 14.0882 9.42596 13.804L7.12717 13.1066C5.58823 12.6351 4.41158 11.9926 3.59723 11.1789C2.78928 10.3652 2.38531 9.35124 2.38531 8.13713C2.38531 7.11677 2.65463 6.21264 3.19326 5.42476C3.73188 4.63043 4.46288 4.00723 5.38624 3.55517C6.31602 3.10311 7.36442 2.87708 8.53145 2.87708C9.70489 2.87708 10.7405 3.10633 11.6382 3.56485C12.5359 4.01692 13.2477 4.64012 13.7735 5.43445C14.2993 6.22233 14.591 7.12323 14.6487 8.13713H13.4657Z" fill="white"/>
<path d="M30.5036 23.0164V3.17737H31.7059V12.5254H43.575V3.17737H44.7773V23.0164H43.575V13.6491H31.7059V23.0164H30.5036Z" fill="white"/>
<path d="M61.3079 23.0164V3.17737H67.7041C68.8968 3.17737 69.9035 3.39049 70.7243 3.81672C71.5451 4.24295 72.167 4.84031 72.5903 5.60882C73.0199 6.37732 73.2347 7.27176 73.2347 8.29213C73.2347 9.09292 73.1064 9.8033 72.85 10.4233C72.5935 11.0432 72.2344 11.5567 71.7727 11.9635C71.3174 12.3639 70.782 12.6416 70.1664 12.7966V12.9128C70.8461 12.9645 71.4777 13.2035 72.0612 13.6297C72.6448 14.0495 73.1129 14.621 73.4655 15.3443C73.8246 16.0676 74.0042 16.9104 74.0042 17.8726C74.0042 18.8865 73.7861 19.781 73.3501 20.5559C72.9205 21.3244 72.2761 21.9282 71.4168 22.3674C70.5576 22.8001 69.4931 23.0164 68.2235 23.0164H61.3079ZM62.5102 21.8927H68.2235C69.7048 21.8927 70.8429 21.5182 71.638 20.769C72.4396 20.0199 72.8403 19.0544 72.8403 17.8726C72.8403 17.0395 72.6448 16.2936 72.2536 15.6349C71.8689 14.9762 71.3335 14.4563 70.6473 14.0753C69.9612 13.6878 69.1661 13.4941 68.262 13.4941H62.5102V21.8927ZM62.5102 12.3897H68.1177C68.9577 12.3897 69.6695 12.2057 70.253 11.8376C70.8429 11.4695 71.2918 10.9754 71.5996 10.3555C71.9138 9.7355 72.0709 9.04772 72.0709 8.29213C72.0709 7.0651 71.6925 6.09317 70.9359 5.37633C70.1793 4.65949 69.102 4.30107 67.7041 4.30107H62.5102V12.3897Z" fill="white"/>
<path d="M89.5729 23.0164V3.17737H90.7752V21.8927H100.394V23.0164H89.5729Z" fill="white"/>
<path d="M130.544 13.0969C130.544 15.1441 130.191 16.933 129.486 18.4635C128.78 19.9876 127.799 21.1727 126.543 22.0187C125.292 22.8647 123.849 23.2877 122.214 23.2877C120.573 23.2877 119.124 22.8647 117.867 22.0187C116.616 21.1662 115.639 19.9779 114.933 18.4538C114.228 16.9233 113.875 15.1376 113.875 13.0969C113.875 11.0497 114.228 9.26406 114.933 7.73997C115.645 6.21587 116.626 5.03082 117.876 4.18482C119.127 3.33237 120.573 2.90614 122.214 2.90614C123.849 2.90614 125.292 3.32914 126.543 4.17514C127.799 5.02114 128.78 6.20941 129.486 7.73997C130.191 9.26406 130.544 11.0497 130.544 13.0969ZM129.37 13.0969C129.37 11.2564 129.063 9.66123 128.447 8.3115C127.838 6.96177 126.995 5.9188 125.917 5.18259C124.84 4.43992 123.606 4.06858 122.214 4.06858C120.823 4.06858 119.588 4.43669 118.511 5.1729C117.434 5.90266 116.588 6.94563 115.972 8.30181C115.363 9.65154 115.058 11.2499 115.058 13.0969C115.058 14.9245 115.36 16.5164 115.962 17.8726C116.572 19.2223 117.415 20.2685 118.492 21.0112C119.569 21.7539 120.81 22.1252 122.214 22.1252C123.606 22.1252 124.84 21.7571 125.917 21.0209C126.995 20.2782 127.838 19.232 128.447 17.8823C129.063 16.5326 129.37 14.9374 129.37 13.0969Z" fill="white"/>
<path d="M159.879 9.37708C159.731 8.70544 159.481 8.05641 159.129 7.42998C158.776 6.79709 158.324 6.22879 157.772 5.72506C157.227 5.21488 156.586 4.81125 155.849 4.51418C155.118 4.21711 154.297 4.06858 153.386 4.06858C151.995 4.06858 150.761 4.43669 149.683 5.1729C148.613 5.90266 147.773 6.94563 147.163 8.30181C146.561 9.65154 146.259 11.2499 146.259 13.0969C146.259 14.9245 146.561 16.5164 147.163 17.8726C147.766 19.2288 148.609 20.2782 149.693 21.0209C150.783 21.7571 152.05 22.1252 153.492 22.1252C154.781 22.1252 155.923 21.8249 156.916 21.2243C157.917 20.6237 158.696 19.7648 159.254 18.6476C159.812 17.5303 160.084 16.1935 160.071 14.6371L160.494 14.8406H153.8V13.7169H161.245V14.8406C161.245 16.5907 160.911 18.0986 160.244 19.3644C159.584 20.6237 158.667 21.5924 157.494 22.2705C156.326 22.9486 154.993 23.2877 153.492 23.2877C151.799 23.2877 150.321 22.8647 149.058 22.0187C147.795 21.1727 146.814 19.9876 146.115 18.4635C145.422 16.933 145.076 15.1441 145.076 13.0969C145.076 11.5599 145.275 10.165 145.673 8.9121C146.07 7.65924 146.638 6.58721 147.375 5.696C148.112 4.79834 148.991 4.11056 150.01 3.63266C151.03 3.14831 152.155 2.90614 153.386 2.90614C154.502 2.90614 155.506 3.09342 156.397 3.46798C157.288 3.83609 158.058 4.33336 158.705 4.95979C159.359 5.57976 159.888 6.27399 160.292 7.0425C160.696 7.80455 160.969 8.58274 161.11 9.37708H159.879Z" fill="white"/>
</svg>
