<svg width="98" height="98" viewBox="0 0 98 98" fill="none" xmlns="http://www.w3.org/2000/svg">
<path d="M92 49C92 49.5523 91.5523 50 91 50C90.4477 50 90 49.5523 90 49C90 48.4477 90.4477 48 91 48C91.5523 48 92 48.4477 92 49Z" fill="#504947" fill-opacity="0.45"/>
<path d="M78 49C78 49.5523 77.5523 50 77 50C76.4477 50 76 49.5523 76 49C76 48.4477 76.4477 48 77 48C77.5523 48 78 48.4477 78 49Z" fill="#504947" fill-opacity="0.45"/>
<path d="M64 49C64 49.5523 63.5523 50 63 50C62.4477 50 62 49.5523 62 49C62 48.4477 62.4477 48 63 48C63.5523 48 64 48.4477 64 49Z" fill="#504947" fill-opacity="0.45"/>
<path d="M50 49C50 49.5523 49.5523 50 49 50C48.4477 50 48 49.5523 48 49C48 48.4477 48.4477 48 49 48C49.5523 48 50 48.4477 50 49Z" fill="#504947" fill-opacity="0.45"/>
<path d="M36 49C36 49.5523 35.5523 50 35 50C34.4477 50 34 49.5523 34 49C34 48.4477 34.4477 48 35 48C35.5523 48 36 48.4477 36 49Z" fill="#504947" fill-opacity="0.45"/>
<path d="M22 49C22 49.5523 21.5523 50 21 50C20.4477 50 20 49.5523 20 49C20 48.4477 20.4477 48 21 48C21.5523 48 22 48.4477 22 49Z" fill="#504947" fill-opacity="0.45"/>
<path d="M8 49C8 49.5523 7.55228 50 7 50C6.44772 50 6 49.5523 6 49C6 48.4477 6.44772 48 7 48C7.55228 48 8 48.4477 8 49Z" fill="#504947" fill-opacity="0.45"/>
<path d="M92 35C92 35.5523 91.5523 36 91 36C90.4477 36 90 35.5523 90 35C90 34.4477 90.4477 34 91 34C91.5523 34 92 34.4477 92 35Z" fill="#504947" fill-opacity="0.45"/>
<path d="M78 35C78 35.5523 77.5523 36 77 36C76.4477 36 76 35.5523 76 35C76 34.4477 76.4477 34 77 34C77.5523 34 78 34.4477 78 35Z" fill="#504947" fill-opacity="0.45"/>
<path d="M64 35C64 35.5523 63.5523 36 63 36C62.4477 36 62 35.5523 62 35C62 34.4477 62.4477 34 63 34C63.5523 34 64 34.4477 64 35Z" fill="#504947" fill-opacity="0.45"/>
<path d="M50 35C50 35.5523 49.5523 36 49 36C48.4477 36 48 35.5523 48 35C48 34.4477 48.4477 34 49 34C49.5523 34 50 34.4477 50 35Z" fill="#504947" fill-opacity="0.45"/>
<path d="M36 35C36 35.5523 35.5523 36 35 36C34.4477 36 34 35.5523 34 35C34 34.4477 34.4477 34 35 34C35.5523 34 36 34.4477 36 35Z" fill="#504947" fill-opacity="0.45"/>
<path d="M22 35C22 35.5523 21.5523 36 21 36C20.4477 36 20 35.5523 20 35C20 34.4477 20.4477 34 21 34C21.5523 34 22 34.4477 22 35Z" fill="#504947" fill-opacity="0.45"/>
<path d="M8 35C8 35.5523 7.55228 36 7 36C6.44772 36 6 35.5523 6 35C6 34.4477 6.44772 34 7 34C7.55228 34 8 34.4477 8 35Z" fill="#504947" fill-opacity="0.45"/>
<path d="M92 21C92 21.5523 91.5523 22 91 22C90.4477 22 90 21.5523 90 21C90 20.4477 90.4477 20 91 20C91.5523 20 92 20.4477 92 21Z" fill="#504947" fill-opacity="0.45"/>
<path d="M78 21C78 21.5523 77.5523 22 77 22C76.4477 22 76 21.5523 76 21C76 20.4477 76.4477 20 77 20C77.5523 20 78 20.4477 78 21Z" fill="#504947" fill-opacity="0.45"/>
<path d="M64 21C64 21.5523 63.5523 22 63 22C62.4477 22 62 21.5523 62 21C62 20.4477 62.4477 20 63 20C63.5523 20 64 20.4477 64 21Z" fill="#504947" fill-opacity="0.45"/>
<path d="M50 21C50 21.5523 49.5523 22 49 22C48.4477 22 48 21.5523 48 21C48 20.4477 48.4477 20 49 20C49.5523 20 50 20.4477 50 21Z" fill="#504947" fill-opacity="0.45"/>
<path d="M36 21C36 21.5523 35.5523 22 35 22C34.4477 22 34 21.5523 34 21C34 20.4477 34.4477 20 35 20C35.5523 20 36 20.4477 36 21Z" fill="#504947" fill-opacity="0.45"/>
<path d="M22 21C22 21.5523 21.5523 22 21 22C20.4477 22 20 21.5523 20 21C20 20.4477 20.4477 20 21 20C21.5523 20 22 20.4477 22 21Z" fill="#504947" fill-opacity="0.45"/>
<path d="M8 21C8 21.5523 7.55228 22 7 22C6.44772 22 6 21.5523 6 21C6 20.4477 6.44772 20 7 20C7.55228 20 8 20.4477 8 21Z" fill="#504947" fill-opacity="0.45"/>
<path d="M92 7C92 7.55228 91.5523 8 91 8C90.4477 8 90 7.55228 90 7C90 6.44772 90.4477 6 91 6C91.5523 6 92 6.44772 92 7Z" fill="#504947" fill-opacity="0.45"/>
<path d="M78 7C78 7.55228 77.5523 8 77 8C76.4477 8 76 7.55228 76 7C76 6.44772 76.4477 6 77 6C77.5523 6 78 6.44772 78 7Z" fill="#504947" fill-opacity="0.45"/>
<path d="M64 7C64 7.55228 63.5523 8 63 8C62.4477 8 62 7.55228 62 7C62 6.44772 62.4477 6 63 6C63.5523 6 64 6.44772 64 7Z" fill="#504947" fill-opacity="0.45"/>
<path d="M50 7C50 7.55228 49.5523 8 49 8C48.4477 8 48 7.55228 48 7C48 6.44772 48.4477 6 49 6C49.5523 6 50 6.44772 50 7Z" fill="#504947" fill-opacity="0.45"/>
<path d="M36 7C36 7.55228 35.5523 8 35 8C34.4477 8 34 7.55228 34 7C34 6.44772 34.4477 6 35 6C35.5523 6 36 6.44772 36 7Z" fill="#504947" fill-opacity="0.45"/>
<path d="M22 7C22 7.55228 21.5523 8 21 8C20.4477 8 20 7.55228 20 7C20 6.44772 20.4477 6 21 6C21.5523 6 22 6.44772 22 7Z" fill="#504947" fill-opacity="0.45"/>
<path d="M8 7C8 7.55228 7.55228 8 7 8C6.44772 8 6 7.55228 6 7C6 6.44772 6.44772 6 7 6C7.55228 6 8 6.44772 8 7Z" fill="#504947" fill-opacity="0.45"/>
<path d="M92 63C92 63.5523 91.5523 64 91 64C90.4477 64 90 63.5523 90 63C90 62.4477 90.4477 62 91 62C91.5523 62 92 62.4477 92 63Z" fill="#504947" fill-opacity="0.45"/>
<path d="M78 63C78 63.5523 77.5523 64 77 64C76.4477 64 76 63.5523 76 63C76 62.4477 76.4477 62 77 62C77.5523 62 78 62.4477 78 63Z" fill="#504947" fill-opacity="0.45"/>
<path d="M64 63C64 63.5523 63.5523 64 63 64C62.4477 64 62 63.5523 62 63C62 62.4477 62.4477 62 63 62C63.5523 62 64 62.4477 64 63Z" fill="#504947" fill-opacity="0.45"/>
<path d="M50 63C50 63.5523 49.5523 64 49 64C48.4477 64 48 63.5523 48 63C48 62.4477 48.4477 62 49 62C49.5523 62 50 62.4477 50 63Z" fill="#504947" fill-opacity="0.45"/>
<path d="M36 63C36 63.5523 35.5523 64 35 64C34.4477 64 34 63.5523 34 63C34 62.4477 34.4477 62 35 62C35.5523 62 36 62.4477 36 63Z" fill="#504947" fill-opacity="0.45"/>
<path d="M22 63C22 63.5523 21.5523 64 21 64C20.4477 64 20 63.5523 20 63C20 62.4477 20.4477 62 21 62C21.5523 62 22 62.4477 22 63Z" fill="#504947" fill-opacity="0.45"/>
<path d="M8 63C8 63.5523 7.55228 64 7 64C6.44772 64 6 63.5523 6 63C6 62.4477 6.44772 62 7 62C7.55228 62 8 62.4477 8 63Z" fill="#504947" fill-opacity="0.45"/>
<path d="M92 77C92 77.5523 91.5523 78 91 78C90.4477 78 90 77.5523 90 77C90 76.4477 90.4477 76 91 76C91.5523 76 92 76.4477 92 77Z" fill="#504947" fill-opacity="0.45"/>
<path d="M78 77C78 77.5523 77.5523 78 77 78C76.4477 78 76 77.5523 76 77C76 76.4477 76.4477 76 77 76C77.5523 76 78 76.4477 78 77Z" fill="#504947" fill-opacity="0.45"/>
<path d="M64 77C64 77.5523 63.5523 78 63 78C62.4477 78 62 77.5523 62 77C62 76.4477 62.4477 76 63 76C63.5523 76 64 76.4477 64 77Z" fill="#504947" fill-opacity="0.45"/>
<path d="M50 77C50 77.5523 49.5523 78 49 78C48.4477 78 48 77.5523 48 77C48 76.4477 48.4477 76 49 76C49.5523 76 50 76.4477 50 77Z" fill="#504947" fill-opacity="0.45"/>
<path d="M36 77C36 77.5523 35.5523 78 35 78C34.4477 78 34 77.5523 34 77C34 76.4477 34.4477 76 35 76C35.5523 76 36 76.4477 36 77Z" fill="#504947" fill-opacity="0.45"/>
<path d="M22 77C22 77.5523 21.5523 78 21 78C20.4477 78 20 77.5523 20 77C20 76.4477 20.4477 76 21 76C21.5523 76 22 76.4477 22 77Z" fill="#504947" fill-opacity="0.45"/>
<path d="M8 77C8 77.5523 7.55228 78 7 78C6.44772 78 6 77.5523 6 77C6 76.4477 6.44772 76 7 76C7.55228 76 8 76.4477 8 77Z" fill="#504947" fill-opacity="0.45"/>
<path d="M92 91C92 91.5523 91.5523 92 91 92C90.4477 92 90 91.5523 90 91C90 90.4477 90.4477 90 91 90C91.5523 90 92 90.4477 92 91Z" fill="#504947" fill-opacity="0.45"/>
<path d="M78 91C78 91.5523 77.5523 92 77 92C76.4477 92 76 91.5523 76 91C76 90.4477 76.4477 90 77 90C77.5523 90 78 90.4477 78 91Z" fill="#504947" fill-opacity="0.45"/>
<path d="M64 91C64 91.5523 63.5523 92 63 92C62.4477 92 62 91.5523 62 91C62 90.4477 62.4477 90 63 90C63.5523 90 64 90.4477 64 91Z" fill="#504947" fill-opacity="0.45"/>
<path d="M50 91C50 91.5523 49.5523 92 49 92C48.4477 92 48 91.5523 48 91C48 90.4477 48.4477 90 49 90C49.5523 90 50 90.4477 50 91Z" fill="#504947" fill-opacity="0.45"/>
<path d="M36 91C36 91.5523 35.5523 92 35 92C34.4477 92 34 91.5523 34 91C34 90.4477 34.4477 90 35 90C35.5523 90 36 90.4477 36 91Z" fill="#504947" fill-opacity="0.45"/>
<path d="M22 91C22 91.5523 21.5523 92 21 92C20.4477 92 20 91.5523 20 91C20 90.4477 20.4477 90 21 90C21.5523 90 22 90.4477 22 91Z" fill="#504947" fill-opacity="0.45"/>
<path d="M8 91C8 91.5523 7.55228 92 7 92C6.44772 92 6 91.5523 6 91C6 90.4477 6.44772 90 7 90C7.55228 90 8 90.4477 8 91Z" fill="#504947" fill-opacity="0.45"/>
</svg>
