<svg width="40" height="40" viewBox="0 0 40 40" fill="none" xmlns="http://www.w3.org/2000/svg">
<g clip-path="url(#clip0_12_2000)">
<path d="M18.5652 23.2999L25.4722 15.0685L24.0497 13.8749L17.1427 22.1063L18.5652 23.2999Z" fill="black"/>
<path d="M25.4724 15.0685L32.3794 6.83704L30.957 5.64346L24.05 13.8749L25.4724 15.0685Z" fill="#0019FF"/>
<path d="M25.5637 15.1674L32.6133 7.05774L31.2119 5.83952L24.1623 13.9492L25.5637 15.1674Z" fill="#0015FF"/>
<path d="M25.6532 15.2677L32.8433 7.28235L31.4633 6.03986L24.2733 14.0252L25.6532 15.2677Z" fill="#0011FF"/>
<path d="M25.7415 15.3697L33.0698 7.51099L31.7118 6.24461L24.3835 14.1033L25.7415 15.3697Z" fill="#000CFF"/>
<path d="M25.8276 15.4731L33.292 7.74353L31.9563 6.45364L24.4919 14.1832L25.8276 15.4731Z" fill="#0008FF"/>
<path d="M25.9121 15.5781L33.5103 7.97998L32.1973 6.66698L24.5991 14.2651L25.9121 15.5781Z" fill="#0004FF"/>
<path d="M25.9945 15.6845L33.7241 8.22009L32.4342 6.88437L24.7047 14.3487L25.9945 15.6845Z" fill="#0000FF"/>
<path d="M26.0749 15.7923L33.9336 8.46399L32.6672 7.10596L24.8085 14.4343L26.0749 15.7923Z" fill="#0500FF"/>
<path d="M26.1538 15.9015L34.1392 8.71143L32.8967 7.3315L24.9113 14.5216L26.1538 15.9015Z" fill="#0900FF"/>
<path d="M26.2307 16.0121L34.3403 8.96252L33.1221 7.56113L25.0125 14.6107L26.2307 16.0121Z" fill="#0D00FF"/>
<path d="M26.3057 16.124L34.5371 9.21704L33.3435 7.7946L25.1121 14.7016L26.3057 16.124Z" fill="#1100FF"/>
<path d="M26.3783 16.2371L34.729 9.47485L33.5604 8.0318L25.2097 14.7941L26.3783 16.2371Z" fill="#1600FF"/>
<path d="M26.4495 16.3516L34.917 9.73608L33.7738 8.27285L25.3063 14.8884L26.4495 16.3516Z" fill="#1A00FF"/>
<path d="M26.5185 16.4672L35.1001 10.0005L33.9826 8.51753L25.401 14.9843L26.5185 16.4672Z" fill="#1E00FF"/>
<path d="M26.5851 16.5842L35.2783 10.2682L34.1869 8.76595L25.4937 15.0819L26.5851 16.5842Z" fill="#2200FF"/>
<path d="M26.6501 16.7021L35.4521 10.5388L34.3871 9.01776L25.585 15.1811L26.6501 16.7021Z" fill="#2700FF"/>
<path d="M26.7128 16.8212L35.6211 10.8125L34.5827 9.27309L25.6744 15.2818L26.7128 16.8212Z" fill="#2B00FF"/>
<path d="M26.7733 16.9415L35.7852 11.0891L34.7738 9.53181L25.762 15.3842L26.7733 16.9415Z" fill="#2F00FF"/>
<path d="M26.8322 17.0627L35.9448 11.3685L34.9608 9.79382L25.8482 15.488L26.8322 17.0627Z" fill="#3300FF"/>
<path d="M26.8885 17.1849L36.0991 11.6506L35.1428 10.059L25.9322 15.5933L26.8885 17.1849Z" fill="#3800FF"/>
<path d="M26.9428 17.3081L36.2485 11.9354L35.3201 10.3273L26.0143 15.7L26.9428 17.3081Z" fill="#3C00FF"/>
<path d="M26.995 17.4322L36.3931 12.2228L35.4928 10.5987L26.0947 15.8082L26.995 17.4322Z" fill="#4000FF"/>
<path d="M27.0451 17.5572L36.5327 12.5126L35.661 10.8731L26.1734 15.9177L27.0451 17.5572Z" fill="#4400FF"/>
<path d="M27.0928 17.6831L36.667 12.8048L35.824 11.1503L26.2498 16.0286L27.0928 17.6831Z" fill="#4800FF"/>
<path d="M27.1385 17.8098L36.7964 13.0994L35.9824 11.4304L26.3245 16.1409L27.1385 17.8098Z" fill="#4D00FF"/>
<path d="M27.1818 17.9373L36.9204 13.3961L36.1357 11.7132L26.397 16.2544L27.1818 17.9373Z" fill="#5100FF"/>
<path d="M27.2227 18.0655L37.0391 13.6949L36.2838 11.9986L26.4674 16.3691L27.2227 18.0655Z" fill="#5500FF"/>
<path d="M27.2617 18.1944L37.1528 13.9958L36.4273 12.2866L26.5361 16.4851L27.2617 18.1944Z" fill="#5900FF"/>
<path d="M27.2983 18.324L37.2612 14.2987L36.5656 12.577L26.6027 16.6023L27.2983 18.324Z" fill="#5E00FF"/>
<path d="M27.3326 18.4542L37.3643 14.6034L36.6988 12.8699L26.6671 16.7207L27.3326 18.4542Z" fill="#6200FF"/>
<path d="M27.3646 18.5849L37.4619 14.9098L36.8268 13.1649L26.7295 16.84L27.3646 18.5849Z" fill="#6600FF"/>
<path d="M27.3947 18.7162L37.5547 15.2179L36.9502 13.4622L26.7902 16.9605L27.3947 18.7162Z" fill="#6A00FF"/>
<path d="M27.4221 18.848L37.6416 15.5275L37.0678 13.7615L26.8483 17.082L27.4221 18.848Z" fill="#6F00FF"/>
<path d="M27.4473 18.9803L37.7231 15.8386L37.1802 14.0629L26.9044 17.2045L27.4473 18.9803Z" fill="#7300FF"/>
<path d="M27.4702 19.1129L37.7993 16.1511L37.2875 14.3662L26.9584 17.328L27.4702 19.1129Z" fill="#7700FF"/>
<path d="M27.4909 19.246L37.8701 16.4648L37.3895 14.6712L27.0103 17.4524L27.4909 19.246Z" fill="#7B00FF"/>
<path d="M27.5089 19.3794L37.9351 16.7799L37.4858 14.9782L27.0597 17.5777L27.5089 19.3794Z" fill="#8000FF"/>
<path d="M27.5251 19.5131L37.9951 17.0959L37.5774 15.2867L27.1074 17.7039L27.5251 19.5131Z" fill="#8400FF"/>
<path d="M27.5388 19.6471L38.0493 17.413L37.6633 15.5967L27.1527 17.8308L27.5388 19.6471Z" fill="#8800FF"/>
<path d="M27.5497 19.7813L38.0977 17.731L37.7433 15.9082L27.1954 17.9585L27.5497 19.7813Z" fill="#8C00FF"/>
<path d="M27.5585 19.9156L38.1406 18.0497L37.8182 16.221L27.2361 18.0869L27.5585 19.9156Z" fill="#9100FF"/>
<path d="M27.5651 20.0501L38.1782 18.3691L37.8877 16.5351L27.2747 18.2161L27.5651 20.0501Z" fill="#9500FF"/>
<path d="M27.5696 20.1847L38.2104 18.6892L37.952 16.8504L27.3112 18.3459L27.5696 20.1847Z" fill="#9900FF"/>
<path d="M27.571 20.3193L38.2363 19.0098L38.01 17.1667L27.3448 18.4763L27.571 20.3193Z" fill="#9D00FF"/>
<path d="M27.5708 20.4539L38.2573 19.3307L38.0632 17.484L27.3767 18.6072L27.5708 20.4539Z" fill="#A100FF"/>
<path d="M27.568 20.5885L38.2725 19.652L38.1106 17.8022L27.4061 18.7387L27.568 20.5885Z" fill="#A600FF"/>
<path d="M27.5625 20.7231L38.2817 19.9735L38.1522 18.1212L27.433 18.8707L27.5625 20.7231Z" fill="#AA00FF"/>
<path d="M27.555 20.8575L38.2856 20.2952L38.1885 18.4408L27.4578 19.0032L27.555 20.8575Z" fill="#AE00FF"/>
<path d="M27.5454 20.9918L38.2842 20.6168L38.2194 18.7611L27.4805 19.1361L27.5454 20.9918Z" fill="#B200FF"/>
<path d="M27.5331 21.1259L38.2769 20.9384L38.2444 19.0818L27.5007 19.2693L27.5331 21.1259Z" fill="#B700FF"/>
<path d="M27.5183 21.2598H38.2637V19.4029H27.5183V21.2598Z" fill="#BB00FF"/>
<path d="M27.5019 21.3933L38.2456 21.5808L38.278 19.7242L27.5343 19.5367L27.5019 21.3933Z" fill="#BF00FF"/>
<path d="M27.4824 21.5266L38.2212 21.9016L38.286 20.0459L27.5472 19.6709L27.4824 21.5266Z" fill="#C300FF"/>
<path d="M27.4608 21.6594L38.1914 22.2218L38.2886 20.3675L27.5579 19.8051L27.4608 21.6594Z" fill="#C800FF"/>
<path d="M27.4371 21.7919L38.1562 22.5415L38.2858 20.6892L27.5666 19.9396L27.4371 21.7919Z" fill="#CC00FF"/>
<path d="M27.4108 21.9241L38.1152 22.8606L38.2771 21.0108L27.5726 20.0743L27.4108 21.9241Z" fill="#D000FF"/>
<path d="M27.3823 22.0556L38.0688 23.1788L38.2629 21.3321L27.5764 20.2089L27.3823 22.0556Z" fill="#D400FF"/>
<path d="M27.3518 22.1867L38.0171 23.4962L38.2434 21.6532L27.5781 20.3437L27.3518 22.1867Z" fill="#D900FF"/>
<path d="M27.3187 22.3173L37.9595 23.8127L38.2179 21.9739L27.5771 20.4785L27.3187 22.3173Z" fill="#DD00FF"/>
<path d="M27.2834 22.4472L37.8965 24.1282L38.187 22.2942L27.5739 20.6132L27.2834 22.4472Z" fill="#E100FF"/>
<path d="M27.2455 22.5765L37.8276 24.4424L38.1501 22.6137L27.568 20.7478L27.2455 22.5765Z" fill="#E500FF"/>
<path d="M27.206 22.7051L37.7539 24.7554L38.1082 22.9326L27.5603 20.8823L27.206 22.7051Z" fill="#EA00FF"/>
<path d="M27.1638 22.8329L37.6743 25.067L38.0604 23.2507L27.5498 21.0166L27.1638 22.8329Z" fill="#EE00FF"/>
<path d="M27.1194 22.9601L37.5894 25.3773L38.0071 23.568L27.5371 21.1509L27.1194 22.9601Z" fill="#F200FF"/>
<path d="M27.0728 23.0865L37.499 25.686L37.9482 23.8843L27.5221 21.2848L27.0728 23.0865Z" fill="#F600FF"/>
<path d="M27.0241 23.2121L37.4033 25.9932L37.8839 24.1996L27.5047 21.4185L27.0241 23.2121Z" fill="#FA00FF"/>
<path d="M26.9731 23.3366L37.3022 26.2985L37.8141 24.5135L27.485 21.5517L26.9731 23.3366Z" fill="#FF00FF"/>
<path d="M26.9204 23.4604L37.1963 26.6021L37.7392 24.8263L27.4633 21.6847L26.9204 23.4604Z" fill="#FF00FB"/>
<path d="M26.865 23.5832L37.0845 26.9037L37.6583 25.1377L27.4388 21.8172L26.865 23.5832Z" fill="#FF00F7"/>
<path d="M26.8078 23.705L36.9678 27.2034L37.5723 25.4477L27.4124 21.9493L26.8078 23.705Z" fill="#FF00F3"/>
<path d="M26.7484 23.8258L36.8457 27.501L37.4808 25.7561L27.3834 22.081L26.7484 23.8258Z" fill="#FF00EE"/>
<path d="M26.6866 23.9456L36.7183 27.7964L37.3837 26.0629L27.352 22.2121L26.6866 23.9456Z" fill="#FF00EA"/>
<path d="M26.623 24.0642L36.5859 28.0895L37.2815 26.3678L27.3186 22.3425L26.623 24.0642Z" fill="#FF00E6"/>
<path d="M26.5571 24.1817L36.4482 28.3802L37.1738 26.671L27.2826 22.4724L26.5571 24.1817Z" fill="#FF00E2"/>
<path d="M26.4893 24.298L36.3057 28.6686L37.0609 26.9722L27.2445 22.6017L26.4893 24.298Z" fill="#FF00DD"/>
<path d="M26.4196 24.4133L36.1582 28.9545L36.9429 27.2716L27.2043 22.7304L26.4196 24.4133Z" fill="#FF00D9"/>
<path d="M26.348 24.5272L36.0059 29.2377L36.8199 27.5687L27.162 22.8583L26.348 24.5272Z" fill="#FF00D5"/>
<path d="M26.2744 24.6398L35.8486 29.5181L36.6916 27.8636L27.1174 22.9853L26.2744 24.6398Z" fill="#FF00D1"/>
<path d="M26.1984 24.7511L35.686 29.7958L36.5578 28.1563L27.0702 23.1116L26.1984 24.7511Z" fill="#FF00CC"/>
<path d="M26.1209 24.8612L35.519 30.0707L36.4193 28.4466L27.0212 23.2372L26.1209 24.8612Z" fill="#FF00C8"/>
<path d="M26.0414 24.9698L35.3472 30.3425L36.2756 28.7344L26.9698 23.3617L26.0414 24.9698Z" fill="#FF00C4"/>
<path d="M25.9598 25.0771L35.1704 30.6113L36.1268 29.0197L26.9162 23.4854L25.9598 25.0771Z" fill="#FF00C0"/>
<path d="M25.8767 25.1828L34.9893 30.877L35.9732 29.3022L26.8607 23.6081L25.8767 25.1828Z" fill="#FF00BB"/>
<path d="M25.7914 25.2872L34.8032 31.1395L35.8145 29.5822L26.8027 23.7299L25.7914 25.2872Z" fill="#FF00B7"/>
<path d="M25.7045 25.3899L34.6128 31.3987L35.6511 29.8593L26.7428 23.8505L25.7045 25.3899Z" fill="#FF00B3"/>
<path d="M25.6159 25.4912L34.418 31.6545L35.483 30.1335L26.6809 23.9702L25.6159 25.4912Z" fill="#FF00AF"/>
<path d="M25.5256 25.591L34.2188 31.907L35.3102 30.4047L26.617 24.0888L25.5256 25.591Z" fill="#FF00AB"/>
<path d="M25.433 25.6892L34.0146 32.1559L35.1321 30.6729L26.5505 24.2062L25.433 25.6892Z" fill="#FF00A6"/>
<path d="M25.3392 25.7856L33.8066 32.4011L34.9498 30.9379L26.4824 24.3224L25.3392 25.7856Z" fill="#FF00A2"/>
<path d="M25.244 25.8805L33.5947 32.6428L34.7633 31.1998L26.4126 24.4375L25.244 25.8805Z" fill="#FF009E"/>
<path d="M25.1465 25.9736L33.3779 32.8806L34.5715 31.4582L26.3401 24.5512L25.1465 25.9736Z" fill="#FF009A"/>
<path d="M25.0476 26.0651L33.1572 33.1147L34.3754 31.7134L26.2658 24.6638L25.0476 26.0651Z" fill="#FF0095"/>
<path d="M24.9472 26.1549L32.9326 33.345L34.1751 31.965L26.1897 24.775L24.9472 26.1549Z" fill="#FF0091"/>
<path d="M24.8454 26.2428L32.7041 33.5712L33.9705 32.2131L26.1118 24.8848L24.8454 26.2428Z" fill="#FF008D"/>
<path d="M24.7421 26.329L32.4717 33.7933L33.7616 32.4576L26.032 24.9933L24.7421 26.329Z" fill="#FF0089"/>
<path d="M24.6372 26.4133L32.2354 34.0115L33.5484 32.6985L25.9502 25.1003L24.6372 26.4133Z" fill="#FF0084"/>
<path d="M24.5308 26.4959L31.9951 34.2255L33.3308 32.9356L25.8665 25.206L24.5308 26.4959Z" fill="#FF0080"/>
<path d="M24.4226 26.5765L31.751 34.4352L33.109 33.1688L25.7807 25.3101L24.4226 26.5765Z" fill="#FF007C"/>
<path d="M24.3138 26.6553L31.5039 34.6406L32.8838 33.3981L25.6938 25.4128L24.3138 26.6553Z" fill="#FF0078"/>
<path d="M24.2028 26.732L31.2524 34.8417L32.6538 33.6235L25.6042 25.5138L24.2028 26.732Z" fill="#FF0073"/>
<path d="M24.0911 26.8069L30.998 35.0383L32.4205 33.8448L25.5135 25.6133L24.0911 26.8069Z" fill="#FF006F"/>
<path d="M23.978 26.8799L30.7402 35.2306L32.1833 34.062L25.421 25.7113L23.978 26.8799Z" fill="#FF006B"/>
<path d="M23.8635 26.9507L30.479 35.4182L31.9422 34.275L25.3267 25.8075L23.8635 26.9507Z" fill="#FF0067"/>
<path d="M23.7476 27.0197L30.2144 35.6013L31.6973 34.4838L25.2306 25.9022L23.7476 27.0197Z" fill="#FF0062"/>
<path d="M23.6308 27.0866L29.9468 35.7798L31.449 34.6883L25.133 25.9952L23.6308 27.0866Z" fill="#FF005E"/>
<path d="M23.513 27.1514L29.6763 35.9535L31.1973 34.8884L25.034 26.0863L23.513 27.1514Z" fill="#FF005A"/>
<path d="M23.3941 27.2142L29.4028 36.1226L30.9422 35.0842L24.9335 26.1759L23.3941 27.2142Z" fill="#FF0056"/>
<path d="M23.2736 27.2749L29.126 36.2867L30.6833 35.2754L24.8309 26.2636L23.2736 27.2749Z" fill="#FF0052"/>
<path d="M23.1525 27.3335L28.8467 36.446L30.4214 35.4621L24.7272 26.3495L23.1525 27.3335Z" fill="#FF004D"/>
<path d="M23.0302 27.3899L28.5645 36.6005L30.1561 35.6441L24.6218 26.4335L23.0302 27.3899Z" fill="#FF0049"/>
<path d="M22.9071 27.4442L28.2798 36.75L29.8879 35.8216L24.5152 26.5158L22.9071 27.4442Z" fill="#FF0045"/>
<path d="M22.7827 27.4964L27.9922 36.8945L29.6162 35.9943L24.4068 26.5962L22.7827 27.4964Z" fill="#FF0041"/>
<path d="M22.658 27.5463L27.7026 37.0339L29.3422 36.1622L24.2975 26.6746L22.658 27.5463Z" fill="#FF003C"/>
<path d="M22.5319 27.5941L27.4102 37.1683L29.0646 36.3253L24.1863 26.7511L22.5319 27.5941Z" fill="#FF0038"/>
<path d="M22.4053 27.6397L27.1157 37.2976L28.7847 36.4836L24.0742 26.8257L22.4053 27.6397Z" fill="#FF0034"/>
<path d="M22.2777 27.6831L26.8188 37.4218L28.5017 36.637L23.9606 26.8984L22.2777 27.6831Z" fill="#FF0030"/>
<path d="M22.1495 27.7243L26.52 37.5406L28.2164 36.7854L23.8458 26.969L22.1495 27.7243Z" fill="#FF002B"/>
<path d="M22.0207 27.7631L26.2192 37.6543L27.9285 36.9288L23.7299 27.0376L22.0207 27.7631Z" fill="#FF0027"/>
<path d="M21.8912 27.7998L25.9165 37.7627L27.6382 37.0671L23.6129 27.1042L21.8912 27.7998Z" fill="#FF0023"/>
<path d="M21.761 27.8342L25.6118 37.8658L27.3454 37.2004L23.4946 27.1687L21.761 27.8342Z" fill="#FF001F"/>
<path d="M21.63 27.8663L25.3052 37.9636L27.0501 37.3285L23.3749 27.2312L21.63 27.8663Z" fill="#FF001A"/>
<path d="M21.4987 27.8961L24.9971 38.056L26.7528 37.4515L23.2544 27.2915L21.4987 27.8961Z" fill="#FF0016"/>
<path d="M21.367 27.9236L24.6875 38.1431L26.4535 37.5693L23.133 27.3498L21.367 27.9236Z" fill="#FF0012"/>
<path d="M21.2348 27.9488L24.3765 38.2246L26.1522 37.6817L23.0106 27.4059L21.2348 27.9488Z" fill="#FF000E"/>
<path d="M21.1021 27.9717L24.064 38.3008L25.8489 37.789L22.8871 27.4598L21.1021 27.9717Z" fill="#FF0009"/>
<path d="M20.9689 27.9922L23.75 38.3715L25.5436 37.8909L22.7625 27.5116L20.9689 27.9922Z" fill="#FF0005"/>
<path d="M20.8355 28.0105L23.4351 38.4366L25.2368 37.9874L22.6372 27.5612L20.8355 28.0105Z" fill="#FF0001"/>
<path d="M20.702 28.0264L23.1191 38.4963L24.9284 38.0786L22.5112 27.6087L20.702 28.0264Z" fill="#FF0300"/>
<path d="M20.5682 28.04L22.8022 38.5505L24.6185 38.1645L22.3844 27.6539L20.5682 28.04Z" fill="#FF0700"/>
<path d="M20.4341 28.0512L22.4844 38.5991L24.3071 38.2448L22.2568 27.6969L20.4341 28.0512Z" fill="#FF0C00"/>
<path d="M20.2996 28.0601L22.1655 38.6422L23.9942 38.3198L22.1283 27.7376L20.2996 28.0601Z" fill="#FF1000"/>
<path d="M20.1652 28.0667L21.8462 38.6798L23.6802 38.3893L21.9993 27.7763L20.1652 28.0667Z" fill="#FF1400"/>
<path d="M20.0304 28.0709L21.5259 38.7117L23.3647 38.4532L21.8692 27.8124L20.0304 28.0709Z" fill="#FF1800"/>
<path d="M19.896 28.0728L21.2056 38.738L23.0486 38.5117L21.7391 27.8465L19.896 28.0728Z" fill="#FF1D00"/>
<path d="M19.7611 28.0723L20.8843 38.7588L22.731 38.5647L21.6078 27.8782L19.7611 28.0723Z" fill="#FF2100"/>
<path d="M19.6265 28.0694L20.563 38.7739L22.4128 38.6121L21.4763 27.9076L19.6265 28.0694Z" fill="#FF2500"/>
<path d="M19.4921 28.0642L20.2417 38.7834L22.094 38.6539L21.3445 27.9347L19.4921 28.0642Z" fill="#FF2900"/>
<path d="M19.3576 28.0567L19.9199 38.7874L21.7742 38.6902L21.2119 27.9595L19.3576 28.0567Z" fill="#FF2E00"/>
<path d="M19.2231 28.0468L19.5981 38.7856L21.4539 38.7208L21.0789 27.982L19.2231 28.0468Z" fill="#FF3200"/>
<path d="M19.0893 28.0346L19.2769 38.7783L21.1334 38.7459L20.9459 28.0022L19.0893 28.0346Z" fill="#FF3600"/>
<path d="M18.9556 28.02V38.7654H20.8124V28.02H18.9556Z" fill="#FF3A00"/>
<path d="M18.8218 28.0031L18.6343 38.7468L20.4909 38.7792L20.6784 28.0355L18.8218 28.0031Z" fill="#FF3F00"/>
<path d="M18.6885 27.9838L18.3135 38.7227L20.1692 38.7875L20.5442 28.0486L18.6885 27.9838Z" fill="#FF4300"/>
<path d="M18.5555 27.9623L17.9932 38.693L19.8475 38.7902L20.4099 28.0595L18.5555 27.9623Z" fill="#FF4700"/>
<path d="M18.4229 27.9384L17.6733 38.6576L19.5257 38.7871L20.2752 28.0679L18.4229 27.9384Z" fill="#FF4B00"/>
<path d="M18.291 27.9122L17.3545 38.6167L19.2043 38.7785L20.1408 28.0741L18.291 27.9122Z" fill="#FF5000"/>
<path d="M18.1593 27.8838L17.0361 38.5703L18.8828 38.7644L20.006 28.0779L18.1593 27.8838Z" fill="#FF5400"/>
<path d="M18.0283 27.853L16.7188 38.5183L18.5618 38.7446L19.8713 28.0793L18.0283 27.853Z" fill="#FF5800"/>
<path d="M17.8978 27.82L16.4023 38.4608L18.2411 38.7192L19.7366 28.0784L17.8978 27.82Z" fill="#FF5C00"/>
<path d="M17.7679 27.7846L16.0869 38.3977L17.9209 38.6882L19.6019 28.0751L17.7679 27.7846Z" fill="#FF6000"/>
<path d="M17.6389 27.7471L15.7729 38.3292L17.6016 38.6517L19.4675 28.0695L17.6389 27.7471Z" fill="#FF6500"/>
<path d="M17.5098 27.7072L15.4595 38.2551L17.2822 38.6094L19.3325 28.0615L17.5098 27.7072Z" fill="#FF6900"/>
<path d="M17.382 27.6651L15.1479 38.1757L16.9642 38.5617L19.1983 28.0512L17.382 27.6651Z" fill="#FF6D00"/>
<path d="M17.2551 27.6209L14.8379 38.0908L16.6472 38.5085L19.0644 28.0386L17.2551 27.6209Z" fill="#FF7100"/>
<path d="M17.1288 27.5743L14.5293 38.0005L16.331 38.4497L18.9305 28.0235L17.1288 27.5743Z" fill="#FF7600"/>
<path d="M17.0033 27.5256L14.2222 37.9048L16.0158 38.3854L18.7969 28.0061L17.0033 27.5256Z" fill="#FF7A00"/>
<path d="M16.8783 27.4747L13.9165 37.8038L15.7014 38.3157L18.6633 27.9865L16.8783 27.4747Z" fill="#FF7E00"/>
<path d="M16.7549 27.4217L13.6133 37.6975L15.389 38.2404L18.5307 27.9646L16.7549 27.4217Z" fill="#FF8200"/>
<path d="M16.632 27.3665L13.3115 37.5859L15.0775 38.1597L18.398 27.9403L16.632 27.3665Z" fill="#FF8700"/>
<path d="M16.5101 27.309L13.0117 37.469L14.7674 38.0735L18.2658 27.9136L16.5101 27.309Z" fill="#FF8B00"/>
<path d="M16.3895 27.2496L12.7144 37.3469L14.4592 37.982L18.1344 27.8847L16.3895 27.2496Z" fill="#FF8F00"/>
<path d="M16.2697 27.1881L12.4189 37.2197L14.1525 37.8852L18.0033 27.8535L16.2697 27.1881Z" fill="#FF9300"/>
<path d="M16.1508 27.1243L12.1255 37.0873L13.8471 37.7829L17.8724 27.8199L16.1508 27.1243Z" fill="#FF9800"/>
<path d="M16.0335 27.0587L11.835 36.9498L13.5442 37.6754L17.7428 27.7842L16.0335 27.0587Z" fill="#FF9C00"/>
<path d="M15.9169 26.991L11.5464 36.8074L13.2427 37.5626L17.6133 27.7462L15.9169 26.991Z" fill="#FFA000"/>
<path d="M15.8019 26.9212L11.2607 36.6598L12.9436 37.4445L17.4848 27.7059L15.8019 26.9212Z" fill="#FFA400"/>
<path d="M15.688 26.8494L10.9775 36.5073L12.6465 37.3213L17.3569 27.6634L15.688 26.8494Z" fill="#FFA900"/>
<path d="M15.5751 26.7757L10.6968 36.3499L12.3513 37.1929L17.2296 27.6187L15.5751 26.7757Z" fill="#FFAD00"/>
<path d="M15.4641 26.6999L10.4194 36.1875L12.059 37.0592L17.1036 27.5716L15.4641 26.6999Z" fill="#FFB100"/>
<path d="M15.354 26.6223L10.1445 36.0204L11.7686 36.9206L16.978 27.5225L15.354 26.6223Z" fill="#FFB500"/>
<path d="M15.2452 26.5427L9.87256 35.8485L11.4807 36.7769L16.8533 27.4712L15.2452 26.5427Z" fill="#FFB900"/>
<path d="M15.1383 26.4614L9.604 35.672L11.1957 36.6284L16.7299 27.4178L15.1383 26.4614Z" fill="#FFBE00"/>
<path d="M15.0321 26.3781L9.33789 35.4907L10.9126 36.4747L16.6068 27.3621L15.0321 26.3781Z" fill="#FFC200"/>
<path d="M14.928 26.293L9.07568 35.3048L10.633 36.3161L16.4853 27.3043L14.928 26.293Z" fill="#FFC600"/>
<path d="M14.8251 26.2061L8.81641 35.1144L10.3558 36.1527L16.3646 27.2444L14.8251 26.2061Z" fill="#FFCA00"/>
<path d="M14.7238 26.1173L8.56055 34.9194L10.0816 35.9845L16.2449 27.1824L14.7238 26.1173Z" fill="#FFCF00"/>
<path d="M14.6241 26.0269L8.30811 34.7201L9.81034 35.8115L16.1263 27.1183L14.6241 26.0269Z" fill="#FFD300"/>
<path d="M14.5258 25.9347L8.05908 34.5164L9.54204 35.6338L16.0088 27.0522L14.5258 25.9347Z" fill="#FFD700"/>
<path d="M14.4295 25.8408L7.81396 34.3082L9.2772 35.4514L15.8927 26.984L14.4295 25.8408Z" fill="#FFDB00"/>
<path d="M14.3345 25.7452L7.57227 34.0959L9.01532 35.2645L15.7776 26.9138L14.3345 25.7452Z" fill="#FFE000"/>
<path d="M14.2415 25.6481L7.33447 33.8795L8.75692 35.0731L15.6639 26.8417L14.2415 25.6481Z" fill="#FFE400"/>
<path d="M14.1502 25.5493L7.10059 33.6589L8.50198 34.8772L15.5516 26.7675L14.1502 25.5493Z" fill="#FFE800"/>
<path d="M14.0602 25.4488L6.87012 33.4342L8.25004 34.6767L15.4401 26.6913L14.0602 25.4488Z" fill="#FFEC00"/>
<path d="M13.9724 25.3469L6.64404 33.2056L8.00207 34.4719L15.3304 26.6133L13.9724 25.3469Z" fill="#FFF100"/>
<path d="M13.8862 25.2434L6.42188 32.973L7.75759 34.2629L15.222 26.5333L13.8862 25.2434Z" fill="#FFF500"/>
<path d="M13.8017 25.1384L6.20361 32.7366L7.51662 34.0496L15.1147 26.4515L13.8017 25.1384Z" fill="#FFF900"/>
<path d="M13.7193 25.0321L5.98975 32.4965L7.27963 33.8322L15.0092 26.3678L13.7193 25.0321Z" fill="#FFFD00"/>
<path d="M13.6385 24.9242L5.77979 32.2526L7.04617 33.6106L14.9048 26.2823L13.6385 24.9242Z" fill="#FCFF00"/>
<path d="M13.5601 24.8151L5.57471 32.0051L6.81719 33.385L14.8026 26.195L13.5601 24.8151Z" fill="#F8FF00"/>
<path d="M13.4832 24.7044L5.37354 31.754L6.59175 33.1554L14.7014 26.1058L13.4832 24.7044Z" fill="#F4FF00"/>
<path d="M13.4082 24.5926L5.17676 31.4996L6.37033 32.9221L14.6018 26.0151L13.4082 24.5926Z" fill="#F0FF00"/>
<path d="M13.3351 24.4794L4.98438 31.2417L6.15294 32.6848L14.5037 25.9225L13.3351 24.4794Z" fill="#ECFF00"/>
<path d="M13.2643 24.365L4.79688 30.9805L5.94008 32.4437L14.4075 25.8282L13.2643 24.365Z" fill="#E7FF00"/>
<path d="M13.1954 24.2493L4.61377 30.7161L5.73126 32.199L14.3129 25.7323L13.1954 24.2493Z" fill="#E3FF00"/>
<path d="M13.1287 24.1324L4.43555 30.4484L5.52699 31.9506L14.2202 25.6346L13.1287 24.1324Z" fill="#DFFF00"/>
<path d="M13.0638 24.0144L4.26172 30.1777L5.32677 31.6988L14.1289 25.5355L13.0638 24.0144Z" fill="#DBFF00"/>
<path d="M13.0011 23.8953L4.09277 29.9041L5.13112 31.4435L14.0394 25.4347L13.0011 23.8953Z" fill="#D6FF00"/>
<path d="M12.9401 23.7751L3.92822 29.6274L4.93955 31.1847L13.9514 25.3324L12.9401 23.7751Z" fill="#D2FF00"/>
<path d="M12.8816 23.6538L3.76904 29.348L4.75303 30.9227L13.8656 25.2286L12.8816 23.6538Z" fill="#CEFF00"/>
<path d="M12.8253 23.5316L3.61475 29.0659L4.5711 30.6576L13.7817 25.1233L12.8253 23.5316Z" fill="#CAFF00"/>
<path d="M12.7711 23.4084L3.46533 28.7811L4.39377 30.3892L13.6995 25.0165L12.7711 23.4084Z" fill="#C5FF00"/>
<path d="M12.7189 23.2843L3.3208 28.4938L4.22103 30.1178L13.6191 24.9084L12.7189 23.2843Z" fill="#C1FF00"/>
<path d="M12.6688 23.1593L3.18115 28.204L4.0529 29.8435L13.5405 24.7988L12.6688 23.1593Z" fill="#BDFF00"/>
<path d="M12.6211 23.0334L3.04688 27.9117L3.88988 29.5662L13.4641 24.6879L12.6211 23.0334Z" fill="#B9FF00"/>
<path d="M12.5754 22.9067L2.91748 27.6172L3.73148 29.2861L13.3894 24.5757L12.5754 22.9067Z" fill="#B4FF00"/>
<path d="M12.5321 22.7792L2.79346 27.3204L3.5782 29.0033L13.3168 24.4621L12.5321 22.7792Z" fill="#B0FF00"/>
<path d="M12.4907 22.6511L2.67432 27.0216L3.42957 28.7179L13.246 24.3474L12.4907 22.6511Z" fill="#ACFF00"/>
<path d="M12.4522 22.5222L2.56104 26.7207L3.28657 28.43L13.1777 24.2314L12.4522 22.5222Z" fill="#A8FF00"/>
<path d="M12.4156 22.3926L2.45264 26.4178L3.14823 28.1395L13.1112 24.1142L12.4156 22.3926Z" fill="#A3FF00"/>
<path d="M12.3808 22.2624L2.34912 26.1132L3.01456 27.8467L13.0462 23.9959L12.3808 22.2624Z" fill="#9FFF00"/>
<path d="M12.3488 22.1316L2.25146 25.8068L2.88655 27.5516L12.9839 23.8765L12.3488 22.1316Z" fill="#9BFF00"/>
<path d="M12.3191 22.0003L2.15918 25.4987L2.76372 27.2544L12.9237 23.756L12.3191 22.0003Z" fill="#97FF00"/>
<path d="M12.2917 21.8686L2.07227 25.1891L2.64607 26.9551L12.8655 23.6346L12.2917 21.8686Z" fill="#93FF00"/>
<path d="M12.2666 21.7363L1.99072 24.8779L2.53362 26.6537L12.8095 23.512L12.2666 21.7363Z" fill="#8EFF00"/>
<path d="M12.2437 21.6036L1.91455 24.5654L2.42637 26.3504L12.7555 23.3885L12.2437 21.6036Z" fill="#8AFF00"/>
<path d="M12.223 21.4706L1.84375 24.2517L2.32434 26.0453L12.7036 23.2642L12.223 21.4706Z" fill="#86FF00"/>
<path d="M12.2045 21.3371L1.77832 23.9366L2.22754 25.7384L12.6537 23.1388L12.2045 21.3371Z" fill="#82FF00"/>
<path d="M12.1887 21.2034L1.71875 23.6206L2.13645 25.4299L12.6064 23.0127L12.1887 21.2034Z" fill="#7DFF00"/>
<path d="M12.1751 21.0695L1.66455 23.3036L2.05062 25.1199L12.5612 22.8858L12.1751 21.0695Z" fill="#79FF00"/>
<path d="M12.1637 20.9353L1.61572 22.9856L1.97003 24.8083L12.518 22.758L12.1637 20.9353Z" fill="#75FF00"/>
<path d="M12.1549 20.801L1.57275 22.6669L1.8952 24.4955L12.4773 22.6296L12.1549 20.801Z" fill="#71FF00"/>
<path d="M12.1482 20.6665L1.53516 22.3474L1.82563 24.1814L12.4387 22.5005L12.1482 20.6665Z" fill="#6CFF00"/>
<path d="M12.1442 20.5319L1.50342 22.0273L1.76184 23.8661L12.4026 22.3707L12.1442 20.5319Z" fill="#68FF00"/>
<path d="M12.1423 20.3973L1.47705 21.7068L1.70335 23.5498L12.3686 22.2403L12.1423 20.3973Z" fill="#64FF00"/>
<path d="M12.1431 20.2627L1.45654 21.3859L1.65064 23.2326L12.3371 22.1094L12.1431 20.2627Z" fill="#60FF00"/>
<path d="M12.1459 20.1281L1.44141 21.0646L1.60324 22.9144L12.3077 21.9779L12.1459 20.1281Z" fill="#5BFF00"/>
<path d="M12.1508 19.9935L1.43164 20.743L1.56117 22.5954L12.2804 21.8458L12.1508 19.9935Z" fill="#57FF00"/>
<path d="M12.1584 19.859L1.42773 20.4214L1.52492 22.2757L12.2556 21.7133L12.1584 19.859Z" fill="#53FF00"/>
<path d="M12.1685 19.7247L1.42969 20.0997L1.49449 21.9555L12.2333 21.5805L12.1685 19.7247Z" fill="#4FFF00"/>
<path d="M12.1807 19.5907L1.43701 19.7782L1.46942 21.6348L12.2132 21.4473L12.1807 19.5907Z" fill="#4AFF00"/>
<path d="M12.1951 19.4568H1.44971V21.3137H12.1951V19.4568Z" fill="#46FF00"/>
<path d="M12.212 19.3233L1.46826 19.1357L1.43585 20.9923L12.1796 21.1799L12.212 19.3233Z" fill="#42FF00"/>
<path d="M12.231 19.1899L1.49219 18.8149L1.42738 20.6707L12.1662 21.0457L12.231 19.1899Z" fill="#3EFF00"/>
<path d="M12.2526 19.0571L1.52197 18.4948L1.42479 20.3491L12.1554 20.9114L12.2526 19.0571Z" fill="#3AFF00"/>
<path d="M12.2768 18.9246L1.55762 18.175L1.42809 20.0274L12.1473 20.777L12.2768 18.9246Z" fill="#35FF00"/>
<path d="M12.3026 18.7925L1.59814 17.856L1.43631 19.7058L12.1408 20.6423L12.3026 18.7925Z" fill="#31FF00"/>
<path d="M12.3315 18.6609L1.64502 17.5377L1.45092 19.3844L12.1374 20.5076L12.3315 18.6609Z" fill="#2DFF00"/>
<path d="M12.3621 18.5299L1.69678 17.2203L1.47048 19.0634L12.1358 20.3729L12.3621 18.5299Z" fill="#29FF00"/>
<path d="M12.3952 18.3993L1.75439 16.9038L1.49597 18.7426L12.1368 20.2381L12.3952 18.3993Z" fill="#24FF00"/>
<path d="M12.4305 18.2693L1.81738 16.5884L1.5269 18.4224L12.14 20.1033L12.4305 18.2693Z" fill="#20FF00"/>
<path d="M12.4679 18.1401L1.88574 16.2742L1.5633 18.1028L12.1454 19.9687L12.4679 18.1401Z" fill="#1CFF00"/>
<path d="M12.5079 18.0115L1.95996 15.9612L1.60565 17.7839L12.1536 19.8342L12.5079 18.0115Z" fill="#18FF00"/>
<path d="M12.5501 17.8836L2.03955 15.6495L1.65349 17.4658L12.164 19.6999L12.5501 17.8836Z" fill="#13FF00"/>
<path d="M12.5945 17.7564L2.12451 15.3392L1.70681 17.1485L12.1768 19.5657L12.5945 17.7564Z" fill="#0FFF00"/>
<path d="M12.641 17.6301L2.21484 15.0305L1.76563 16.8322L12.1918 19.4318L12.641 17.6301Z" fill="#0BFF00"/>
<path d="M12.6893 17.5046L2.31006 14.7235L1.82947 16.5171L12.2087 19.2982L12.6893 17.5046Z" fill="#07FF00"/>
<path d="M12.7402 17.3799L2.41113 14.4181L1.89931 16.203L12.2284 19.1649L12.7402 17.3799Z" fill="#02FF00"/>
<path d="M12.7934 17.2561L2.51758 14.1145L1.97468 15.8902L12.2505 19.0319L12.7934 17.2561Z" fill="#00FF02"/>
<path d="M12.8489 17.1334L2.62939 13.8129L2.05559 15.5789L12.275 18.8994L12.8489 17.1334Z" fill="#00FF06"/>
<path d="M12.906 17.0115L2.74609 13.5132L2.14156 15.2689L12.3015 18.7672L12.906 17.0115Z" fill="#00FF0A"/>
<path d="M12.9655 16.8907L2.86816 13.2156L2.23308 14.9605L12.3304 18.6356L12.9655 16.8907Z" fill="#00FF0F"/>
<path d="M13.0273 16.771L2.99561 12.9202L2.33016 14.6537L12.3618 18.5045L13.0273 16.771Z" fill="#00FF13"/>
<path d="M13.0909 16.6524L3.12793 12.6271L2.43233 14.3487L12.3953 18.374L13.0909 16.6524Z" fill="#00FF17"/>
<path d="M13.1563 16.5349L3.26514 12.3363L2.5396 14.0456L12.4308 18.2441L13.1563 16.5349Z" fill="#00FF1B"/>
<path d="M13.2241 16.4185L3.40771 12.048L2.65246 13.7443L12.4688 18.1148L13.2241 16.4185Z" fill="#00FF1F"/>
<path d="M13.2938 16.3033L3.55518 11.7621L2.77043 13.445L12.509 17.9862L13.2938 16.3033Z" fill="#00FF24"/>
<path d="M13.3659 16.1893L3.70801 11.4789L2.89401 13.1478L12.5519 17.8583L13.3659 16.1893Z" fill="#00FF28"/>
<path d="M13.4394 16.0768L3.86523 11.1985L3.02223 12.853L12.5964 17.7313L13.4394 16.0768Z" fill="#00FF2C"/>
<path d="M13.5149 15.9654L4.02734 10.9208L3.1556 12.5603L12.6432 17.6049L13.5149 15.9654Z" fill="#00FF30"/>
<path d="M13.5929 15.8553L4.19482 10.6459L3.2946 12.2699L12.6927 17.4794L13.5929 15.8553Z" fill="#00FF35"/>
<path d="M13.6725 15.7467L4.3667 10.374L3.43827 11.9821L12.744 17.3548L13.6725 15.7467Z" fill="#00FF39"/>
<path d="M13.7536 15.6395L4.54297 10.1052L3.58661 11.6969L12.7972 17.2311L13.7536 15.6395Z" fill="#00FF3D"/>
<path d="M13.8372 15.5338L4.72461 9.8396L3.74062 11.4143L12.8532 17.1085L13.8372 15.5338Z" fill="#00FF41"/>
<path d="M13.922 15.4294L4.91016 9.57703L3.89883 11.1343L12.9107 16.9867L13.922 15.4294Z" fill="#00FF46"/>
<path d="M14.0089 15.3266L5.10059 9.31787L4.06224 10.8573L12.9706 16.866L14.0089 15.3266Z" fill="#00FF4A"/>
<path d="M14.098 15.2253L5.2959 9.06201L4.23084 10.5831L13.0329 16.7464L14.098 15.2253Z" fill="#00FF4E"/>
<path d="M14.1883 15.1255L5.49512 8.80957L4.40368 10.3118L13.0969 16.6278L14.1883 15.1255Z" fill="#00FF52"/>
<path d="M14.2804 15.0274L5.69873 8.56067L4.58124 10.0436L13.1629 16.5104L14.2804 15.0274Z" fill="#00FF57"/>
<path d="M14.3742 14.9309L5.90674 8.31543L4.76354 9.77866L13.231 16.3942L14.3742 14.9309Z" fill="#00FF5B"/>
<path d="M14.4699 14.836L6.11914 8.07373L4.95058 9.51679L13.3013 16.2791L14.4699 14.836Z" fill="#00FF5F"/>
<path d="M14.5669 14.7429L6.33545 7.83594L5.14188 9.25838L13.3733 16.1654L14.5669 14.7429Z" fill="#00FF63"/>
<path d="M14.6658 14.6514L6.55615 7.60181L5.33794 9.0032L13.4476 16.0528L14.6658 14.6514Z" fill="#00FF68"/>
<path d="M14.7661 14.5616L6.78076 7.37158L5.53827 8.7515L13.5236 15.9416L14.7661 14.5616Z" fill="#00FF6C"/>
<path d="M14.8684 14.4737L7.00977 7.14539L5.74338 8.50341L13.6021 15.8317L14.8684 14.4737Z" fill="#00FF70"/>
<path d="M14.9718 14.3876L7.24219 6.92322L5.9523 8.25894L13.6819 15.7233L14.9718 14.3876Z" fill="#00FF74"/>
<path d="M15.0766 14.3032L7.47852 6.70508L6.16551 8.01808L13.7636 15.6162L15.0766 14.3032Z" fill="#00FF78"/>
<path d="M15.1831 14.2207L7.71875 6.49109L6.38303 7.78098L13.8474 15.5106L15.1831 14.2207Z" fill="#00FF7D"/>
<path d="M15.2907 14.14L7.9624 6.28137L6.60438 7.54775L13.9327 15.4064L15.2907 14.14Z" fill="#00FF81"/>
<path d="M15.4 14.0613L8.20996 6.07593L6.83004 7.31841L14.0201 15.3038L15.4 14.0613Z" fill="#00FF85"/>
<path d="M15.5105 13.9845L8.46094 5.87488L7.05954 7.09309L14.1091 15.2027L15.5105 13.9845Z" fill="#00FF89"/>
<path d="M15.6223 13.9097L8.71533 5.67822L7.29289 6.87179L14.1999 15.1032L15.6223 13.9097Z" fill="#00FF8E"/>
<path d="M15.7359 13.8367L8.97363 5.48596L7.53058 6.65453L14.2929 15.0053L15.7359 13.8367Z" fill="#00FF92"/>
<path d="M15.8504 13.7658L9.23486 5.29834L7.77163 6.44154L14.3871 14.909L15.8504 13.7658Z" fill="#00FF96"/>
<path d="M15.9657 13.6969L9.49902 5.11523L8.01606 6.23273L14.4828 14.8144L15.9657 13.6969Z" fill="#00FF9A"/>
<path d="M16.0826 13.63L9.7666 4.93677L8.26436 6.02821L14.5803 14.7214L16.0826 13.63Z" fill="#00FF9F"/>
<path d="M16.2009 13.5652L10.0376 4.76306L8.51654 5.82812L14.6798 14.6302L16.2009 13.5652Z" fill="#00FFA3"/>
<path d="M16.3198 13.5023L10.311 4.59399L8.77162 5.63234L14.7804 14.5407L16.3198 13.5023Z" fill="#00FFA7"/>
<path d="M16.4398 13.4416L10.5874 4.42981L9.0301 5.44113L14.8825 14.453L16.4398 13.4416Z" fill="#00FFAB"/>
<path d="M16.5614 13.3831L10.8672 4.27051L9.29247 5.2545L14.9867 14.3671L16.5614 13.3831Z" fill="#00FFB0"/>
<path d="M16.6837 13.3267L11.1494 4.11609L9.55777 5.07245L15.092 14.283L16.6837 13.3267Z" fill="#00FFB4"/>
<path d="M16.8068 13.2723L11.4341 3.96655L9.82599 4.89499L15.1987 14.2008L16.8068 13.2723Z" fill="#00FFB8"/>
<path d="M16.9307 13.2201L11.7212 3.82202L10.0971 4.72225L15.3066 14.1204L16.9307 13.2201Z" fill="#00FFBC"/>
<path d="M17.0559 13.1702L12.0112 3.68262L10.3717 4.55436L15.4164 14.042L17.0559 13.1702Z" fill="#00FFC1"/>
<path d="M17.1815 13.1224L12.3032 3.54822L10.6487 4.39122L15.527 13.9654L17.1815 13.1224Z" fill="#00FFC5"/>
<path d="M17.3086 13.0768L12.5981 3.41895L10.9292 4.23294L15.6397 13.8908L17.3086 13.0768Z" fill="#00FFC9"/>
<path d="M17.4357 13.0334L12.8945 3.2948L11.2116 4.07955L15.7528 13.8182L17.4357 13.0334Z" fill="#00FFCD"/>
<path d="M17.5639 12.9923L13.1934 3.1759L11.497 3.93116L15.8676 13.7475L17.5639 12.9923Z" fill="#00FFD1"/>
<path d="M17.6932 12.9534L13.4946 3.06226L11.7854 3.78779L15.9839 13.679L17.6932 12.9534Z" fill="#00FFD6"/>
<path d="M17.8227 12.9168L13.7974 2.95386L12.0757 3.64945L16.101 13.6124L17.8227 12.9168Z" fill="#00FFDA"/>
<path d="M17.9528 12.8824L14.1021 2.85071L12.3685 3.51615L16.2193 13.5478L17.9528 12.8824Z" fill="#00FFDE"/>
<path d="M18.0833 12.8503L14.4082 2.75293L12.6633 3.38802L16.3385 13.4854L18.0833 12.8503Z" fill="#00FFE2"/>
<path d="M18.2147 12.8205L14.7163 2.66052L12.9606 3.26506L16.459 13.425L18.2147 12.8205Z" fill="#00FFE7"/>
<path d="M18.3464 12.7929L15.0259 2.57349L13.2599 3.14729L16.5804 13.3667L18.3464 12.7929Z" fill="#00FFEB"/>
<path d="M18.479 12.7678L15.3374 2.49194L13.5617 3.03484L16.7033 13.3107L18.479 12.7678Z" fill="#00FFEF"/>
<path d="M18.6117 12.7449L15.6499 2.41577L13.865 2.92759L16.8268 13.2567L18.6117 12.7449Z" fill="#00FFF3"/>
<path d="M18.7445 12.7243L15.9634 2.34509L14.1698 2.82569L16.9509 13.2049L18.7445 12.7243Z" fill="#00FFF8"/>
<path d="M18.8779 12.7061L16.2783 2.27991L14.4766 2.72912L17.0762 13.1553L18.8779 12.7061Z" fill="#00FFFC"/>
<path d="M19.0114 12.6902L16.5942 2.22021L14.785 2.63792L17.2021 13.1079L19.0114 12.6902Z" fill="#00FEFF"/>
<path d="M19.1457 12.6766L16.9116 2.16602L15.0953 2.55208L17.3294 13.0626L19.1457 12.6766Z" fill="#00FAFF"/>
<path d="M19.2798 12.6654L17.2295 2.11743L15.4067 2.47174L17.4571 13.0197L19.2798 12.6654Z" fill="#00F5FF"/>
<path d="M19.4143 12.6565L17.5483 2.07434L15.7197 2.39678L17.5856 12.9789L19.4143 12.6565Z" fill="#00F1FF"/>
<path d="M19.5486 12.6499L17.8677 2.03687L16.0337 2.32734L17.7146 12.9404L19.5486 12.6499Z" fill="#00EDFF"/>
<path d="M19.683 12.6457L18.1875 2.00488L16.3487 2.26331L17.8442 12.9041L19.683 12.6457Z" fill="#00E9FF"/>
<path d="M19.8178 12.6438L18.5083 1.97852L16.6653 2.20481L17.9748 12.8701L19.8178 12.6438Z" fill="#00E4FF"/>
<path d="M19.9523 12.6443L18.8291 1.95776L16.9824 2.15186L18.1056 12.8384L19.9523 12.6443Z" fill="#00E0FF"/>
<path d="M20.0869 12.6471L19.1504 1.94263L17.3006 2.10446L18.2371 12.8089L20.0869 12.6471Z" fill="#00DCFF"/>
<path d="M20.2217 12.6523L19.4722 1.93311L17.6198 2.06263L18.3694 12.7818L20.2217 12.6523Z" fill="#00D8FF"/>
<path d="M20.3558 12.6598L19.7935 1.9292L17.9391 2.02638L18.5015 12.757L20.3558 12.6598Z" fill="#00D4FF"/>
<path d="M20.4902 12.6697L20.1152 1.93091L18.2595 1.99571L18.6345 12.7345L20.4902 12.6697Z" fill="#00CFFF"/>
<path d="M20.6245 12.682L20.437 1.93823L18.5804 1.97064L18.768 12.7144L20.6245 12.682Z" fill="#00CBFF"/>
<path d="M20.7583 12.6965V1.95117H18.9014V12.6965H20.7583Z" fill="#00C7FF"/>
<path d="M20.8921 12.7135L21.0796 1.96973L19.223 1.93732L19.0355 12.6811L20.8921 12.7135Z" fill="#00C3FF"/>
<path d="M21.0249 12.7327L21.3999 1.9939L19.5442 1.92909L19.1692 12.6679L21.0249 12.7327Z" fill="#00BEFF"/>
<path d="M21.1578 12.7542L21.7202 2.02356L19.8659 1.92638L19.3035 12.657L21.1578 12.7542Z" fill="#00BAFF"/>
<path d="M21.2905 12.7782L22.04 2.05896L20.1877 1.92943L19.4381 12.6486L21.2905 12.7782Z" fill="#00B6FF"/>
<path d="M21.4224 12.8043L22.3589 2.09985L20.5091 1.93802L19.5726 12.6425L21.4224 12.8043Z" fill="#00B2FF"/>
<path d="M21.554 12.8327L22.6772 2.14624L20.8306 1.95214L19.7074 12.6387L21.554 12.8327Z" fill="#00ADFF"/>
<path d="M21.6851 12.8635L22.9946 2.19824L21.1516 1.97195L19.8421 12.6372L21.6851 12.8635Z" fill="#00A9FF"/>
<path d="M21.8156 12.8965L23.311 2.25574L21.4722 1.99731L19.9768 12.6381L21.8156 12.8965Z" fill="#00A5FF"/>
<path d="M21.9455 12.9319L23.6265 2.31885L21.7925 2.02837L20.1115 12.6414L21.9455 12.9319Z" fill="#00A1FF"/>
<path d="M22.075 12.9695L23.9409 2.38733L22.1123 2.06489L20.2463 12.647L22.075 12.9695Z" fill="#009CFF"/>
<path d="M22.2036 13.0094L24.2539 2.46143L22.4312 2.10712L20.3808 12.6551L22.2036 13.0094Z" fill="#0098FF"/>
<path d="M22.3313 13.0515L24.5654 2.54089L22.7491 2.15483L20.5151 12.6654L22.3313 13.0515Z" fill="#0094FF"/>
<path d="M22.4588 13.0957L24.876 2.62573L23.0667 2.20803L20.6495 12.678L22.4588 13.0957Z" fill="#0090FF"/>
<path d="M22.585 13.1423L25.1846 2.71606L23.3829 2.26685L20.7833 12.693L22.585 13.1423Z" fill="#008BFF"/>
<path d="M22.7106 13.191L25.4917 2.81177L23.6981 2.33117L20.917 12.7104L22.7106 13.191Z" fill="#0087FF"/>
<path d="M22.835 13.2418L25.7969 2.91272L24.0119 2.4009L21.0501 12.73L22.835 13.2418Z" fill="#0083FF"/>
<path d="M22.9589 13.2949L26.1006 3.01904L24.3249 2.47615L21.1832 12.752L22.9589 13.2949Z" fill="#007FFF"/>
<path d="M23.0818 13.3501L26.4023 3.13062L24.6364 2.55681L21.3159 12.7763L23.0818 13.3501Z" fill="#007BFF"/>
<path d="M23.2038 13.4075L26.7021 3.24756L24.9464 2.64302L21.4481 12.803L23.2038 13.4075Z" fill="#0076FF"/>
<path d="M23.3244 13.467L26.9995 3.36963L25.2546 2.73454L21.5795 12.8319L23.3244 13.467Z" fill="#0072FF"/>
<path d="M23.4441 13.5285L27.2949 3.49683L25.5614 2.83138L21.7106 12.8631L23.4441 13.5285Z" fill="#006EFF"/>
<path d="M23.5626 13.5922L27.5879 3.62927L25.8662 2.93368L21.8409 12.8966L23.5626 13.5922Z" fill="#006AFF"/>
<path d="M23.6804 13.6579L27.8789 3.76672L26.1697 3.04119L21.9711 12.9324L23.6804 13.6579Z" fill="#0065FF"/>
<path d="M23.7965 13.7256L28.167 3.90918L26.4707 3.15392L22.1001 12.9703L23.7965 13.7256Z" fill="#0061FF"/>
<path d="M23.9119 13.7954L28.4531 4.05676L26.7702 3.27202L22.229 13.0106L23.9119 13.7954Z" fill="#005DFF"/>
<path d="M24.0259 13.8671L28.7363 4.20923L27.0674 3.39523L22.3569 13.0531L24.0259 13.8671Z" fill="#0059FF"/>
<path d="M24.1383 13.9409L29.0166 4.3667L27.3621 3.5237L22.4838 13.0979L24.1383 13.9409Z" fill="#0054FF"/>
<path d="M24.2498 14.0167L29.2944 4.52905L27.6549 3.65731L22.6103 13.1449L24.2498 14.0167Z" fill="#0050FF"/>
<path d="M24.3599 14.0943L29.5693 4.69617L27.9453 3.79594L22.7358 13.1941L24.3599 14.0943Z" fill="#004CFF"/>
<path d="M24.4681 14.1738L29.8408 4.86804L28.2327 3.93961L22.86 13.2454L24.4681 14.1738Z" fill="#0048FF"/>
<path d="M24.5756 14.2551L30.1099 5.04456L28.5182 4.0882L22.9839 13.2988L24.5756 14.2551Z" fill="#0043FF"/>
<path d="M24.6813 14.3384L30.3755 5.22583L28.8008 4.24184L23.1066 13.3544L24.6813 14.3384Z" fill="#003FFF"/>
<path d="M24.7858 14.4236L30.6382 5.41174L29.0809 4.40042L23.2285 13.4122L24.7858 14.4236Z" fill="#003BFF"/>
<path d="M24.8887 14.5105L30.8975 5.60217L29.358 4.56383L23.3493 13.4721L24.8887 14.5105Z" fill="#0037FF"/>
<path d="M24.99 14.5992L31.1533 5.79712L29.6323 4.73206L23.469 13.5342L24.99 14.5992Z" fill="#0032FF"/>
<path d="M25.0898 14.6896L31.4058 5.99646L29.9035 4.90502L23.5876 13.5982L25.0898 14.6896Z" fill="#002EFF"/>
<path d="M25.1876 14.7818L31.6543 6.2002L30.1713 5.0827L23.7046 13.6643L25.1876 14.7818Z" fill="#002AFF"/>
<path d="M25.2844 14.8758L31.8999 6.40833L30.4367 5.26512L23.8212 13.7326L25.2844 14.8758Z" fill="#0026FF"/>
<path d="M25.3788 14.9713L32.1411 6.62061L30.6981 5.45204L23.9358 13.8028L25.3788 14.9713Z" fill="#0022FF"/>
<path d="M20.4012 38.149H19.3464C19.2974 38.1312 19.2483 38.1267 19.199 38.1267C18.6358 38.1 18.0767 38.0547 17.5225 37.9793C16.4859 37.8452 15.4666 37.6172 14.4744 37.3003C12.7715 36.7553 11.1849 35.9733 9.71437 34.9543C8.3508 34.0067 7.1445 32.8898 6.09396 31.6031C4.85546 30.0927 3.8904 28.4258 3.20626 26.5942C2.59372 24.9676 2.22732 23.2834 2.11533 21.545C2.11533 21.4511 2.09754 21.3573 2.06641 21.2634V19.4269C2.09754 19.3459 2.11088 19.2614 2.11533 19.1767C2.13757 18.761 2.18205 18.3453 2.23631 17.9345C2.50468 15.9507 3.09427 14.069 4.00177 12.286C4.62747 11.0571 5.3874 9.91365 6.28094 8.85848C7.16603 7.8131 8.15831 6.87882 9.25751 6.06134C11.0499 4.72952 13.0211 3.76891 15.1752 3.17942C16.221 2.89379 17.2896 2.70609 18.3708 2.61643C18.5628 2.59864 18.7643 2.61643 18.9563 2.5675H20.762C20.9004 2.60753 21.0436 2.5853 21.1819 2.59864C21.8975 2.66091 22.608 2.75084 23.3138 2.88916C25.5353 3.32708 27.5955 4.15844 29.4999 5.38662C30.9795 6.33834 32.2846 7.48664 33.4242 8.82264C34.3407 9.89515 35.1179 11.0615 35.7528 12.3211C36.5037 13.8094 37.0398 15.3685 37.3444 17.0082C37.505 17.875 37.626 18.7508 37.6301 19.6357C37.6301 19.6944 37.6434 19.7566 37.6479 19.8143V20.8689C37.6301 20.9356 37.6301 21.0072 37.6256 21.0788C37.6256 21.2484 37.6256 21.4187 37.6123 21.5883C37.5313 22.6699 37.362 23.7376 37.0936 24.792C36.5797 26.7717 35.7523 28.6082 34.6037 30.3015C33.7498 31.5617 32.7535 32.6968 31.609 33.7019C30.4694 34.7029 29.222 35.5475 27.8676 36.2308C26.3073 37.0169 24.6671 37.5626 22.9462 37.8615C22.2849 37.9775 21.6189 38.0533 20.9486 38.0936C20.772 38.1141 20.5847 38.1098 20.4012 38.149Z" fill="#383838"/>
<path style="mix-blend-mode:lighten" d="M15.2297 12.9765C15.2172 13.3034 15.2753 13.6607 15.3716 14.0182C15.5551 14.6982 15.8592 15.3214 16.2178 15.91C17.0347 17.2486 18.0644 18.3946 19.1815 19.4586C19.273 19.546 19.3819 19.6199 19.4986 19.6762C19.6154 19.7369 19.732 19.7369 19.8527 19.6848C19.9693 19.6328 20.0737 19.5587 20.1613 19.4624C20.549 19.0616 20.9322 18.6602 21.2992 18.2459C21.8159 17.6573 22.3081 17.0517 22.7541 16.4021C23.1587 15.8136 23.5211 15.1944 23.7877 14.5231C24.0542 13.8558 24.1838 13.1676 24.0962 12.444C23.9503 11.2499 23.4628 10.2381 22.5914 9.44479C21.5611 8.50828 20.361 8.13331 19.0104 8.34218C16.8137 8.68262 15.2212 10.7055 15.2297 12.9765Z" fill="url(#paint0_radial_12_2000)"/>
<path d="M26.5979 29.2524C26.3214 29.2608 26.011 29.2266 25.7006 29.1607C24.7824 28.9597 24.0025 28.5422 23.4031 27.802C23.0386 27.3506 22.7322 26.8615 22.468 26.347C22.1575 25.7408 21.898 25.1092 21.6718 24.4699C21.3953 23.6966 21.1605 22.9064 20.9798 22.1077C20.8794 21.6602 20.9922 21.3799 21.4871 21.2258C22.1158 21.0293 22.7491 20.8537 23.3947 20.7113C24.4635 20.4771 25.5409 20.3268 26.6397 20.3639C26.9502 20.3763 27.26 20.4096 27.5664 20.464C28.4553 20.6189 29.2097 21.0287 29.826 21.6765C30.8785 22.7802 31.2972 24.0972 31.0376 25.5984C30.6646 27.7435 28.761 29.2693 26.5979 29.2524Z" fill="url(#paint1_radial_12_2000)"/>
<path d="M12.7533 29.2524C13.0298 29.2608 13.3402 29.2266 13.6506 29.1607C14.5688 28.9597 15.3487 28.5422 15.9481 27.802C16.3126 27.3506 16.619 26.8615 16.8832 26.347C17.1937 25.7408 17.4532 25.1092 17.6794 24.4699C17.9559 23.6966 18.1907 22.9064 18.3714 22.1077C18.4718 21.6602 18.359 21.3799 17.8641 21.2258C17.2354 21.0293 16.6021 20.8537 15.9565 20.7113C14.8877 20.4771 13.8103 20.3268 12.7115 20.3639C12.401 20.3763 12.0912 20.4096 11.7848 20.464C10.8959 20.6189 10.1415 21.0287 9.52525 21.6765C8.47268 22.7802 8.05403 24.0972 8.31358 25.5984C8.6866 27.7435 10.5902 29.2693 12.7533 29.2524Z" fill="url(#paint2_radial_12_2000)"/>
</g>
<defs>
<radialGradient id="paint0_radial_12_2000" cx="0" cy="0" r="1" gradientUnits="userSpaceOnUse" gradientTransform="translate(19.7618 19.13) rotate(4.82254) scale(4.72446 8.73318)">
<stop stop-color="white"/>
<stop offset="1" stop-color="#009BD8"/>
</radialGradient>
<radialGradient id="paint1_radial_12_2000" cx="0" cy="0" r="1" gradientUnits="userSpaceOnUse" gradientTransform="translate(20.9957 21.8343) rotate(21.7759) scale(10.4184 5.56735)">
<stop stop-color="white"/>
<stop offset="1" stop-color="#FF3044"/>
</radialGradient>
<radialGradient id="paint2_radial_12_2000" cx="0" cy="0" r="1" gradientUnits="userSpaceOnUse" gradientTransform="translate(18.3002 21.4568) rotate(146.321) scale(10.5285 4.78577)">
<stop stop-color="white"/>
<stop offset="1" stop-color="#FCFF7C"/>
</radialGradient>
<clipPath id="clip0_12_2000">
<rect width="40" height="40" fill="white"/>
</clipPath>
</defs>
</svg>
