<svg width="40" height="40" viewBox="0 0 40 40" fill="none" xmlns="http://www.w3.org/2000/svg">
<path d="M39.2458 18.2184L21.7804 0.754402C20.7755 -0.251467 19.1443 -0.251467 18.1381 0.754402L14.5116 4.3814L19.1117 8.98169C20.1811 8.62061 21.4069 8.86271 22.2589 9.71496C23.1154 10.5725 23.3557 11.8088 22.9856 12.8818L27.4193 17.3157C28.4919 16.946 29.7295 17.1849 30.586 18.0429C31.7835 19.2401 31.7835 21.1799 30.586 22.3774C29.3884 23.5753 27.4486 23.5753 26.2503 22.3774C25.3499 21.4763 25.1272 20.1533 25.5833 19.0439L21.4484 14.9088L21.448 25.7902C21.74 25.9347 22.0155 26.1276 22.2587 26.3698C23.4558 27.5668 23.4558 29.5063 22.2587 30.7054C21.0613 31.9023 19.1206 31.9023 17.9244 30.7054C16.7271 29.5064 16.7271 27.5669 17.9244 26.3698C18.2203 26.0744 18.5627 25.8509 18.928 25.701V14.7185C18.5625 14.5693 18.2205 14.3474 17.9242 14.0497C17.0173 13.1434 16.7989 11.8124 17.264 10.6987L12.7292 6.16299L0.754609 18.1377C-0.251536 19.1444 -0.251536 20.7756 0.754609 21.7816L18.219 39.2456C19.2245 40.2515 20.8551 40.2515 21.862 39.2456L39.2456 21.8641C40.2515 20.8577 40.2515 19.226 39.2456 18.2199" fill="#F05133"/>
</svg>
