<svg width="40" height="40" viewBox="0 0 40 40" fill="none" xmlns="http://www.w3.org/2000/svg">
<path d="M19.7619 0.000327177C18.1125 0.0079073 16.5374 0.147039 15.1515 0.389602C11.0687 1.10302 10.3274 2.59627 10.3274 5.35007V8.98701H19.9756V10.1993H10.3274H6.70651C3.90248 10.1993 1.44719 11.8663 0.679209 15.0374C-0.20665 18.6723 -0.245943 20.9405 0.679209 24.7359C1.36504 27.5611 3.00289 29.5741 5.80692 29.5741H9.12418V25.2142C9.12418 22.0644 11.8795 19.2861 15.1515 19.2861H24.7884C27.471 19.2861 29.6125 17.1015 29.6125 14.4368V5.35007C29.6125 2.76392 27.4067 0.821219 24.7884 0.389602C23.131 0.116718 21.4113 -0.00725306 19.7619 0.000327177ZM14.5443 2.92545C15.5408 2.92545 16.3547 3.74355 16.3547 4.74948C16.3547 5.75183 15.5408 6.56238 14.5443 6.56238C13.5441 6.56238 12.7338 5.75183 12.7338 4.74948C12.7338 3.74355 13.5441 2.92545 14.5443 2.92545Z" fill="#5A9FD4"/>
<path d="M30.8155 10.1993V14.4369C30.8155 17.7222 27.9994 20.4873 24.7882 20.4873H15.1512C12.5115 20.4873 10.3271 22.7219 10.3271 25.3366V34.4233C10.3271 37.0095 12.6008 38.5306 15.1512 39.2726C18.2053 40.1608 21.134 40.3213 24.7882 39.2726C27.2171 38.577 29.6123 37.1771 29.6123 34.4233V30.7864H19.9753V29.5741H29.6123H34.4364C37.2404 29.5741 38.2853 27.6396 39.2605 24.736C40.2678 21.7467 40.2249 18.8721 39.2605 15.0375C38.5675 12.2765 37.244 10.1993 34.4364 10.1993H30.8155ZM25.3954 33.211C26.3956 33.211 27.2058 34.0216 27.2058 35.0239C27.2058 36.0299 26.3956 36.848 25.3954 36.848C24.3988 36.848 23.585 36.0299 23.585 35.0239C23.585 34.0216 24.3988 33.211 25.3954 33.211Z" fill="#FFD43B"/>
</svg>
