<svg width="40" height="15" viewBox="0 0 40 15" fill="none" xmlns="http://www.w3.org/2000/svg">
<g clip-path="url(#clip0_12_1935)">
<path d="M36.4297 14.6356C35.9456 14.6964 35.643 14.6964 35.522 14.7571C35.2799 14.8785 34.7353 15 34.0697 15C33.2225 15 32.4358 14.6964 31.7701 14.2105H31.286C31.1045 14.2105 30.9834 14.2105 30.8019 14.1498C30.1362 14.3927 29.5311 14.3927 29.168 14.3927H29.047C28.1998 14.4534 27.3526 14.2713 26.6264 13.9069C26.2633 14.0283 25.9607 14.0891 25.5977 14.0891L23.3586 14.1498C22.3299 14.1498 21.4222 13.7854 20.696 13.1174C20.3934 13.1174 20.0908 13.0567 19.8488 12.996C19.4857 13.4211 19.0016 13.7854 18.3964 14.0891C17.2467 14.6356 15.9759 14.6964 14.7656 14.2105C14.6446 14.1498 14.463 14.0891 14.342 14.0283L12.9501 14.2105H12.5265C12.345 14.2713 12.224 14.3927 12.1029 14.4534C11.1952 14.8785 10.348 14.8785 9.98494 14.8785H9.68237C8.65363 14.8785 7.62488 14.5749 6.8382 14.0283C6.59614 14.0891 6.29357 14.1498 6.05151 14.1498C5.50688 14.5142 4.84122 14.7571 4.11505 14.8178H3.87299C1.87602 14.8178 0.24213 13.2996 0.0605867 11.2955V11.2348C0.0605867 10.9312 7.23116e-05 10.2632 0.0605867 9.53441C0.0605867 9.17004 0.121101 8.62348 0.121101 8.50202C0.121101 8.01619 0.24213 7.53036 0.423673 7.04453C0.302644 6.5587 0.363159 6.07287 0.423673 5.58704V5.40486C0.484187 4.97976 0.605216 4.12955 1.02882 3.27935C1.8155 1.82186 3.26785 0.910931 4.90174 0.910931C5.44637 0.607287 5.99099 0.48583 6.59614 0.48583H6.77768C7.98797 0.546559 9.07723 1.15385 9.74289 2.12551C10.2875 1.63968 10.9532 1.33603 11.6793 1.21457C13.1317 1.03239 14.342 0.97166 15.3707 1.15385C15.9154 0.668016 16.6415 0.303644 17.3677 0.242915L18.9411 0H19.4252C20.3329 0 21.2406 0.364372 21.9668 0.97166H22.0878L24.3874 0.910931C25.3556 0.910931 26.2028 0.850202 26.3843 0.850202H26.6869C27.5341 0.850202 28.4418 1.15385 29.1075 1.7004C29.7731 1.21457 30.5598 0.97166 31.407 0.97166H32.1937C32.7989 0.607287 33.4645 0.364372 34.1907 0.364372L36.1272 0.303644H36.1877C38.2452 0.303644 39.9396 2.00405 40.0001 4.06883C40.0001 5.04049 39.6975 5.89069 39.0924 6.61943V8.38057C39.637 8.98785 39.9396 9.77733 40.0001 10.6275C40.1211 12.6923 38.5477 14.4534 36.4297 14.6356Z" fill="white"/>
<path d="M36.3089 12.4494C35.5222 12.5101 35.0381 12.5708 34.9171 12.6316L34.8565 12.6923C34.675 12.753 34.4329 12.8745 34.1304 12.8745C33.7673 12.8745 33.3437 12.753 33.0411 12.4494C32.9201 12.3279 32.7991 12.2065 32.7385 12.085H31.3467C31.1047 12.085 30.8626 12.0243 30.6811 11.9028C30.6205 11.9635 30.4995 11.9635 30.439 12.0243C29.9549 12.2672 29.5313 12.2672 29.2287 12.2672H28.9261C28.0184 12.2672 27.2922 11.9635 26.8081 11.417C26.5056 11.7206 26.082 11.9028 25.6584 11.9028L23.4193 11.9635C22.6326 11.9635 21.9065 11.3563 21.7854 10.6275C21.4829 10.8097 21.1803 10.9312 20.8172 10.9312C20.4541 10.9312 20.091 10.8097 19.7885 10.6275C19.728 10.5668 19.6674 10.5061 19.6069 10.5061C19.4254 10.6275 19.1833 10.6275 18.9413 10.6275H18.7597C18.5177 11.3563 18.0941 11.8421 17.4284 12.1457C17.1258 12.2672 16.7627 12.3886 16.4602 12.3886C16.1576 12.3886 15.7945 12.3279 15.4919 12.2065C15.1894 12.085 14.9473 11.9028 14.7658 11.7206C14.6447 11.7814 14.5237 11.7814 14.4027 11.8421L12.6478 12.085H12.4057C12.2242 12.085 12.1031 12.085 11.9216 12.0243C11.6795 12.2672 11.377 12.3886 11.1349 12.5101C10.6508 12.753 10.2272 12.753 9.92462 12.753H9.62205C8.53279 12.753 7.68559 12.2672 7.20148 11.5992C6.71736 11.9028 6.11222 12.085 5.56759 12.085H5.2045C5.2045 12.1457 5.14399 12.1457 5.14399 12.2065C4.84142 12.5101 4.41782 12.753 3.99421 12.753H3.87319C3.02598 12.753 2.29981 12.085 2.2393 11.1741V11.1133C2.2393 10.8097 2.17878 10.2631 2.2393 9.65585C2.2393 9.23075 2.29981 8.56274 2.29981 8.56274C2.29981 8.13763 2.48136 7.77326 2.72341 7.46962C2.48136 6.98379 2.42084 6.43723 2.54187 5.82994V5.70848C2.60238 5.34411 2.6629 4.79755 2.90496 4.25099C3.32856 3.46152 4.11524 3.03642 5.02296 3.03642H5.44656C5.74913 2.7935 6.11222 2.61132 6.53582 2.61132C7.44353 2.61132 8.16971 3.40079 8.16971 4.31172V4.97974C8.47228 4.85828 8.83536 4.79755 9.19845 4.79755C9.37999 4.79755 9.50102 4.79755 9.68257 4.85828C9.92462 4.55464 10.2877 4.37245 10.6508 4.31172C10.7113 4.19027 10.7718 4.12954 10.8323 4.00808C11.0744 3.64371 11.498 3.40079 11.9216 3.34006C12.2847 3.27933 13.0109 3.21861 13.8581 3.21861C14.8263 3.21861 15.613 3.34006 16.2181 3.64371C16.3997 2.97569 16.8838 2.48986 17.61 2.3684L19.1833 2.12549H19.4254C19.9095 2.12549 20.3331 2.30767 20.6357 2.67205C20.7567 2.7935 20.9382 3.03642 20.9988 3.21861L21.0593 3.40079C21.3618 3.21861 21.6644 3.09715 22.0275 3.09715L24.3876 3.03642C25.5373 3.03642 26.5661 2.97569 26.5661 2.91496H26.6871C27.1107 2.91496 27.5948 3.09715 27.8974 3.40079C28.1395 3.64371 28.321 3.94735 28.3815 4.31172H28.5025C28.6841 4.31172 28.8051 4.31172 28.9867 4.37245C29.2287 4.06881 29.5918 3.88662 29.9549 3.82589C30.2575 3.40079 30.8021 3.03642 31.4072 3.03642H32.9806C33.2832 2.67205 33.7068 2.42913 34.2514 2.42913H36.1879C37.0956 2.42913 37.8218 3.15788 37.8823 4.06881C37.8823 4.73682 37.5192 5.34411 36.9745 5.58703V9.29148C37.4587 9.53439 37.8218 10.081 37.8823 10.6882C37.9428 11.5992 37.2166 12.3886 36.3089 12.4494Z" fill="#F9A83A"/>
<path d="M19.5462 5.16193L19.1226 7.34816L20.3328 7.16597L19.5462 5.16193Z" fill="#F9A83A"/>
<path d="M5.08315 7.28747C4.65955 7.22674 4.41749 6.92309 4.53852 6.07289V5.95143C4.65955 5.22269 4.72006 5.0405 5.08315 5.0405C5.20418 5.0405 5.3252 5.10123 5.44623 5.22269C5.56726 5.34415 5.80932 5.52633 5.93035 5.8907C6.05138 6.13362 6.05138 6.31581 6.11189 6.49799V6.74091C6.11189 6.86236 6.23292 6.98382 6.41446 7.04455C6.59601 7.10528 6.77755 6.92309 6.83806 6.74091C6.83806 6.74091 6.95909 4.43321 6.95909 4.37249C6.95909 4.1903 6.77755 4.00811 6.59601 4.00811C6.41446 4.00811 6.23292 4.1903 6.23292 4.37249V5.0405C5.93035 4.73686 5.56726 4.43321 5.14366 4.43321C3.99389 4.25103 3.87286 5.28342 3.81235 5.8907V6.01216C3.69132 7.16601 4.0544 7.89475 4.96212 8.07694C5.93035 8.25913 6.59601 8.44131 6.59601 9.0486C6.59601 9.29151 6.47498 9.53443 6.23292 9.71662C5.99086 9.95953 5.62778 10.0203 5.26469 9.95953C5.14366 9.95953 5.08315 9.8988 4.96212 9.8988C4.84109 9.83807 4.478 9.65589 4.35697 9.41297C4.29646 9.17006 4.23595 8.86641 4.23595 8.68423V8.56277C4.23595 8.38058 4.0544 8.1984 3.87286 8.1984C3.69132 8.1984 3.50977 8.38058 3.50977 8.56277C3.50977 8.56277 3.50977 9.29151 3.44926 9.71662C3.38874 10.4454 3.44926 10.9919 3.44926 11.0526C3.44926 11.2348 3.6308 11.417 3.81235 11.417C3.99389 11.417 4.17543 11.2348 4.17543 11.0526V10.3846C4.41749 10.5668 4.78058 10.749 5.20418 10.8097C5.74881 10.9312 6.29343 10.749 6.71704 10.3846C7.08012 10.081 7.32218 9.59516 7.32218 9.17006C7.32218 7.65184 5.80932 7.40892 5.08315 7.28747ZM15.2496 6.25508C15.189 6.31581 15.1285 6.37653 15.0075 6.43726C14.947 6.49799 14.7654 6.55872 14.7049 6.55872L14.5234 6.61945C14.2813 6.74091 13.9182 6.80164 13.5552 6.86236V5.16196C14.5234 5.16196 15.3706 5.22269 15.5521 5.52633V5.64779C15.5521 5.76925 15.4311 6.01216 15.2496 6.25508ZM17.3676 9.53443C17.186 9.4737 16.944 9.59516 16.8834 9.77734C16.7624 10.2024 16.6414 10.2024 16.5809 10.2632C16.5204 10.3239 16.3993 10.2632 16.2178 10.2024C16.2178 10.2024 16.1573 10.081 16.0968 10.0203C16.0362 9.8988 15.9757 9.41297 15.9757 9.10933C15.9757 8.01621 15.7337 7.40892 15.4311 7.10528C15.6126 6.98382 15.7942 6.80164 15.7942 6.80164C16.2178 6.19435 16.3388 5.70852 16.0968 5.28342C15.4916 4.25103 12.8895 4.55467 12.0423 4.67613C11.8608 4.67613 11.6792 4.91904 11.7397 5.10123C11.7397 5.28342 11.9818 5.4656 12.1633 5.40487C12.3449 5.40487 12.5264 5.34415 12.708 5.34415V7.04455H12.5264C12.3449 7.04455 12.1633 7.22674 12.1633 7.40892C12.1633 7.59111 12.3449 7.7733 12.5264 7.7733H12.708V9.8988L12.2238 9.95953C12.0423 9.95953 11.8608 10.2024 11.9213 10.3846C11.9213 10.5668 12.1633 10.749 12.3449 10.6883L14.0998 10.4454C14.2813 10.4454 14.4629 10.2024 14.4024 10.0203C14.4024 9.83807 14.1603 9.65589 13.9788 9.71662L13.4341 9.77734V7.65184C13.7972 7.59111 14.0998 7.53038 14.4024 7.40892H14.5234C14.6444 7.40892 14.7654 7.46965 14.826 7.59111C14.947 7.77329 15.068 8.13767 15.1285 9.0486C15.1285 9.23078 15.189 9.95953 15.3101 10.2632C15.3706 10.3846 15.5521 10.6883 15.8547 10.8097C16.0968 10.8705 16.3993 10.9919 16.7624 10.8097C17.065 10.6275 17.307 10.4454 17.4281 9.8988C17.6701 9.77734 17.5491 9.59516 17.3676 9.53443ZM30.5597 8.38058C30.3782 8.38058 30.1966 8.56277 30.1966 8.74496V9.23078C30.1966 9.41297 30.1361 9.65589 30.0756 9.71662C30.0151 9.83807 29.9546 9.8988 29.8335 10.0203C29.773 10.081 29.652 10.1417 29.531 10.2024C29.4099 10.2632 29.3494 10.2632 29.1074 10.2632H28.8653C27.8971 10.3239 27.776 9.53443 27.776 9.35224V7.7733C27.8366 7.16601 27.9576 6.74091 28.1996 6.55872C28.3812 6.43726 28.6232 6.49799 29.0468 6.61945C29.531 6.80164 29.8335 7.34819 29.894 7.34819C29.9546 7.46965 30.1361 7.53038 30.3176 7.53038C30.4992 7.46965 30.5597 7.34819 30.5597 7.16601V5.52633C30.5597 5.34415 30.3782 5.16196 30.1966 5.16196C30.0151 5.16196 29.8335 5.34415 29.8335 5.52633V6.19435C29.7125 6.07289 29.531 6.01216 29.3494 5.8907C29.1679 5.76925 28.4417 5.4656 27.8971 5.82998C27.4735 6.13362 27.1709 6.68018 27.1104 7.59111V9.29151C27.1709 9.83807 27.5945 10.9312 28.9258 10.9312H29.1074C29.3494 10.9312 29.5915 10.9312 29.8335 10.8097C30.0151 10.749 30.1966 10.6275 30.3782 10.4454C30.4992 10.3239 30.5597 10.2024 30.6807 10.0203C30.8018 9.77734 30.8623 9.35224 30.9228 9.23078V8.6235C30.9228 8.50204 30.7412 8.38058 30.5597 8.38058ZM36.5506 10.8097C36.5506 10.6275 36.3691 10.4454 36.1875 10.4454C36.0665 10.4454 35.885 10.4454 35.7034 10.5061C35.7034 9.8988 35.7034 8.6235 35.6429 4.49394H36.1875C36.3691 4.49394 36.5506 4.31176 36.5506 4.12957C36.5506 3.94738 36.3691 3.7652 36.1875 3.7652L34.2511 3.82593C34.0695 3.82593 33.888 4.00811 33.888 4.1903C33.888 4.37249 34.0695 4.55467 34.2511 4.55467H34.8562V7.10528L32.6777 7.46965V5.16196H33.2828C33.4644 5.16196 33.6459 4.97977 33.6459 4.79759C33.6459 4.6154 33.4644 4.43321 33.2828 4.43321H31.3464C31.1648 4.43321 30.9833 4.6154 30.9833 4.79759C30.9833 4.97977 31.1648 5.16196 31.3464 5.16196H31.9515V10.081H31.3464C31.1648 10.081 30.9833 10.2632 30.9833 10.4454C30.9833 10.6275 31.1648 10.8097 31.3464 10.8097L33.3434 10.8705C33.5249 10.8705 33.7064 10.6883 33.7064 10.5061C33.7064 10.3239 33.5249 10.1417 33.3434 10.1417H32.7382V8.25913L34.9167 7.89475V10.6883C34.4326 10.8097 34.0695 10.8097 33.888 11.0526C33.767 11.1741 33.767 11.417 33.9485 11.5385C34.0695 11.6599 34.2511 11.5992 34.4931 11.5385C34.6747 11.417 35.4008 11.3563 36.2481 11.2956C36.4296 11.1741 36.5506 10.9919 36.5506 10.8097Z" fill="white"/>
<path d="M19.1227 7.34819L19.5463 5.16195L20.333 7.166L19.1227 7.34819ZM22.33 7.95548C22.209 8.0162 22.0274 8.07693 21.6643 8.25912L21.1802 7.10527L19.7884 3.76519C19.7884 3.70446 19.7279 3.58301 19.6674 3.58301C19.6068 3.52228 19.4858 3.46155 19.3648 3.46155L17.7914 3.64373C17.6099 3.64373 17.4283 3.82592 17.4888 4.06884C17.4888 4.25102 17.6704 4.43321 17.9124 4.37248C17.9124 4.37248 18.5176 4.31175 19.0017 4.25102C18.8807 4.91904 18.336 7.65183 18.1545 8.50203L17.0652 8.44131C16.8837 8.44131 16.7021 8.56276 16.7021 8.80568C16.7021 8.98786 16.8232 9.17005 17.0652 9.17005L18.8807 9.23078C19.0622 9.23078 19.2438 9.10932 19.2438 8.86641C19.2438 8.68422 19.1227 8.50203 18.8807 8.50203L18.9412 7.95548L20.6356 7.65183L20.9987 8.56276C20.6961 8.74495 20.5751 8.80568 20.3935 8.98786C20.2725 9.17005 20.333 9.35224 20.454 9.47369C20.6356 9.59515 20.8776 9.53442 20.9987 9.41297C21.1802 9.17005 21.8459 8.86641 22.5115 8.62349C22.6931 8.56276 22.8141 8.31985 22.7536 8.13766C22.6931 8.0162 22.5115 7.89475 22.33 7.95548Z" fill="white"/>
<path d="M26.6871 4.25104C26.6871 4.25104 25.5978 4.31177 24.3875 4.37249L22.0275 4.43322C21.9065 4.43322 21.8459 4.49395 21.7249 4.55468C21.6644 4.61541 21.6039 4.73687 21.6644 4.85833L21.967 6.68019C21.967 6.86237 22.209 7.04456 22.3906 6.98383C22.5721 6.98383 22.6931 6.80164 22.6931 6.61946C22.6931 6.61946 22.5721 5.6478 22.4511 5.16197H24.0245V9.95954H23.2378C23.0562 9.95954 22.8747 10.1417 22.8747 10.3239C22.8747 10.5061 23.0562 10.6883 23.2378 10.6883L25.4768 10.6276C25.6583 10.6276 25.8399 10.4454 25.8399 10.2632C25.8399 10.081 25.6583 9.89881 25.4768 9.89881H24.7506V5.10124C25.3558 5.10124 25.9004 5.04051 26.2635 5.04051V5.76926C26.2635 6.13363 26.324 6.25509 26.324 6.31581C26.445 6.498 26.6266 6.55873 26.8081 6.43727C26.9291 6.37654 26.9897 6.19436 26.9897 6.0729C26.9897 6.0729 26.9897 5.2227 27.0502 4.73687C27.0502 4.61541 27.0502 4.55468 26.9291 4.43322C26.9291 4.31177 26.8081 4.25104 26.6871 4.25104ZM11.2559 8.74496C11.0744 8.74496 10.8928 8.92715 10.8928 9.10934V9.6559C10.8928 9.77735 10.8323 10.0203 10.7718 10.1417C10.7113 10.2632 10.6508 10.3239 10.5298 10.4454C10.4692 10.5061 10.3482 10.5668 10.2272 10.6276C10.1062 10.6883 10.0456 10.6883 9.80358 10.6883H9.56152C8.59329 10.6883 8.47227 9.95954 8.47227 9.77735V8.19841C8.53278 7.59112 8.65381 7.16602 8.89587 6.98383C9.07741 6.86237 9.31947 6.9231 9.74307 7.04456C10.2272 7.22675 10.5903 7.7733 10.5903 7.7733C10.6508 7.89476 10.8323 7.95549 11.0139 7.95549C11.1954 7.89476 11.2559 7.7733 11.2559 7.59112V5.95144C11.2559 5.76926 11.0744 5.58707 10.8928 5.58707C10.7113 5.58707 10.5298 5.76926 10.5298 5.95144V6.61946C10.4087 6.498 10.2272 6.37654 10.0456 6.31581C9.80358 6.19436 9.13792 5.95144 8.53278 6.25509C8.10918 6.55873 7.80661 7.10529 7.74609 8.01622V9.71662C7.80661 10.2632 8.23021 11.3563 9.62204 11.3563H9.80358C10.0456 11.3563 10.2877 11.3563 10.5298 11.2348C10.7113 11.1741 10.8928 11.0527 11.0744 10.8705C11.1954 10.749 11.2559 10.6276 11.377 10.4454C11.498 10.2025 11.5585 9.77735 11.619 9.6559V9.04861C11.619 8.92715 11.4375 8.74496 11.2559 8.74496Z" fill="white"/>
</g>
<defs>
<clipPath id="clip0_12_1935">
<rect width="40" height="15" fill="white"/>
</clipPath>
</defs>
</svg>
