<?xml version="1.0" encoding="UTF-8" standalone="no"?>
<!-- Created with Inkscape (http://www.inkscape.org/) -->

<svg
   width="183.72412mm"
   height="72.502991mm"
   viewBox="0 0 183.72412 72.502991"
   version="1.1"
   id="svg1"
   xml:space="preserve"
   xmlns:inkscape="http://www.inkscape.org/namespaces/inkscape"
   xmlns:sodipodi="http://sodipodi.sourceforge.net/DTD/sodipodi-0.dtd"
   xmlns="http://www.w3.org/2000/svg"
   xmlns:svg="http://www.w3.org/2000/svg"><sodipodi:namedview
     id="namedview1"
     pagecolor="#000000"
     bordercolor="#000000"
     borderopacity="0.25"
     inkscape:showpageshadow="2"
     inkscape:pageopacity="0.0"
     inkscape:pagecheckerboard="0"
     inkscape:deskcolor="#d1d1d1"
     inkscape:document-units="mm"><inkscape:page
       x="0"
       y="0"
       width="183.72412"
       height="72.502991"
       id="page2"
       margin="0"
       bleed="0" /></sodipodi:namedview><defs
     id="defs1" /><g
     inkscape:label="圖層 1"
     inkscape:groupmode="layer"
     id="layer1"
     transform="translate(-101.22349,-94.669306)"><g
       id="g5"><path
         id="rect3"
         style="opacity:1;fill:#666666;fill-opacity:1;stroke-width:1.05231"
         d="m 119.20638,149.37114 26.88249,-0.0801 -1.69565,10.33398 -23.35839,-0.69102 z"
         sodipodi:nodetypes="ccccc" /><path
         style="opacity:1;fill:#666666;fill-opacity:1;stroke:none;stroke-width:1.20281"
         d="m 281.72315,102.47954 c 0,0 -8.7798,-17.277599 -105.7284,-0.43754 -39.32467,6.83075 -66.08783,14.12732 -72.80495,22.78622 -0.76974,0.99228 -3.411254,4.7456 2.82947,7.57423 4.45733,2.02029 16.99165,6.12292 89.66166,-2.57686 28.76101,-3.44316 89.26669,-3.96745 89.26668,-22.53315 0,-1.75013 -3.22446,-4.8129 -3.22446,-4.8129 z"
         id="path2"
         sodipodi:nodetypes="csssssc" /><path
         id="rect4"
         style="opacity:1;fill:#cccccc;fill-opacity:1;stroke-width:1.1054"
         d="m 142.30013,127.91049 h 17.93357 l 0.0401,11.20968 c 0,0 -1.59546,1.32679 -4.22303,1.92233 -1.67602,0.37987 -3.0659,-1.87609 -4.78381,-1.92233 -5.72771,-0.15416 -9.16067,-4.3586 -9.16067,-4.3586 z"
         sodipodi:nodetypes="cccsscc" /><path
         style="fill:#ffffff;stroke:none;stroke-width:1"
         d="m 272.7701,106.36046 c 0,0 -8.28758,-12.651603 -99.80097,-0.32039 -37.12002,5.00184 -62.38276,10.34479 -68.7233,16.68531 -0.7266,0.7266 -3.22002,3.47499 2.67084,5.54626 4.20745,1.47937 16.03905,4.48354 84.63498,-1.88691 27.14858,-2.52127 84.26215,-2.90519 84.26214,-16.5 0,-1.28155 -3.04369,-3.52427 -3.04369,-3.52427 z"
         id="path1"
         sodipodi:nodetypes="csssssc" /><path
         id="rect1"
         style="fill:#ececec;fill-opacity:1;stroke-width:1.02733"
         d="m 114.31361,124.15116 c 0,0 1.00748,-2.91381 11.87644,-2.16262 7.93766,0.54859 6.75023,3.60437 6.75023,3.60437 l -12.16295,34.33584 c 0,0 -0.33298,2.60975 -10.85907,1.89196 -10.269597,-0.7003 -8.59322,-3.67647 -8.59322,-3.67647 z"
         sodipodi:nodetypes="csccscc" /><path
         id="rect2"
         style="fill:#e2e2e2;fill-opacity:1"
         d="m 216.54196,115.94218 c 0,0 2.0377,-6.62925 18.18608,-7.20874 16.14837,-0.57949 23.17722,5.46416 23.17722,5.46416 l 2.85837,5.26885 3.68447,44.24353 c 0,0 -0.93357,4.05894 -25.39695,3.38729 -23.38766,-0.64213 -22.02861,-4.98923 -22.02861,-4.98923 z"
         sodipodi:nodetypes="czcccscc" /><path
         id="path4"
         style="opacity:1;fill:#ffffff;stroke-width:1.1054"
         d="m 144.43988,136.81523 15.83392,2.30494 c 0,0 -0.48426,0.34653 -1.22021,0.78975 -1.18735,0.71505 -2.58187,1.89565 -3.0939,2.97938 -1.16398,2.46363 -1.21515,2.12426 -1.10051,4.42418 0.18157,3.64263 -9.43552,-0.78696 -10.62387,-2.6171 z"
         sodipodi:nodetypes="ccssscc" /><path
         id="path5"
         style="opacity:1;fill:#cccccc;fill-opacity:1;stroke-width:1.1054"
         d="m 144.23526,144.69638 10.62387,2.6171 0.61087,12.42606 c -5.434,2.74286 -10.25101,1.27614 -11.43936,-0.554 z"
         sodipodi:nodetypes="ccccc" /></g></g></svg>
