<svg width="470" height="390" viewBox="0 0 470 390" fill="none" xmlns="http://www.w3.org/2000/svg">
<rect x="400" y="360" width="30" height="30" rx="10" fill="#D9D9D9" fill-opacity="0.15"/>
<rect x="40" y="360" width="30" height="30" rx="10" fill="#D9D9D9" fill-opacity="0.15"/>
<rect x="280" y="360" width="30" height="30" rx="10" fill="#D9D9D9" fill-opacity="0.1"/>
<rect x="360" y="360" width="30" height="30" rx="10" fill="#D9D9D9" fill-opacity="0.05"/>
<rect x="240" y="360" width="30" height="30" rx="10" fill="#D9D9D9" fill-opacity="0.1"/>
<rect x="320" y="360" width="30" height="30" rx="10" fill="#D9D9D9" fill-opacity="0.1"/>
<rect x="200" y="360" width="30" height="30" rx="10" fill="#D9D9D9" fill-opacity="0.2"/>
<rect x="120" y="360" width="30" height="30" rx="10" fill="#D9D9D9" fill-opacity="0.3"/>
<rect x="160" y="360" width="30" height="30" rx="10" fill="#D9D9D9" fill-opacity="0.1"/>
<rect x="80" y="360" width="30" height="30" rx="10" fill="#D9D9D9" fill-opacity="0.05"/>
<rect width="30" height="30" rx="10" transform="matrix(-1 0 0 1 30 320)" fill="#D9D9D9" fill-opacity="0.2"/>
<rect width="30" height="30" rx="10" transform="matrix(-1 0 0 1 70 320)" fill="#D9D9D9" fill-opacity="0.15"/>
<rect width="30" height="30" rx="10" transform="matrix(-1 0 0 1 110 320)" fill="#D9D9D9" fill-opacity="0.3"/>
<rect width="30" height="30" rx="10" transform="matrix(-1 0 0 1 150 320)" fill="#D9D9D9" fill-opacity="0.05"/>
<rect width="30" height="30" rx="10" transform="matrix(-1 0 0 1 190 320)" fill="#D9D9D9" fill-opacity="0.1"/>
<rect width="30" height="30" rx="10" transform="matrix(-1 0 0 1 230 320)" fill="#D9D9D9" fill-opacity="0.1"/>
<rect width="30" height="30" rx="10" transform="matrix(-1 0 0 1 270 320)" fill="#D9D9D9" fill-opacity="0.05"/>
<rect width="30" height="30" rx="10" transform="matrix(-1 0 0 1 310 320)" fill="#D9D9D9" fill-opacity="0.15"/>
<rect width="30" height="30" rx="10" transform="matrix(-1 0 0 1 350 320)" fill="#D9D9D9" fill-opacity="0.1"/>
<rect x="440" y="280" width="30" height="30" rx="10" fill="#D9D9D9" fill-opacity="0.15"/>
<rect x="80" y="280" width="30" height="30" rx="10" fill="#D9D9D9" fill-opacity="0.15"/>
<rect x="320" y="280" width="30" height="30" rx="10" fill="#D9D9D9" fill-opacity="0.1"/>
<rect x="400" y="280" width="30" height="30" rx="10" fill="#D9D9D9" fill-opacity="0.05"/>
<rect x="280" y="280" width="30" height="30" rx="10" fill="#D9D9D9" fill-opacity="0.1"/>
<rect x="360" y="280" width="30" height="30" rx="10" fill="#D9D9D9" fill-opacity="0.1"/>
<rect x="240" y="280" width="30" height="30" rx="10" fill="#D9D9D9" fill-opacity="0.2"/>
<rect x="160" y="280" width="30" height="30" rx="10" fill="#D9D9D9" fill-opacity="0.3"/>
<rect x="200" y="280" width="30" height="30" rx="10" fill="#D9D9D9" fill-opacity="0.1"/>
<rect x="120" y="280" width="30" height="30" rx="10" fill="#D9D9D9" fill-opacity="0.05"/>
<rect x="360" y="240" width="30" height="30" rx="10" fill="#D9D9D9" fill-opacity="0.2"/>
<rect x="320" y="240" width="30" height="30" rx="10" fill="#D9D9D9" fill-opacity="0.15"/>
<rect x="80" y="240" width="30" height="30" rx="10" fill="#D9D9D9" fill-opacity="0.3"/>
<rect x="240" y="240" width="30" height="30" rx="10" fill="#D9D9D9" fill-opacity="0.05"/>
<rect x="280" y="240" width="30" height="30" rx="10" fill="#D9D9D9" fill-opacity="0.1"/>
<rect x="200" y="240" width="30" height="30" rx="10" fill="#D9D9D9" fill-opacity="0.1"/>
<rect x="160" y="240" width="30" height="30" rx="10" fill="#D9D9D9" fill-opacity="0.05"/>
<rect x="120" y="240" width="30" height="30" rx="10" fill="#D9D9D9" fill-opacity="0.15"/>
<rect x="40" y="240" width="30" height="30" rx="10" fill="#D9D9D9" fill-opacity="0.1"/>
<rect width="30" height="30" rx="10" transform="matrix(-1 0 0 1 350 200)" fill="#D9D9D9" fill-opacity="0.15"/>
<rect width="30" height="30" rx="10" transform="matrix(-1 0 0 1 110 200)" fill="#D9D9D9" fill-opacity="0.1"/>
<rect width="30" height="30" rx="10" transform="matrix(-1 0 0 1 150 200)" fill="#D9D9D9" fill-opacity="0.1"/>
<rect width="30" height="30" rx="10" transform="matrix(-1 0 0 1 70 200)" fill="#D9D9D9" fill-opacity="0.1"/>
<rect width="30" height="30" rx="10" transform="matrix(-1 0 0 1 190 200)" fill="#D9D9D9" fill-opacity="0.2"/>
<rect width="30" height="30" rx="10" transform="matrix(-1 0 0 1 270 200)" fill="#D9D9D9" fill-opacity="0.3"/>
<rect width="30" height="30" rx="10" transform="matrix(-1 0 0 1 230 200)" fill="#D9D9D9" fill-opacity="0.1"/>
<rect width="30" height="30" rx="10" transform="matrix(-1 0 0 1 310 200)" fill="#D9D9D9" fill-opacity="0.05"/>
<rect x="360" y="160" width="30" height="30" rx="10" fill="#D9D9D9" fill-opacity="0.15"/>
<rect y="160" width="30" height="30" rx="10" fill="#D9D9D9" fill-opacity="0.15"/>
<rect x="240" y="160" width="30" height="30" rx="10" fill="#D9D9D9" fill-opacity="0.1"/>
<rect x="320" y="160" width="30" height="30" rx="10" fill="#D9D9D9" fill-opacity="0.05"/>
<rect x="200" y="160" width="30" height="30" rx="10" fill="#D9D9D9" fill-opacity="0.1"/>
<rect x="280" y="160" width="30" height="30" rx="10" fill="#D9D9D9" fill-opacity="0.1"/>
<rect x="160" y="160" width="30" height="30" rx="10" fill="#D9D9D9" fill-opacity="0.2"/>
<rect x="80" y="160" width="30" height="30" rx="10" fill="#D9D9D9" fill-opacity="0.3"/>
<rect x="120" y="160" width="30" height="30" rx="10" fill="#D9D9D9" fill-opacity="0.1"/>
<rect x="40" y="160" width="30" height="30" rx="10" fill="#D9D9D9" fill-opacity="0.05"/>
<rect x="400" y="120" width="30" height="30" rx="10" fill="#D9D9D9" fill-opacity="0.2"/>
<rect x="40" y="120" width="30" height="30" rx="10" fill="#D9D9D9" fill-opacity="0.15"/>
<rect x="280" y="120" width="30" height="30" rx="10" fill="#D9D9D9" fill-opacity="0.3"/>
<rect x="360" y="120" width="30" height="30" rx="10" fill="#D9D9D9" fill-opacity="0.05"/>
<rect x="240" y="120" width="30" height="30" rx="10" fill="#D9D9D9" fill-opacity="0.1"/>
<rect x="320" y="120" width="30" height="30" rx="10" fill="#D9D9D9" fill-opacity="0.1"/>
<rect x="200" y="120" width="30" height="30" rx="10" fill="#D9D9D9" fill-opacity="0.05"/>
<rect x="120" y="120" width="30" height="30" rx="10" fill="#D9D9D9" fill-opacity="0.15"/>
<rect x="160" y="120" width="30" height="30" rx="10" fill="#D9D9D9" fill-opacity="0.1"/>
<rect x="80" y="120" width="30" height="30" rx="10" fill="#D9D9D9" fill-opacity="0.1"/>
<rect x="400" y="80" width="30" height="30" rx="10" fill="#D9D9D9" fill-opacity="0.2"/>
<rect x="320" y="80" width="30" height="30" rx="10" fill="#D9D9D9" fill-opacity="0.15"/>
<rect x="240" y="80" width="30" height="30" rx="10" fill="#D9D9D9" fill-opacity="0.3"/>
<rect x="200" y="80" width="30" height="30" rx="10" fill="#D9D9D9" fill-opacity="0.05"/>
<rect x="160" y="80" width="30" height="30" rx="10" fill="#D9D9D9" fill-opacity="0.1"/>
<rect x="360" y="80" width="30" height="30" rx="10" fill="#D9D9D9" fill-opacity="0.1"/>
<rect x="280" y="80" width="30" height="30" rx="10" fill="#D9D9D9" fill-opacity="0.05"/>
<rect x="80" y="80" width="30" height="30" rx="10" fill="#D9D9D9" fill-opacity="0.15"/>
<rect x="120" y="80" width="30" height="30" rx="10" fill="#D9D9D9" fill-opacity="0.1"/>
<rect width="30" height="30" rx="10" transform="matrix(-1 0 0 1 70 40)" fill="#D9D9D9" fill-opacity="0.2"/>
<rect width="30" height="30" rx="10" transform="matrix(-1 0 0 1 110 40)" fill="#D9D9D9" fill-opacity="0.15"/>
<rect width="30" height="30" rx="10" transform="matrix(-1 0 0 1 350 40)" fill="#D9D9D9" fill-opacity="0.3"/>
<rect width="30" height="30" rx="10" transform="matrix(-1 0 0 1 190 40)" fill="#D9D9D9" fill-opacity="0.05"/>
<rect width="30" height="30" rx="10" transform="matrix(-1 0 0 1 150 40)" fill="#D9D9D9" fill-opacity="0.1"/>
<rect width="30" height="30" rx="10" transform="matrix(-1 0 0 1 230 40)" fill="#D9D9D9" fill-opacity="0.1"/>
<rect width="30" height="30" rx="10" transform="matrix(-1 0 0 1 270 40)" fill="#D9D9D9" fill-opacity="0.05"/>
<rect width="30" height="30" rx="10" transform="matrix(-1 0 0 1 310 40)" fill="#D9D9D9" fill-opacity="0.15"/>
<rect width="30" height="30" rx="10" transform="matrix(-1 0 0 1 390 40)" fill="#D9D9D9" fill-opacity="0.1"/>
<rect x="400" width="30" height="30" rx="10" fill="#D9D9D9" fill-opacity="0.2"/>
<rect x="360" width="30" height="30" rx="10" fill="#D9D9D9" fill-opacity="0.15"/>
<rect x="320" width="30" height="30" rx="10" fill="#D9D9D9" fill-opacity="0.3"/>
<rect x="280" width="30" height="30" rx="10" fill="#D9D9D9" fill-opacity="0.05"/>
<rect x="240" width="30" height="30" rx="10" fill="#D9D9D9" fill-opacity="0.1"/>
<rect x="200" width="30" height="30" rx="10" fill="#D9D9D9" fill-opacity="0.1"/>
<rect x="160" width="30" height="30" rx="10" fill="#D9D9D9" fill-opacity="0.05"/>
<rect x="120" width="30" height="30" rx="10" fill="#D9D9D9" fill-opacity="0.15"/>
<rect x="80" width="30" height="30" rx="10" fill="#D9D9D9" fill-opacity="0.1"/>
</svg>
