<?xml version="1.0" encoding="UTF-8" standalone="no"?>
<!-- Created with Inkscape (http://www.inkscape.org/) -->

<svg
   width="290.53586mm"
   height="98.070244mm"
   viewBox="0 0 290.53585 98.070245"
   version="1.1"
   id="svg1"
   inkscape:version="1.4.2 (f4327f4, 2025-05-13)"
   sodipodi:docname="cfbot.svg"
   xmlns:inkscape="http://www.inkscape.org/namespaces/inkscape"
   xmlns:sodipodi="http://sodipodi.sourceforge.net/DTD/sodipodi-0.dtd"
   xmlns="http://www.w3.org/2000/svg"
   xmlns:svg="http://www.w3.org/2000/svg"
   xmlns:rdf="http://www.w3.org/1999/02/22-rdf-syntax-ns#"
   xmlns:cc="http://creativecommons.org/ns#"
   xmlns:dc="http://purl.org/dc/elements/1.1/">
  <metadata
     id="metadata3737">
    <rdf:RDF>
      <cc:Work
         rdf:about="">
        <dc:format>image/svg+xml</dc:format>
        <dc:type
           rdf:resource="http://purl.org/dc/dcmitype/StillImage" />
      </cc:Work>
    </rdf:RDF>
  </metadata>
  <sodipodi:namedview
     id="namedview1"
     pagecolor="#ffffff"
     bordercolor="#666666"
     borderopacity="1.0"
     inkscape:showpageshadow="2"
     inkscape:pageopacity="0.0"
     inkscape:pagecheckerboard="0"
     inkscape:deskcolor="#d1d1d1"
     inkscape:document-units="mm"
     inkscape:zoom="1.9628562"
     inkscape:cx="222.38002"
     inkscape:cy="757.31479"
     inkscape:window-width="1920"
     inkscape:window-height="1129"
     inkscape:window-x="-8"
     inkscape:window-y="-8"
     inkscape:window-maximized="1"
     inkscape:current-layer="g2"
     showgrid="false" />
  <defs
     id="defs1" />
  <g
     inkscape:label="圖層 1"
     inkscape:groupmode="layer"
     id="layer1"
     transform="translate(-48.999195,-46.330387)">
    <g
       id="g4">
      <path
         transform="matrix(0.88351947,0.46839443,-0.88351947,0.46839443,0,0)"
         style="fill:#333333;fill-opacity:1;fill-rule:evenodd;stroke-width:0.21175399"
         d="m 100.37618,-1.4629935 h 46.38008 V 44.91708 h -46.38008 z"
         id="rect1" />
      <path
         id="rect2"
         style="fill:#4d4d4d;fill-opacity:1;fill-rule:evenodd;stroke-width:0.211754"
         transform="matrix(0.88351947,0.46839443,-0.88351947,0.46839443,0,0)"
         d="m 100.37618,44.91708 h 46.38008 l 49.76925,49.769248 -46.3799,1.78e-4 z"
         sodipodi:nodetypes="ccccc" />
    </g>
    <g
       aria-label="CFBot"
       style="font-style:normal;font-variant:normal;font-weight:500;font-stretch:normal;font-size:49.02280045px;line-height:1.25;font-family:'Noto Sans TC';-inkscape-font-specification:'Noto Sans TC Medium';fill:#000000;fill-opacity:1;stroke:none;stroke-width:1.22556996"
       id="text1">
      <path
         d="m 121.93251,128.29043 q -3.38258,0 -6.32395,-1.22557 -2.89234,-1.27459 -5.09837,-3.67671 -2.20602,-2.40212 -3.43159,-5.83371 -1.22557,-3.48062 -1.22557,-7.9417 0,-4.41205 1.27459,-7.89267 1.27459,-3.480617 3.48062,-5.882734 2.20602,-2.45114 5.19642,-3.725733 2.99039,-1.274593 6.42198,-1.274593 3.33355,0 5.93176,1.372639 2.59821,1.372638 4.26498,3.186482 l -3.03941,3.627687 q -1.42166,-1.421661 -3.18648,-2.304072 -1.7158,-0.931433 -3.8728,-0.931433 -3.13746,0 -5.53958,1.666775 -2.35309,1.666776 -3.72573,4.706192 -1.32362,3.03941 -1.32362,7.30439 0,4.26499 1.2746,7.40245 1.27459,3.08843 3.62768,4.75521 2.3531,1.66677 5.53958,1.66677 2.45114,0 4.36303,-1.02947 1.96091,-1.07851 3.57866,-2.84333 l 3.08844,3.62769 q -2.20603,2.54919 -5.00033,3.92182 -2.74527,1.32362 -6.27491,1.32362 z"
         style="font-style:normal;font-variant:normal;font-weight:500;font-stretch:normal;font-family:'Noto Sans TC';-inkscape-font-specification:'Noto Sans TC Medium';stroke-width:1.22556996"
         id="path91" />
      <path
         d="M 139.55544,127.60411 V 91.474307 h 21.37394 v 4.804234 h -15.6873 v 11.030129 h 13.38323 v 4.75521 h -13.38323 v 15.54023 z"
         style="font-style:normal;font-variant:normal;font-weight:500;font-stretch:normal;font-family:'Noto Sans TC';-inkscape-font-specification:'Noto Sans TC Medium';stroke-width:1.22556996"
         id="path93" />
      <path
         d="M 167.32226,127.60411 V 91.474307 h 11.22622 q 3.67671,0 6.52003,0.88241 2.89235,0.882411 4.5101,2.843323 1.66678,1.911889 1.66678,5.14739 0,1.76482 -0.6373,3.33355 -0.58827,1.56873 -1.7158,2.7943 -1.12752,1.17655 -2.7943,1.7158 v 0.24512 q 3.08844,0.63729 5.09837,2.7943 2.00994,2.10798 2.00994,5.78469 0,3.57866 -1.81385,5.93175 -1.76482,2.3531 -4.90228,3.52965 -3.08843,1.12752 -7.1083,1.12752 z m 5.68664,-21.03078 h 4.85326 q 4.11792,0 5.93176,-1.47068 1.86287,-1.47069 1.86287,-3.97085 0,-2.794301 -1.91189,-3.970848 -1.91189,-1.22557 -5.73567,-1.22557 h -5.00033 z m 0,16.56971 h 5.73567 q 4.21596,0 6.52003,-1.56873 2.3531,-1.56873 2.3531,-4.85326 0,-3.03941 -2.30407,-4.41205 -2.25505,-1.42166 -6.56906,-1.42166 h -5.73567 z"
         style="font-style:normal;font-variant:normal;font-weight:500;font-stretch:normal;font-family:'Noto Sans TC';-inkscape-font-specification:'Noto Sans TC Medium';stroke-width:1.22556996"
         id="path95" />
      <path
         d="m 210.41177,128.29043 q -3.33355,0 -6.27492,-1.66678 -2.89235,-1.71579 -4.70619,-4.85325 -1.76482,-3.18648 -1.76482,-7.64756 0,-4.5101 1.76482,-7.64756 1.81384,-3.18648 4.70619,-4.85325 2.94137,-1.666779 6.27492,-1.666779 2.45114,0 4.75521,0.980459 2.30407,0.93143 4.06889,2.74527 1.76482,1.81385 2.7943,4.46108 1.02948,2.59821 1.02948,5.98078 0,4.46108 -1.81384,7.64756 -1.76483,3.13746 -4.65717,4.85325 -2.84332,1.66678 -6.17687,1.66678 z m 0,-4.70619 q 2.10798,0 3.62768,-1.17655 1.56873,-1.17654 2.40212,-3.28452 0.83339,-2.15701 0.83339,-5.00033 0,-2.84332 -0.83339,-4.9513 -0.83339,-2.15701 -2.40212,-3.33355 -1.5197,-1.22557 -3.62768,-1.22557 -2.15701,0 -3.72574,1.22557 -1.5197,1.17654 -2.35309,3.33355 -0.83339,2.10798 -0.83339,4.9513 0,2.84332 0.83339,5.00033 0.83339,2.10798 2.35309,3.28452 1.56873,1.17655 3.72574,1.17655 z"
         style="font-style:normal;font-variant:normal;font-weight:500;font-stretch:normal;font-family:'Noto Sans TC';-inkscape-font-specification:'Noto Sans TC Medium';stroke-width:1.22556996"
         id="path97" />
      <path
         d="m 238.23297,128.29043 q -3.03942,0 -4.85326,-1.17655 -1.76482,-1.22557 -2.54919,-3.33355 -0.78436,-2.157 -0.78436,-5.00032 v -13.62834 h -3.92182 v -4.21596 l 4.21596,-0.34316 0.63729,-7.451468 h 4.70619 v 7.451468 h 7.01026 v 4.55912 h -7.01026 v 13.67736 q 0,2.40212 0.93143,3.67671 0.93144,1.22557 3.03942,1.22557 0.68632,0 1.47068,-0.19609 0.78437,-0.19609 1.37264,-0.44121 l 1.02948,4.16694 q -1.0785,0.34316 -2.45114,0.68632 -1.32362,0.34316 -2.84332,0.34316 z"
         style="font-style:normal;font-variant:normal;font-weight:500;font-stretch:normal;font-family:'Noto Sans TC';-inkscape-font-specification:'Noto Sans TC Medium';stroke-width:1.22556996"
         id="path99" />
    </g>
    <g
       aria-label="A Discord Bot For Every Minecraft Server"
       style="font-style:normal;font-variant:normal;font-weight:normal;font-stretch:normal;font-size:10.60929966px;line-height:0.89999998;font-family:Roboto;-inkscape-font-specification:Roboto;letter-spacing:-0.529167px;fill:#a9a9a9;fill-opacity:1;stroke:none;stroke-width:0.26523301"
       id="text2">
      <path
         d="m 109.69882,140.16831 h -2.85954 l -0.58537,1.59036 h 0.83403 q 0.15541,0 0.22275,0.0622 0.0674,0.057 0.0674,0.15541 0,0.0933 -0.0674,0.15541 -0.0673,0.0622 -0.22275,0.0622 h -1.62662 q -0.15541,0 -0.22276,-0.0622 -0.0673,-0.0622 -0.0673,-0.15541 0,-0.0984 0.0673,-0.15541 0.0673,-0.0622 0.22276,-0.0622 h 0.33672 l 1.9219,-5.19068 h -1.28472 q -0.15541,0 -0.22276,-0.057 -0.0673,-0.0622 -0.0673,-0.16059 0,-0.0984 0.0673,-0.15541 0.0674,-0.0622 0.22276,-0.0622 h 2.19127 l 2.12394,5.62583 h 0.33672 q 0.15541,0 0.22275,0.0622 0.0673,0.057 0.0673,0.15541 0,0.0933 -0.0673,0.15541 -0.0673,0.0622 -0.22275,0.0622 h -1.62144 q -0.16059,0 -0.22794,-0.0622 -0.0673,-0.0622 -0.0673,-0.15541 0,-0.0984 0.0673,-0.15541 0.0674,-0.0622 0.22794,-0.0622 h 0.82885 z m -0.16577,-0.43515 -1.20184,-3.16517 h -0.16059 l -1.16557,3.16517 z"
         style="font-style:normal;font-variant:normal;font-weight:normal;font-stretch:normal;line-height:0.89999998;font-family:Monospace;-inkscape-font-specification:Monospace;letter-spacing:-0.529167px;fill:#a9a9a9;fill-opacity:1;stroke-width:0.26523301"
         id="path22" />
      <path
         d="m 118.22408,141.75867 v -5.19068 h -0.3678 q -0.15541,0 -0.22276,-0.057 -0.0673,-0.0622 -0.0673,-0.16059 0,-0.0984 0.0673,-0.15541 0.0673,-0.0622 0.22276,-0.0622 h 2.3415 q 0.54912,0 0.99981,0.22793 0.45586,0.22794 0.69416,0.51804 0.40924,0.49213 0.62164,1.04124 0.15023,0.39889 0.15023,0.94282 v 0.60092 q 0,0.66826 -0.29528,1.29508 -0.29528,0.62682 -0.98426,1.09305 -0.51285,0.3419 -1.1863,0.3419 h -2.3415 q -0.15541,0 -0.22276,-0.0622 -0.0673,-0.0622 -0.0673,-0.15541 0,-0.0984 0.0673,-0.15541 0.0673,-0.0622 0.22276,-0.0622 z m 0.43515,0 h 1.58 q 0.54911,0 1.0257,-0.35744 0.48177,-0.35744 0.72006,-0.85476 0.24348,-0.50249 0.24348,-0.98944 v -0.78741 q 0,-0.40406 -0.12951,-0.72006 -0.18649,-0.46105 -0.52839,-0.87547 -0.18649,-0.22794 -0.54912,-0.41443 -0.36262,-0.19167 -0.78222,-0.19167 h -1.58 z"
         style="font-style:normal;font-variant:normal;font-weight:normal;font-stretch:normal;line-height:0.89999998;font-family:Monospace;-inkscape-font-specification:Monospace;letter-spacing:-0.529167px;fill:#a9a9a9;fill-opacity:1;stroke-width:0.26523301"
         id="path24" />
      <path
         d="m 125.97825,135.47494 v 1.12413 h -0.64236 v -1.12413 z m 0.0155,2.23272 v 4.05101 h 1.70951 q 0.16059,0 0.22793,0.0622 0.0673,0.057 0.0673,0.15541 0,0.0933 -0.0673,0.15541 -0.0673,0.0622 -0.22793,0.0622 h -3.85416 q -0.15541,0 -0.22276,-0.0622 -0.0673,-0.0622 -0.0673,-0.15541 0,-0.0984 0.0673,-0.15541 0.0674,-0.0622 0.22276,-0.0622 h 1.7095 v -3.61068 h -1.26918 q -0.15541,0 -0.22793,-0.0622 -0.0673,-0.0622 -0.0673,-0.15541 0,-0.0984 0.0673,-0.16059 0.0673,-0.0622 0.22793,-0.0622 z"
         style="font-style:normal;font-variant:normal;font-weight:normal;font-stretch:normal;line-height:0.89999998;font-family:Monospace;-inkscape-font-specification:Monospace;letter-spacing:-0.529167px;fill:#a9a9a9;fill-opacity:1;stroke-width:0.26523301"
         id="path26" />
      <path
         d="m 133.03307,137.99258 q 0,-0.15023 0.0622,-0.21758 0.0622,-0.0673 0.15541,-0.0673 0.0984,0 0.16059,0.0673 0.0622,0.0674 0.0622,0.22794 v 0.74596 q 0,0.15541 -0.0622,0.22276 -0.0622,0.0673 -0.16059,0.0673 -0.0881,0 -0.15023,-0.057 -0.057,-0.057 -0.0674,-0.18649 -0.0311,-0.31082 -0.32118,-0.51286 -0.42478,-0.29009 -1.12413,-0.29009 -0.73042,0 -1.13449,0.29527 -0.30564,0.22276 -0.30564,0.49732 0,0.31081 0.36263,0.51803 0.24865,0.14505 0.94281,0.22275 0.90656,0.0984 1.25882,0.22276 0.50249,0.18131 0.74597,0.50249 0.24865,0.32118 0.24865,0.69416 0,0.55429 -0.53357,0.98944 -0.53357,0.42997 -1.56446,0.42997 -1.03088,0 -1.68878,-0.52321 0,0.17613 -0.0207,0.22793 -0.0207,0.0518 -0.0777,0.0881 -0.0518,0.0363 -0.11914,0.0363 -0.0933,0 -0.15541,-0.0673 -0.0622,-0.0673 -0.0622,-0.22275 v -0.8962 q 0,-0.15541 0.057,-0.22275 0.0622,-0.0673 0.16059,-0.0673 0.0932,0 0.15541,0.0673 0.0673,0.0622 0.0673,0.17095 0,0.23829 0.11915,0.39888 0.18131,0.24866 0.57501,0.41443 0.39889,0.16059 0.9739,0.16059 0.84958,0 1.264,-0.316 0.41443,-0.316 0.41443,-0.66826 0,-0.40407 -0.41961,-0.64754 -0.42478,-0.24348 -1.2381,-0.32636 -0.80813,-0.0829 -1.16039,-0.21757 -0.35226,-0.13469 -0.54911,-0.40407 -0.19685,-0.26938 -0.19685,-0.5802 0,-0.55947 0.54911,-0.88583 0.54911,-0.33154 1.31062,-0.33154 0.90138,0 1.46603,0.44033 z"
         style="font-style:normal;font-variant:normal;font-weight:normal;font-stretch:normal;line-height:0.89999998;font-family:Monospace;-inkscape-font-specification:Monospace;letter-spacing:-0.529167px;fill:#a9a9a9;fill-opacity:1;stroke-width:0.26523301"
         id="path28" />
      <path
         d="m 139.24351,138.14799 v -0.14505 q 0,-0.16059 0.0622,-0.22794 0.0622,-0.0673 0.15541,-0.0673 0.0984,0 0.16059,0.0673 0.0622,0.0674 0.0622,0.22794 v 0.98426 q -0.005,0.16059 -0.0673,0.22793 -0.057,0.0674 -0.15541,0.0674 -0.0881,0 -0.15023,-0.057 -0.057,-0.0622 -0.0673,-0.20203 -0.0311,-0.3678 -0.48695,-0.69934 -0.45069,-0.33154 -1.21738,-0.33154 -0.96872,0 -1.47121,0.60609 -0.50249,0.6061 -0.50249,1.38833 0,0.84439 0.55429,1.39351 0.5543,0.54911 1.43495,0.54911 0.50767,0 1.03089,-0.18649 0.52839,-0.18649 0.95317,-0.60092 0.10879,-0.1036 0.19168,-0.1036 0.0881,0 0.14505,0.0622 0.0622,0.057 0.0622,0.14505 0,0.22275 -0.52321,0.56465 -0.8444,0.5543 -1.88046,0.5543 -1.05161,0 -1.73023,-0.66826 -0.67344,-0.67345 -0.67344,-1.70433 0,-1.05161 0.68898,-1.74577 0.69417,-0.69416 1.74577,-0.69416 0.9998,0 1.67843,0.59574 z"
         style="font-style:normal;font-variant:normal;font-weight:normal;font-stretch:normal;line-height:0.89999998;font-family:Monospace;-inkscape-font-specification:Monospace;letter-spacing:-0.529167px;fill:#a9a9a9;fill-opacity:1;stroke-width:0.26523301"
         id="path30" />
      <path
         d="m 145.69223,139.9611 q 0,0.99462 -0.71488,1.69914 -0.70971,0.70453 -1.71469,0.70453 -1.01534,0 -1.72505,-0.70453 -0.7097,-0.7097 -0.7097,-1.69914 0,-0.99462 0.7097,-1.69915 0.70971,-0.7097 1.72505,-0.7097 1.00498,0 1.71469,0.70452 0.71488,0.70453 0.71488,1.70433 z m -0.44033,0 q 0,-0.81849 -0.58537,-1.39351 -0.5802,-0.57501 -1.40905,-0.57501 -0.82885,0 -1.41423,0.58019 -0.58019,0.57502 -0.58019,1.38833 0,0.80813 0.58019,1.38832 0.58538,0.5802 1.41423,0.5802 0.82885,0 1.40905,-0.57502 0.58537,-0.58019 0.58537,-1.3935 z"
         style="font-style:normal;font-variant:normal;font-weight:normal;font-stretch:normal;line-height:0.89999998;font-family:Monospace;-inkscape-font-specification:Monospace;letter-spacing:-0.529167px;fill:#a9a9a9;fill-opacity:1;stroke-width:0.26523301"
         id="path32" />
      <path
         d="m 148.57172,137.70766 v 1.09823 q 0.84957,-0.76669 1.26918,-0.98426 0.42478,-0.22276 0.78222,-0.22276 0.38853,0 0.72007,0.2642 0.33672,0.25901 0.33672,0.3937 0,0.0984 -0.0673,0.16577 -0.0622,0.0622 -0.16059,0.0622 -0.0518,0 -0.0881,-0.0155 -0.0363,-0.0207 -0.13469,-0.11915 -0.18131,-0.18131 -0.316,-0.24866 -0.13469,-0.0673 -0.26419,-0.0673 -0.28492,0 -0.68899,0.22793 -0.39888,0.22794 -1.38832,1.11377 v 2.38295 h 1.92708 q 0.16059,0 0.22793,0.0622 0.0673,0.057 0.0673,0.15541 0,0.0933 -0.0673,0.15541 -0.0673,0.0622 -0.22793,0.0622 h -3.41384 q -0.15541,0 -0.22275,-0.057 -0.0673,-0.0622 -0.0673,-0.15541 0,-0.0881 0.0622,-0.14505 0.0673,-0.0622 0.22793,-0.0622 h 1.05161 v -3.62622 h -0.80295 q -0.15541,0 -0.22275,-0.0622 -0.0674,-0.0622 -0.0674,-0.16059 0,-0.0932 0.0622,-0.15541 0.0673,-0.0622 0.22793,-0.0622 z"
         style="font-style:normal;font-variant:normal;font-weight:normal;font-stretch:normal;line-height:0.89999998;font-family:Monospace;-inkscape-font-specification:Monospace;letter-spacing:-0.529167px;fill:#a9a9a9;fill-opacity:1;stroke-width:0.26523301"
         id="path34" />
      <path
         d="m 157.05631,135.69251 v 6.06616 h 0.5802 q 0.16059,0 0.22793,0.0622 0.0673,0.057 0.0673,0.15541 0,0.0933 -0.0673,0.15541 -0.0673,0.0622 -0.22793,0.0622 h -1.02053 v -0.86512 q -0.75633,1.03607 -1.9219,1.03607 -0.59055,0 -1.13449,-0.31082 -0.53875,-0.316 -0.85475,-0.8962 -0.31082,-0.58019 -0.31082,-1.19665 0,-0.62164 0.31082,-1.19666 0.316,-0.58019 0.85475,-0.89619 0.54394,-0.316 1.13967,-0.316 1.13967,0 1.91672,1.03606 v -2.45547 h -0.58019 q -0.16059,0 -0.22794,-0.0622 -0.0673,-0.0622 -0.0673,-0.16059 0,-0.0932 0.0673,-0.15541 0.0674,-0.0622 0.22794,-0.0622 z m -0.44033,4.26859 q 0,-0.82885 -0.55947,-1.39869 -0.55948,-0.56983 -1.33135,-0.56983 -0.77704,0 -1.33652,0.56983 -0.55947,0.56984 -0.55947,1.39869 0,0.82367 0.55947,1.39869 0.55948,0.56983 1.33652,0.56983 0.77187,0 1.33135,-0.56983 0.55947,-0.57502 0.55947,-1.39869 z"
         style="font-style:normal;font-variant:normal;font-weight:normal;font-stretch:normal;line-height:0.89999998;font-family:Monospace;-inkscape-font-specification:Monospace;letter-spacing:-0.529167px;fill:#a9a9a9;fill-opacity:1;stroke-width:0.26523301"
         id="path36" />
      <path
         d="m 164.732,141.75867 v -5.19068 h -0.58538 q -0.15541,0 -0.22275,-0.057 -0.0673,-0.0622 -0.0673,-0.16059 0,-0.0984 0.0673,-0.15541 0.0673,-0.0622 0.22275,-0.0622 h 2.73521 q 0.81331,0 1.32099,0.47141 0.51285,0.46623 0.51285,1.09823 0,0.79777 -0.85475,1.2899 0.67862,0.24347 0.99462,0.64754 0.316,0.40406 0.316,0.89101 0,0.43515 -0.20722,0.79777 -0.20721,0.35745 -0.63718,0.61128 -0.42478,0.25384 -0.92727,0.25384 h -3.25325 q -0.15541,0 -0.22275,-0.0622 -0.0673,-0.0622 -0.0673,-0.15541 0,-0.0984 0.0673,-0.15541 0.0673,-0.0622 0.22275,-0.0622 z m 0.43515,-2.93206 h 1.53855 q 0.49213,0 0.90138,-0.18131 0.316,-0.14505 0.49213,-0.41961 0.17613,-0.27456 0.17613,-0.55947 0,-0.40925 -0.38334,-0.75115 -0.38335,-0.34708 -0.99981,-0.34708 h -1.72504 z m 0,2.93206 h 2.20163 q 0.41961,0 0.73043,-0.18649 0.31082,-0.18649 0.47141,-0.46105 0.16059,-0.27456 0.16059,-0.56984 0,-0.33154 -0.23312,-0.64236 -0.22793,-0.31081 -0.63717,-0.4714 -0.40925,-0.16059 -1.12932,-0.16059 h -1.56445 z"
         style="font-style:normal;font-variant:normal;font-weight:normal;font-stretch:normal;line-height:0.89999998;font-family:Monospace;-inkscape-font-specification:Monospace;letter-spacing:-0.529167px;fill:#a9a9a9;fill-opacity:1;stroke-width:0.26523301"
         id="path38" />
      <path
         d="m 174.85357,139.9611 q 0,0.99462 -0.71488,1.69914 -0.7097,0.70453 -1.71469,0.70453 -1.01534,0 -1.72504,-0.70453 -0.70971,-0.7097 -0.70971,-1.69914 0,-0.99462 0.70971,-1.69915 0.7097,-0.7097 1.72504,-0.7097 1.00499,0 1.71469,0.70452 0.71488,0.70453 0.71488,1.70433 z m -0.44032,0 q 0,-0.81849 -0.58538,-1.39351 -0.58019,-0.57501 -1.40905,-0.57501 -0.82885,0 -1.41422,0.58019 -0.5802,0.57502 -0.5802,1.38833 0,0.80813 0.5802,1.38832 0.58537,0.5802 1.41422,0.5802 0.82886,0 1.40905,-0.57502 0.58538,-0.58019 0.58538,-1.3935 z"
         style="font-style:normal;font-variant:normal;font-weight:normal;font-stretch:normal;line-height:0.89999998;font-family:Monospace;-inkscape-font-specification:Monospace;letter-spacing:-0.529167px;fill:#a9a9a9;fill-opacity:1;stroke-width:0.26523301"
         id="path40" />
      <path
         d="m 177.36008,137.70766 h 2.36222 q 0.15541,0 0.22276,0.0622 0.0673,0.0622 0.0673,0.16059 0,0.0933 -0.0673,0.15541 -0.0674,0.0622 -0.22276,0.0622 h -2.36222 v 2.8958 q 0,0.37816 0.30045,0.63199 0.30564,0.25384 0.89102,0.25384 0.44033,0 0.95318,-0.12951 0.51285,-0.13469 0.79777,-0.30046 0.10361,-0.0673 0.17095,-0.0673 0.0829,0 0.14505,0.0673 0.0622,0.0622 0.0622,0.15023 0,0.0777 -0.0673,0.14505 -0.16577,0.17095 -0.80813,0.37299 -0.63718,0.19685 -1.22256,0.19685 -0.76151,0 -1.21219,-0.35744 -0.45069,-0.35745 -0.45069,-0.96354 v -2.8958 h -0.80295 q -0.15541,0 -0.22276,-0.0622 -0.0673,-0.0622 -0.0673,-0.16059 0,-0.0932 0.0673,-0.15541 0.0674,-0.0622 0.22276,-0.0622 h 0.80295 v -1.28472 q 0,-0.15541 0.0622,-0.22276 0.0622,-0.0673 0.15541,-0.0673 0.0984,0 0.16059,0.0673 0.0622,0.0674 0.0622,0.22276 z"
         style="font-style:normal;font-variant:normal;font-weight:normal;font-stretch:normal;line-height:0.89999998;font-family:Monospace;-inkscape-font-specification:Monospace;letter-spacing:-0.529167px;fill:#a9a9a9;fill-opacity:1;stroke-width:0.26523301"
         id="path42" />
      <path
         d="m 188.8692,139.26694 v 2.49173 h 1.49193 q 0.15541,0 0.22276,0.0622 0.0673,0.057 0.0673,0.15541 0,0.0933 -0.0673,0.15541 -0.0674,0.0622 -0.22276,0.0622 h -2.51245 q -0.15541,0 -0.22276,-0.0622 -0.0673,-0.0622 -0.0673,-0.15541 0,-0.0984 0.0673,-0.15541 0.0674,-0.0622 0.22276,-0.0622 h 0.58537 v -5.19068 h -0.58537 q -0.15541,0 -0.22276,-0.057 -0.0673,-0.0622 -0.0673,-0.16059 0,-0.0984 0.0777,-0.16577 0.057,-0.0518 0.21239,-0.0518 h 4.7918 v 1.49711 q 0,0.15541 -0.0622,0.22276 -0.0622,0.0673 -0.15541,0.0673 -0.0984,0 -0.16059,-0.0673 -0.0622,-0.0674 -0.0622,-0.22276 v -1.06196 h -3.33095 v 2.2638 h 1.55928 v -0.49213 q 0,-0.15541 0.0622,-0.22276 0.0622,-0.0673 0.16059,-0.0673 0.0933,0 0.15541,0.0673 0.0622,0.0674 0.0622,0.22276 v 1.41941 q 0,0.15541 -0.0622,0.22275 -0.0622,0.0673 -0.15541,0.0673 -0.0984,0 -0.16059,-0.0673 -0.0622,-0.0673 -0.0622,-0.22275 v -0.49213 z"
         style="font-style:normal;font-variant:normal;font-weight:normal;font-stretch:normal;line-height:0.89999998;font-family:Monospace;-inkscape-font-specification:Monospace;letter-spacing:-0.529167px;fill:#a9a9a9;fill-opacity:1;stroke-width:0.26523301"
         id="path44" />
      <path
         d="m 198.18265,139.9611 q 0,0.99462 -0.71489,1.69914 -0.7097,0.70453 -1.71469,0.70453 -1.01534,0 -1.72504,-0.70453 -0.70971,-0.7097 -0.70971,-1.69914 0,-0.99462 0.70971,-1.69915 0.7097,-0.7097 1.72504,-0.7097 1.00499,0 1.71469,0.70452 0.71489,0.70453 0.71489,1.70433 z m -0.44033,0 q 0,-0.81849 -0.58538,-1.39351 -0.58019,-0.57501 -1.40905,-0.57501 -0.82885,0 -1.41422,0.58019 -0.5802,0.57502 -0.5802,1.38833 0,0.80813 0.5802,1.38832 0.58537,0.5802 1.41422,0.5802 0.82886,0 1.40905,-0.57502 0.58538,-0.58019 0.58538,-1.3935 z"
         style="font-style:normal;font-variant:normal;font-weight:normal;font-stretch:normal;line-height:0.89999998;font-family:Monospace;-inkscape-font-specification:Monospace;letter-spacing:-0.529167px;fill:#a9a9a9;fill-opacity:1;stroke-width:0.26523301"
         id="path46" />
      <path
         d="m 201.06213,137.70766 v 1.09823 q 0.84957,-0.76669 1.26918,-0.98426 0.42479,-0.22276 0.78223,-0.22276 0.38852,0 0.72006,0.2642 0.33672,0.25901 0.33672,0.3937 0,0.0984 -0.0673,0.16577 -0.0622,0.0622 -0.16059,0.0622 -0.0518,0 -0.0881,-0.0155 -0.0363,-0.0207 -0.13468,-0.11915 -0.18132,-0.18131 -0.316,-0.24866 -0.13469,-0.0673 -0.2642,-0.0673 -0.28492,0 -0.68898,0.22793 -0.39889,0.22794 -1.38833,1.11377 v 2.38295 h 1.92708 q 0.16059,0 0.22793,0.0622 0.0674,0.057 0.0674,0.15541 0,0.0933 -0.0674,0.15541 -0.0673,0.0622 -0.22793,0.0622 h -3.41383 q -0.15541,0 -0.22276,-0.057 -0.0673,-0.0622 -0.0673,-0.15541 0,-0.0881 0.0622,-0.14505 0.0674,-0.0622 0.22794,-0.0622 h 1.0516 v -3.62622 h -0.80295 q -0.15541,0 -0.22275,-0.0622 -0.0673,-0.0622 -0.0673,-0.16059 0,-0.0932 0.0622,-0.15541 0.0673,-0.0622 0.22793,-0.0622 z"
         style="font-style:normal;font-variant:normal;font-weight:normal;font-stretch:normal;line-height:0.89999998;font-family:Monospace;-inkscape-font-specification:Monospace;letter-spacing:-0.529167px;fill:#a9a9a9;fill-opacity:1;stroke-width:0.26523301"
         id="path48" />
      <path
         d="m 211.83048,139.26694 v 2.49173 h 3.34649 v -1.28472 q 0,-0.15541 0.057,-0.22275 0.0622,-0.0674 0.16059,-0.0674 0.0984,0 0.15541,0.0674 0.0622,0.0673 0.0622,0.22275 v 1.71987 h -4.80216 q -0.15541,0 -0.22275,-0.0622 -0.0673,-0.0622 -0.0673,-0.15541 0,-0.0984 0.0673,-0.15541 0.0673,-0.0622 0.22275,-0.0622 h 0.58538 v -5.19068 h -0.58538 q -0.15541,0 -0.22275,-0.057 -0.0673,-0.0622 -0.0673,-0.16059 0,-0.0984 0.0673,-0.15541 0.0673,-0.0622 0.22275,-0.0622 h 4.57423 v 1.49711 q 0,0.15541 -0.0622,0.22276 -0.057,0.0673 -0.15541,0.0673 -0.0984,0 -0.16058,-0.0673 -0.057,-0.0674 -0.057,-0.22276 v -1.06196 h -3.11855 v 2.2638 h 1.55927 v -0.49213 q 0,-0.15541 0.0622,-0.22276 0.0622,-0.0673 0.16059,-0.0673 0.0932,0 0.15541,0.0673 0.0622,0.0674 0.0622,0.22276 v 1.41941 q 0,0.15541 -0.0622,0.22275 -0.0622,0.0673 -0.15541,0.0673 -0.0984,0 -0.16059,-0.0673 -0.0622,-0.0673 -0.0622,-0.22275 v -0.49213 z"
         style="font-style:normal;font-variant:normal;font-weight:normal;font-stretch:normal;line-height:0.89999998;font-family:Monospace;-inkscape-font-specification:Monospace;letter-spacing:-0.529167px;fill:#a9a9a9;fill-opacity:1;stroke-width:0.26523301"
         id="path50" />
      <path
         d="m 219.46032,142.19382 h -0.73561 l -1.78721,-4.04583 h -0.44551 q -0.15541,0 -0.22275,-0.0622 -0.0674,-0.0622 -0.0674,-0.16059 0,-0.0932 0.0674,-0.15541 0.0673,-0.0622 0.22275,-0.0622 h 1.6318 q 0.15541,0 0.22276,0.0622 0.0673,0.0622 0.0673,0.16059 0,0.0933 -0.0673,0.15541 -0.0674,0.0622 -0.22276,0.0622 h -0.72006 l 1.59554,3.61068 h 0.19167 l 1.56446,-3.61068 h -0.72525 q -0.15541,0 -0.22275,-0.0622 -0.0674,-0.0622 -0.0674,-0.16059 0,-0.0932 0.0674,-0.15541 0.0673,-0.0622 0.22275,-0.0622 h 1.63698 q 0.16059,0 0.22276,0.0622 0.0673,0.0622 0.0673,0.16059 0,0.0933 -0.0673,0.15541 -0.0622,0.0622 -0.22276,0.0622 h -0.44032 z"
         style="font-style:normal;font-variant:normal;font-weight:normal;font-stretch:normal;line-height:0.89999998;font-family:Monospace;-inkscape-font-specification:Monospace;letter-spacing:-0.529167px;fill:#a9a9a9;fill-opacity:1;stroke-width:0.26523301"
         id="path52" />
      <path
         d="m 227.26629,140.05434 h -4.43436 q 0.11397,0.8444 0.70453,1.36243 0.59573,0.51285 1.47121,0.51285 0.48695,0 1.02052,-0.16059 0.53357,-0.16059 0.87029,-0.42479 0.0984,-0.0777 0.17096,-0.0777 0.0829,0 0.14504,0.0673 0.0622,0.0622 0.0622,0.15023 0,0.0881 -0.0829,0.17095 -0.24865,0.25902 -0.88583,0.48695 -0.632,0.22276 -1.30026,0.22276 -1.11895,0 -1.8701,-0.73043 -0.74597,-0.7356 -0.74597,-1.77685 0,-0.948 0.69935,-1.62662 0.70452,-0.67862 1.74059,-0.67862 1.06714,0 1.75613,0.69934 0.68898,0.69417 0.67862,1.80275 z m -0.44033,-0.44032 q -0.12951,-0.72007 -0.6838,-1.17076 -0.54912,-0.45068 -1.31062,-0.45068 -0.76151,0 -1.31063,0.4455 -0.54911,0.44551 -0.6838,1.17594 z"
         style="font-style:normal;font-variant:normal;font-weight:normal;font-stretch:normal;line-height:0.89999998;font-family:Monospace;-inkscape-font-specification:Monospace;letter-spacing:-0.529167px;fill:#a9a9a9;fill-opacity:1;stroke-width:0.26523301"
         id="path54" />
      <path
         d="m 230.22348,137.70766 v 1.09823 q 0.84957,-0.76669 1.26918,-0.98426 0.42478,-0.22276 0.78222,-0.22276 0.38853,0 0.72007,0.2642 0.33672,0.25901 0.33672,0.3937 0,0.0984 -0.0673,0.16577 -0.0622,0.0622 -0.16059,0.0622 -0.0518,0 -0.0881,-0.0155 -0.0363,-0.0207 -0.13469,-0.11915 -0.18131,-0.18131 -0.316,-0.24866 -0.13469,-0.0673 -0.26419,-0.0673 -0.28492,0 -0.68899,0.22793 -0.39888,0.22794 -1.38832,1.11377 v 2.38295 h 1.92708 q 0.16059,0 0.22793,0.0622 0.0673,0.057 0.0673,0.15541 0,0.0933 -0.0673,0.15541 -0.0673,0.0622 -0.22793,0.0622 h -3.41384 q -0.15541,0 -0.22275,-0.057 -0.0673,-0.0622 -0.0673,-0.15541 0,-0.0881 0.0622,-0.14505 0.0673,-0.0622 0.22793,-0.0622 h 1.05161 v -3.62622 h -0.80295 q -0.15541,0 -0.22275,-0.0622 -0.0674,-0.0622 -0.0674,-0.16059 0,-0.0932 0.0622,-0.15541 0.0673,-0.0622 0.22793,-0.0622 z"
         style="font-style:normal;font-variant:normal;font-weight:normal;font-stretch:normal;line-height:0.89999998;font-family:Monospace;-inkscape-font-specification:Monospace;letter-spacing:-0.529167px;fill:#a9a9a9;fill-opacity:1;stroke-width:0.26523301"
         id="path56" />
      <path
         d="m 236.60486,142.19382 -2.02033,-4.04583 h -0.12951 q -0.1554,0 -0.22275,-0.0622 -0.0673,-0.0622 -0.0673,-0.15541 0,-0.0673 0.0311,-0.11915 0.0363,-0.057 0.0881,-0.0777 0.057,-0.0259 0.17095,-0.0259 h 1.19148 q 0.15541,0 0.22275,0.0622 0.0674,0.0622 0.0674,0.16059 0,0.0933 -0.0674,0.15541 -0.0673,0.0622 -0.22275,0.0622 h -0.58538 l 1.77685,3.56924 1.75095,-3.56924 h -0.58537 q -0.15541,0 -0.22276,-0.0622 -0.0673,-0.0622 -0.0673,-0.16059 0,-0.0932 0.0673,-0.15541 0.0674,-0.0622 0.22276,-0.0622 h 1.18629 q 0.16059,0 0.22793,0.0622 0.0674,0.0622 0.0674,0.16059 0,0.0674 -0.0414,0.12433 -0.0414,0.057 -0.0932,0.0777 -0.0518,0.0155 -0.2901,0.0155 l -2.75593,5.61028 h 0.67862 q 0.15541,0 0.22276,0.057 0.0673,0.0622 0.0673,0.16059 0,0.0932 -0.0673,0.15541 -0.0674,0.0622 -0.22276,0.0622 h -2.50727 q -0.15541,0 -0.22276,-0.0622 -0.0673,-0.057 -0.0673,-0.15541 0,-0.0984 0.0673,-0.16059 0.0673,-0.057 0.22276,-0.057 h 1.36242 z"
         style="font-style:normal;font-variant:normal;font-weight:normal;font-stretch:normal;line-height:0.89999998;font-family:Monospace;-inkscape-font-specification:Monospace;letter-spacing:-0.529167px;fill:#a9a9a9;fill-opacity:1;stroke-width:0.26523301"
         id="path58" />
      <path
         d="m 248.52841,140.37552 h -0.49731 l -1.67324,-3.80753 h -0.0829 v 5.19068 h 0.80295 q 0.15541,0 0.22275,0.0622 0.0674,0.057 0.0674,0.15541 0,0.0933 -0.0674,0.15541 -0.0673,0.0622 -0.22275,0.0622 h -1.6059 q -0.15541,0 -0.22275,-0.0622 -0.0674,-0.0622 -0.0674,-0.15541 0,-0.0984 0.0674,-0.15541 0.0673,-0.0622 0.22275,-0.0622 h 0.3678 v -5.19068 h -0.27455 q -0.15541,0 -0.22276,-0.057 -0.0673,-0.0622 -0.0673,-0.16059 0,-0.0984 0.0673,-0.15541 0.0674,-0.0622 0.22276,-0.0622 h 1.06714 l 1.64734,3.75055 1.62145,-3.75055 h 1.06714 q 0.16059,0 0.22794,0.0622 0.0673,0.057 0.0673,0.15541 0,0.0984 -0.0673,0.16059 -0.0674,0.057 -0.22794,0.057 h -0.26937 v 5.19068 h 0.36262 q 0.16059,0 0.22793,0.0622 0.0673,0.057 0.0673,0.15541 0,0.0933 -0.0673,0.15541 -0.0673,0.0622 -0.22793,0.0622 h -1.60072 q -0.15541,0 -0.22794,-0.0622 -0.0673,-0.0622 -0.0673,-0.15541 0,-0.0984 0.0673,-0.15541 0.0673,-0.0622 0.22794,-0.0622 h 0.80295 v -5.19068 h -0.0933 z"
         style="font-style:normal;font-variant:normal;font-weight:normal;font-stretch:normal;line-height:0.89999998;font-family:Monospace;-inkscape-font-specification:Monospace;letter-spacing:-0.529167px;fill:#a9a9a9;fill-opacity:1;stroke-width:0.26523301"
         id="path60" />
      <path
         d="m 254.28816,135.47494 v 1.12413 h -0.64236 v -1.12413 z m 0.0155,2.23272 v 4.05101 h 1.70951 q 0.16059,0 0.22793,0.0622 0.0674,0.057 0.0674,0.15541 0,0.0933 -0.0674,0.15541 -0.0673,0.0622 -0.22793,0.0622 h -3.85416 q -0.15541,0 -0.22276,-0.0622 -0.0673,-0.0622 -0.0673,-0.15541 0,-0.0984 0.0673,-0.15541 0.0673,-0.0622 0.22276,-0.0622 h 1.7095 v -3.61068 h -1.26917 q -0.15541,0 -0.22794,-0.0622 -0.0673,-0.0622 -0.0673,-0.15541 0,-0.0984 0.0673,-0.16059 0.0674,-0.0622 0.22794,-0.0622 z"
         style="font-style:normal;font-variant:normal;font-weight:normal;font-stretch:normal;line-height:0.89999998;font-family:Monospace;-inkscape-font-specification:Monospace;letter-spacing:-0.529167px;fill:#a9a9a9;fill-opacity:1;stroke-width:0.26523301"
         id="path62" />
      <path
         d="m 258.49898,137.70766 v 0.6579 q 0.45587,-0.46105 0.82367,-0.63718 0.3678,-0.17613 0.82885,-0.17613 0.49731,0 0.90656,0.21239 0.2901,0.15541 0.52321,0.51803 0.2383,0.35745 0.2383,0.73561 v 2.74039 h 0.3678 q 0.15541,0 0.22275,0.0622 0.0673,0.057 0.0673,0.15541 0,0.0933 -0.0673,0.15541 -0.0673,0.0622 -0.22275,0.0622 h -1.16557 q -0.16059,0 -0.22794,-0.0622 -0.0673,-0.0622 -0.0673,-0.15541 0,-0.0984 0.0673,-0.15541 0.0674,-0.0622 0.22794,-0.0622 h 0.36262 v -2.66787 q 0,-0.46104 -0.33672,-0.77704 -0.33672,-0.32118 -0.90138,-0.32118 -0.42996,0 -0.74596,0.17613 -0.316,0.17095 -0.90138,0.85993 v 2.73003 h 0.49213 q 0.15541,0 0.22275,0.0622 0.0673,0.057 0.0673,0.15541 0,0.0933 -0.0673,0.15541 -0.0673,0.0622 -0.22275,0.0622 h -1.41941 q -0.15541,0 -0.22275,-0.0622 -0.0673,-0.0622 -0.0673,-0.15541 0,-0.0984 0.0673,-0.15541 0.0673,-0.0622 0.22275,-0.0622 h 0.49213 v -3.61068 h -0.3678 q -0.15541,0 -0.22275,-0.0622 -0.0673,-0.0622 -0.0673,-0.16059 0,-0.0932 0.0673,-0.15541 0.0673,-0.0622 0.22275,-0.0622 z"
         style="font-style:normal;font-variant:normal;font-weight:normal;font-stretch:normal;line-height:0.89999998;font-family:Monospace;-inkscape-font-specification:Monospace;letter-spacing:-0.529167px;fill:#a9a9a9;fill-opacity:1;stroke-width:0.26523301"
         id="path64" />
      <path
         d="m 268.09217,140.05434 h -4.43436 q 0.11397,0.8444 0.70453,1.36243 0.59573,0.51285 1.47121,0.51285 0.48695,0 1.02052,-0.16059 0.53358,-0.16059 0.8703,-0.42479 0.0984,-0.0777 0.17095,-0.0777 0.0829,0 0.14505,0.0673 0.0622,0.0622 0.0622,0.15023 0,0.0881 -0.0829,0.17095 -0.24866,0.25902 -0.88584,0.48695 -0.632,0.22276 -1.30026,0.22276 -1.11895,0 -1.8701,-0.73043 -0.74596,-0.7356 -0.74596,-1.77685 0,-0.948 0.69934,-1.62662 0.70452,-0.67862 1.74059,-0.67862 1.06714,0 1.75613,0.69934 0.68898,0.69417 0.67862,1.80275 z m -0.44033,-0.44032 q -0.12951,-0.72007 -0.6838,-1.17076 -0.54911,-0.45068 -1.31062,-0.45068 -0.76151,0 -1.31062,0.4455 -0.54912,0.44551 -0.68381,1.17594 z"
         style="font-style:normal;font-variant:normal;font-weight:normal;font-stretch:normal;line-height:0.89999998;font-family:Monospace;-inkscape-font-specification:Monospace;letter-spacing:-0.529167px;fill:#a9a9a9;fill-opacity:1;stroke-width:0.26523301"
         id="path66" />
      <path
         d="m 273.38568,138.14799 v -0.14505 q 0,-0.16059 0.0622,-0.22794 0.0622,-0.0673 0.15541,-0.0673 0.0984,0 0.16059,0.0673 0.0622,0.0674 0.0622,0.22794 v 0.98426 q -0.005,0.16059 -0.0673,0.22793 -0.057,0.0674 -0.15541,0.0674 -0.0881,0 -0.15023,-0.057 -0.057,-0.0622 -0.0673,-0.20203 -0.0311,-0.3678 -0.48695,-0.69934 -0.45069,-0.33154 -1.21738,-0.33154 -0.96872,0 -1.47121,0.60609 -0.50249,0.6061 -0.50249,1.38833 0,0.84439 0.55429,1.39351 0.5543,0.54911 1.43495,0.54911 0.50767,0 1.03089,-0.18649 0.52839,-0.18649 0.95317,-0.60092 0.10879,-0.1036 0.19168,-0.1036 0.0881,0 0.14505,0.0622 0.0622,0.057 0.0622,0.14505 0,0.22275 -0.52321,0.56465 -0.8444,0.5543 -1.88046,0.5543 -1.05161,0 -1.73023,-0.66826 -0.67344,-0.67345 -0.67344,-1.70433 0,-1.05161 0.68898,-1.74577 0.69417,-0.69416 1.74577,-0.69416 0.9998,0 1.67843,0.59574 z"
         style="font-style:normal;font-variant:normal;font-weight:normal;font-stretch:normal;line-height:0.89999998;font-family:Monospace;-inkscape-font-specification:Monospace;letter-spacing:-0.529167px;fill:#a9a9a9;fill-opacity:1;stroke-width:0.26523301"
         id="path68" />
      <path
         d="m 276.88163,137.70766 v 1.09823 q 0.84957,-0.76669 1.26918,-0.98426 0.42478,-0.22276 0.78222,-0.22276 0.38853,0 0.72007,0.2642 0.33672,0.25901 0.33672,0.3937 0,0.0984 -0.0673,0.16577 -0.0622,0.0622 -0.16059,0.0622 -0.0518,0 -0.0881,-0.0155 -0.0363,-0.0207 -0.13469,-0.11915 -0.18131,-0.18131 -0.316,-0.24866 -0.13469,-0.0673 -0.26419,-0.0673 -0.28492,0 -0.68899,0.22793 -0.39888,0.22794 -1.38832,1.11377 v 2.38295 h 1.92708 q 0.16059,0 0.22793,0.0622 0.0673,0.057 0.0673,0.15541 0,0.0933 -0.0673,0.15541 -0.0673,0.0622 -0.22793,0.0622 h -3.41384 q -0.15541,0 -0.22275,-0.057 -0.0673,-0.0622 -0.0673,-0.15541 0,-0.0881 0.0622,-0.14505 0.0673,-0.0622 0.22793,-0.0622 h 1.05161 v -3.62622 h -0.80295 q -0.15541,0 -0.22275,-0.0622 -0.0673,-0.0622 -0.0673,-0.16059 0,-0.0932 0.0622,-0.15541 0.0673,-0.0622 0.22793,-0.0622 z"
         style="font-style:normal;font-variant:normal;font-weight:normal;font-stretch:normal;line-height:0.89999998;font-family:Monospace;-inkscape-font-specification:Monospace;letter-spacing:-0.529167px;fill:#a9a9a9;fill-opacity:1;stroke-width:0.26523301"
         id="path70" />
      <path
         d="M 284.48556,142.19382 V 141.567 q -0.948,0.79777 -2.02551,0.79777 -0.78223,0 -1.22256,-0.39371 -0.44032,-0.39888 -0.44032,-0.9739 0,-0.632 0.58019,-1.10341 0.5802,-0.47141 1.69397,-0.47141 0.30046,0 0.65272,0.0414 0.35226,0.0363 0.76151,0.11914 v -0.70452 q 0,-0.35744 -0.33154,-0.62164 -0.33154,-0.26419 -0.99463,-0.26419 -0.50767,0 -1.42458,0.29527 -0.16577,0.0518 -0.2124,0.0518 -0.0829,0 -0.14505,-0.0622 -0.057,-0.0622 -0.057,-0.15541 0,-0.0881 0.0518,-0.13986 0.0725,-0.0777 0.58538,-0.2124 0.80813,-0.21757 1.22256,-0.21757 0.82367,0 1.28472,0.40924 0.46104,0.40407 0.46104,0.91692 v 2.88026 h 0.5802 q 0.16059,0 0.22793,0.0622 0.0673,0.057 0.0673,0.15541 0,0.0933 -0.0673,0.15541 -0.0673,0.0622 -0.22793,0.0622 z m 0,-2.16538 q -0.30564,-0.0881 -0.64754,-0.12951 -0.3419,-0.0414 -0.72007,-0.0414 -0.948,0 -1.48157,0.40925 -0.40407,0.30564 -0.40407,0.73042 0,0.39371 0.30564,0.66308 0.31082,0.26938 0.90138,0.26938 0.56465,0 1.04642,-0.22275 0.48695,-0.22794 0.99981,-0.72007 z"
         style="font-style:normal;font-variant:normal;font-weight:normal;font-stretch:normal;line-height:0.89999998;font-family:Monospace;-inkscape-font-specification:Monospace;letter-spacing:-0.529167px;fill:#a9a9a9;fill-opacity:1;stroke-width:0.26523301"
         id="path72" />
      <path
         d="m 288.77928,138.14799 v 3.61068 h 1.91154 q 0.1554,0 0.22275,0.0622 0.0673,0.057 0.0673,0.15541 0,0.0933 -0.0673,0.15541 -0.0673,0.0622 -0.22275,0.0622 h -3.40348 q -0.15541,0 -0.22275,-0.0622 -0.0673,-0.0622 -0.0673,-0.15541 0,-0.0984 0.0673,-0.15541 0.0673,-0.0622 0.22275,-0.0622 h 1.05161 v -3.61068 h -0.94282 q -0.15541,0 -0.22275,-0.0622 -0.0674,-0.0622 -0.0674,-0.16059 0,-0.0932 0.0674,-0.15541 0.0673,-0.0622 0.22275,-0.0622 h 0.94282 v -0.6579 q 0,-0.54912 0.44551,-0.95318 0.4455,-0.40407 1.18111,-0.40407 0.61646,0 1.3158,0.11397 0.2642,0.0414 0.316,0.0984 0.057,0.057 0.057,0.15023 0,0.0932 -0.0622,0.15541 -0.0622,0.057 -0.16577,0.057 -0.0414,0 -0.13987,-0.0155 -0.78223,-0.11915 -1.32098,-0.11915 -0.56984,0 -0.88065,0.27974 -0.30564,0.27974 -0.30564,0.63718 v 0.6579 h 2.03586 q 0.15541,0 0.22276,0.0622 0.0673,0.0622 0.0673,0.16059 0,0.0933 -0.0673,0.15541 -0.0673,0.0622 -0.22276,0.0622 z"
         style="font-style:normal;font-variant:normal;font-weight:normal;font-stretch:normal;line-height:0.89999998;font-family:Monospace;-inkscape-font-specification:Monospace;letter-spacing:-0.529167px;fill:#a9a9a9;fill-opacity:1;stroke-width:0.26523301"
         id="path74" />
      <path
         d="m 294.00544,137.70766 h 2.36223 q 0.15541,0 0.22275,0.0622 0.0673,0.0622 0.0673,0.16059 0,0.0933 -0.0673,0.15541 -0.0673,0.0622 -0.22275,0.0622 h -2.36223 v 2.8958 q 0,0.37816 0.30046,0.63199 0.30564,0.25384 0.89101,0.25384 0.44033,0 0.95318,-0.12951 0.51285,-0.13469 0.79777,-0.30046 0.10361,-0.0673 0.17095,-0.0673 0.0829,0 0.14505,0.0673 0.0622,0.0622 0.0622,0.15023 0,0.0777 -0.0673,0.14505 -0.16577,0.17095 -0.80813,0.37299 -0.63718,0.19685 -1.22256,0.19685 -0.7615,0 -1.21219,-0.35744 -0.45069,-0.35745 -0.45069,-0.96354 v -2.8958 h -0.80295 q -0.15541,0 -0.22275,-0.0622 -0.0673,-0.0622 -0.0673,-0.16059 0,-0.0932 0.0673,-0.15541 0.0673,-0.0622 0.22275,-0.0622 h 0.80295 v -1.28472 q 0,-0.15541 0.0622,-0.22276 0.0622,-0.0673 0.1554,-0.0673 0.0984,0 0.16059,0.0673 0.0622,0.0674 0.0622,0.22276 z"
         style="font-style:normal;font-variant:normal;font-weight:normal;font-stretch:normal;line-height:0.89999998;font-family:Monospace;-inkscape-font-specification:Monospace;letter-spacing:-0.529167px;fill:#a9a9a9;fill-opacity:1;stroke-width:0.26523301"
         id="path76" />
      <path
         d="m 308.12027,136.56799 v -0.14505 q 0,-0.15541 0.057,-0.22276 0.0622,-0.0673 0.16059,-0.0673 0.0984,0 0.15541,0.0673 0.0622,0.0674 0.0622,0.22276 v 1.10859 q 0,0.15541 -0.0622,0.22275 -0.057,0.0674 -0.15541,0.0674 -0.0933,0 -0.15541,-0.0622 -0.057,-0.0622 -0.0622,-0.20203 -0.0259,-0.43515 -0.45069,-0.78223 -0.41961,-0.34708 -1.10341,-0.34708 -0.72006,0 -1.14485,0.37298 -0.42479,0.3678 -0.42479,0.8703 0,0.25901 0.11915,0.47141 0.11915,0.21239 0.316,0.34708 0.19685,0.1295 0.44551,0.21239 0.24865,0.0777 0.77705,0.16577 0.88583,0.14505 1.22255,0.29528 0.45069,0.20203 0.67862,0.55947 0.23312,0.35745 0.23312,0.8444 0,0.74596 -0.59574,1.27436 -0.59574,0.52321 -1.6059,0.52321 -1.13449,0 -1.81311,-0.70971 v 0.24866 q 0,0.15541 -0.0622,0.22275 -0.057,0.0673 -0.1554,0.0673 -0.0933,0 -0.15541,-0.0673 -0.0622,-0.0673 -0.0622,-0.22275 v -1.20184 q 0,-0.16059 0.057,-0.22793 0.0622,-0.0673 0.16059,-0.0673 0.0932,0 0.15022,0.0622 0.0622,0.0622 0.0673,0.20203 0.0259,0.47659 0.50767,0.8703 0.48695,0.38852 1.30544,0.38852 0.81849,0 1.2899,-0.40924 0.47659,-0.40925 0.47659,-0.96872 0,-0.34191 -0.18131,-0.6061 -0.18131,-0.26938 -0.53875,-0.42479 -0.24866,-0.10879 -1.03607,-0.24347 -1.08269,-0.18132 -1.55928,-0.5543 -0.47658,-0.37298 -0.47658,-1.06196 0,-0.68381 0.54393,-1.17594 0.54911,-0.49213 1.44531,-0.49213 0.91174,0 1.56964,0.57502 z"
         style="font-style:normal;font-variant:normal;font-weight:normal;font-stretch:normal;line-height:0.89999998;font-family:Monospace;-inkscape-font-specification:Monospace;letter-spacing:-0.529167px;fill:#a9a9a9;fill-opacity:1;stroke-width:0.26523301"
         id="path78" />
      <path
         d="m 314.75031,140.05434 h -4.43435 q 0.11396,0.8444 0.70452,1.36243 0.59574,0.51285 1.47121,0.51285 0.48695,0 1.02052,-0.16059 0.53358,-0.16059 0.8703,-0.42479 0.0984,-0.0777 0.17095,-0.0777 0.0829,0 0.14505,0.0673 0.0622,0.0622 0.0622,0.15023 0,0.0881 -0.0829,0.17095 -0.24866,0.25902 -0.88584,0.48695 -0.632,0.22276 -1.30026,0.22276 -1.11895,0 -1.8701,-0.73043 -0.74596,-0.7356 -0.74596,-1.77685 0,-0.948 0.69934,-1.62662 0.70453,-0.67862 1.74059,-0.67862 1.06715,0 1.75613,0.69934 0.68898,0.69417 0.67862,1.80275 z m -0.44033,-0.44032 q -0.1295,-0.72007 -0.6838,-1.17076 -0.54911,-0.45068 -1.31062,-0.45068 -0.76151,0 -1.31062,0.4455 -0.54912,0.44551 -0.6838,1.17594 z"
         style="font-style:normal;font-variant:normal;font-weight:normal;font-stretch:normal;line-height:0.89999998;font-family:Monospace;-inkscape-font-specification:Monospace;letter-spacing:-0.529167px;fill:#a9a9a9;fill-opacity:1;stroke-width:0.26523301"
         id="path80" />
      <path
         d="m 317.70751,137.70766 v 1.09823 q 0.84957,-0.76669 1.26918,-0.98426 0.42478,-0.22276 0.78223,-0.22276 0.38852,0 0.72006,0.2642 0.33672,0.25901 0.33672,0.3937 0,0.0984 -0.0673,0.16577 -0.0622,0.0622 -0.16059,0.0622 -0.0518,0 -0.0881,-0.0155 -0.0363,-0.0207 -0.13469,-0.11915 -0.18131,-0.18131 -0.316,-0.24866 -0.13468,-0.0673 -0.26419,-0.0673 -0.28492,0 -0.68899,0.22793 -0.39888,0.22794 -1.38832,1.11377 v 2.38295 h 1.92708 q 0.16059,0 0.22793,0.0622 0.0673,0.057 0.0673,0.15541 0,0.0933 -0.0673,0.15541 -0.0673,0.0622 -0.22793,0.0622 h -3.41383 q -0.15541,0 -0.22276,-0.057 -0.0673,-0.0622 -0.0673,-0.15541 0,-0.0881 0.0622,-0.14505 0.0674,-0.0622 0.22794,-0.0622 h 1.0516 v -3.62622 h -0.80295 q -0.15541,0 -0.22275,-0.0622 -0.0674,-0.0622 -0.0674,-0.16059 0,-0.0932 0.0622,-0.15541 0.0673,-0.0622 0.22793,-0.0622 z"
         style="font-style:normal;font-variant:normal;font-weight:normal;font-stretch:normal;line-height:0.89999998;font-family:Monospace;-inkscape-font-specification:Monospace;letter-spacing:-0.529167px;fill:#a9a9a9;fill-opacity:1;stroke-width:0.26523301"
         id="path82" />
      <path
         d="m 324.44114,142.19382 h -0.7356 l -1.78721,-4.04583 h -0.44551 q -0.15541,0 -0.22275,-0.0622 -0.0673,-0.0622 -0.0673,-0.16059 0,-0.0932 0.0673,-0.15541 0.0673,-0.0622 0.22275,-0.0622 h 1.6318 q 0.15541,0 0.22276,0.0622 0.0673,0.0622 0.0673,0.16059 0,0.0933 -0.0673,0.15541 -0.0674,0.0622 -0.22276,0.0622 h -0.72006 l 1.59554,3.61068 h 0.19167 l 1.56445,-3.61068 h -0.72524 q -0.15541,0 -0.22275,-0.0622 -0.0673,-0.0622 -0.0673,-0.16059 0,-0.0932 0.0673,-0.15541 0.0673,-0.0622 0.22275,-0.0622 h 1.63698 q 0.16059,0 0.22276,0.0622 0.0673,0.0622 0.0673,0.16059 0,0.0933 -0.0673,0.15541 -0.0622,0.0622 -0.22276,0.0622 h -0.44033 z"
         style="font-style:normal;font-variant:normal;font-weight:normal;font-stretch:normal;line-height:0.89999998;font-family:Monospace;-inkscape-font-specification:Monospace;letter-spacing:-0.529167px;fill:#a9a9a9;fill-opacity:1;stroke-width:0.26523301"
         id="path84" />
      <path
         d="m 332.24712,140.05434 h -4.43435 q 0.11396,0.8444 0.70452,1.36243 0.59574,0.51285 1.47121,0.51285 0.48695,0 1.02053,-0.16059 0.53357,-0.16059 0.87029,-0.42479 0.0984,-0.0777 0.17095,-0.0777 0.0829,0 0.14505,0.0673 0.0622,0.0622 0.0622,0.15023 0,0.0881 -0.0829,0.17095 -0.24866,0.25902 -0.88584,0.48695 -0.632,0.22276 -1.30026,0.22276 -1.11895,0 -1.87009,-0.73043 -0.74597,-0.7356 -0.74597,-1.77685 0,-0.948 0.69934,-1.62662 0.70453,-0.67862 1.74059,-0.67862 1.06715,0 1.75613,0.69934 0.68898,0.69417 0.67862,1.80275 z m -0.44032,-0.44032 q -0.12951,-0.72007 -0.68381,-1.17076 -0.54911,-0.45068 -1.31062,-0.45068 -0.76151,0 -1.31062,0.4455 -0.54911,0.44551 -0.6838,1.17594 z"
         style="font-style:normal;font-variant:normal;font-weight:normal;font-stretch:normal;line-height:0.89999998;font-family:Monospace;-inkscape-font-specification:Monospace;letter-spacing:-0.529167px;fill:#a9a9a9;fill-opacity:1;stroke-width:0.26523301"
         id="path86" />
      <path
         d="m 335.2043,137.70766 v 1.09823 q 0.84958,-0.76669 1.26918,-0.98426 0.42479,-0.22276 0.78223,-0.22276 0.38853,0 0.72007,0.2642 0.33672,0.25901 0.33672,0.3937 0,0.0984 -0.0673,0.16577 -0.0622,0.0622 -0.16059,0.0622 -0.0518,0 -0.0881,-0.0155 -0.0363,-0.0207 -0.13469,-0.11915 -0.18131,-0.18131 -0.316,-0.24866 -0.13469,-0.0673 -0.2642,-0.0673 -0.28491,0 -0.68898,0.22793 -0.39888,0.22794 -1.38833,1.11377 v 2.38295 h 1.92708 q 0.16059,0 0.22794,0.0622 0.0673,0.057 0.0673,0.15541 0,0.0933 -0.0673,0.15541 -0.0674,0.0622 -0.22794,0.0622 h -3.41383 q -0.15541,0 -0.22275,-0.057 -0.0673,-0.0622 -0.0673,-0.15541 0,-0.0881 0.0622,-0.14505 0.0673,-0.0622 0.22793,-0.0622 h 1.05161 v -3.62622 h -0.80295 q -0.15541,0 -0.22276,-0.0622 -0.0673,-0.0622 -0.0673,-0.16059 0,-0.0932 0.0622,-0.15541 0.0673,-0.0622 0.22794,-0.0622 z"
         style="font-style:normal;font-variant:normal;font-weight:normal;font-stretch:normal;line-height:0.89999998;font-family:Monospace;-inkscape-font-specification:Monospace;letter-spacing:-0.529167px;fill:#a9a9a9;fill-opacity:1;stroke-width:0.26523301"
         id="path88" />
    </g>
    <g
       id="g2"
       transform="translate(18.297335,158.60334)"
       style="fill:#ffffff" />
  </g>
</svg>
