<svg width="587" height="77" viewBox="0 0 587 77" fill="none" xmlns="http://www.w3.org/2000/svg">
<rect x="426.879" y="8.5" width="159" height="59" rx="9.5" fill="#2D2D2D"/>
<rect x="426.879" y="8.5" width="159" height="59" rx="9.5" stroke="#1D1D1D"/>
<path d="M490.019 54V24.36H508.179V29.32H495.939V36.16H506.299V41.12H495.939V49.04H508.619V54H490.019ZM511.588 54L519.868 38.76L512.028 24.36H518.628L521.588 30.52C521.935 31.1867 522.282 31.9067 522.628 32.68C522.975 33.4267 523.362 34.2533 523.788 35.16H523.948C524.322 34.2533 524.668 33.4267 524.988 32.68C525.308 31.9067 525.628 31.1867 525.948 30.52L528.748 24.36H534.988L527.188 39L535.508 54H528.948L525.628 47.44C525.282 46.6933 524.908 45.92 524.508 45.12C524.135 44.32 523.735 43.4667 523.308 42.56H523.148C522.775 43.4667 522.415 44.32 522.068 45.12C521.722 45.92 521.362 46.6933 520.988 47.44L517.828 54H511.588ZM544.454 54V29.32H536.134V24.36H558.734V29.32H550.374V54H544.454Z" fill="white"/>
<path d="M476.379 42.75V24H482.379V54H476.379L460.379 24H466.379L476.379 42.75Z" fill="white"/>
<path d="M460.816 39L452.379 24H458.004L466.441 39L458.004 54H452.379L460.816 39Z" fill="#86EFAC"/>
<path d="M31.8182 27.0909C31.5758 24.197 30.3939 21.8561 28.2727 20.0682C26.1667 18.2803 23.4394 17.3864 20.0909 17.3864C17.8333 17.3864 15.8258 17.803 14.0682 18.6364C12.3106 19.4697 10.9318 20.6061 9.93182 22.0455C8.93182 23.4848 8.43182 25.1364 8.43182 27C8.43182 28.197 8.65909 29.2803 9.11364 30.25C9.58333 31.2045 10.2424 32.0606 11.0909 32.8182C11.9394 33.5606 12.947 34.2121 14.1136 34.7727C15.2803 35.3333 16.5682 35.8258 17.9773 36.25L23.0682 37.75C24.8106 38.2803 26.4167 38.8939 27.8864 39.5909C29.3712 40.2879 30.6591 41.1212 31.75 42.0909C32.8561 43.0455 33.7121 44.1667 34.3182 45.4545C34.9394 46.7424 35.25 48.2273 35.25 49.9091C35.25 52.3636 34.6136 54.5606 33.3409 56.5C32.0833 58.4394 30.2879 59.9697 27.9545 61.0909C25.6364 62.197 22.9015 62.75 19.75 62.75C16.75 62.75 14.1364 62.2424 11.9091 61.2273C9.69697 60.2121 7.94697 58.803 6.65909 57C5.37121 55.1818 4.64394 53.0909 4.47727 50.7273H7.38636C7.53788 52.6515 8.15152 54.3182 9.22727 55.7273C10.3182 57.1212 11.7652 58.197 13.5682 58.9545C15.3712 59.7121 17.4318 60.0909 19.75 60.0909C22.25 60.0909 24.4545 59.6667 26.3636 58.8182C28.2727 57.9545 29.7652 56.7576 30.8409 55.2273C31.9167 53.697 32.4545 51.9167 32.4545 49.8864C32.4545 48.25 32.0682 46.8485 31.2955 45.6818C30.5227 44.5152 29.3788 43.5076 27.8636 42.6591C26.3636 41.8106 24.5 41.053 22.2727 40.3864L16.8409 38.75C13.2045 37.6439 10.4242 36.1364 8.5 34.2273C6.59091 32.3182 5.63636 29.9394 5.63636 27.0909C5.63636 24.697 6.27273 22.5758 7.54545 20.7273C8.81818 18.8636 10.5455 17.4015 12.7273 16.3409C14.9242 15.2803 17.4015 14.75 20.1591 14.75C22.9318 14.75 25.3788 15.2879 27.5 16.3636C29.6212 17.4242 31.303 18.8864 32.5455 20.75C33.7879 22.5985 34.4773 24.7121 34.6136 27.0909H31.8182ZM72.0773 62V15.4545H74.9182V37.3864H102.964V15.4545H105.805V62H102.964V40.0227H74.9182V62H72.0773ZM144.865 62V15.4545H159.978C162.797 15.4545 165.175 15.9545 167.115 16.9545C169.054 17.9545 170.524 19.3561 171.524 21.1591C172.539 22.9621 173.047 25.0606 173.047 27.4545C173.047 29.3333 172.744 31 172.137 32.4545C171.531 33.9091 170.683 35.1136 169.592 36.0682C168.516 37.0076 167.251 37.6591 165.797 38.0227V38.2955C167.403 38.4167 168.895 38.9773 170.274 39.9773C171.653 40.9621 172.759 42.303 173.592 44C174.441 45.697 174.865 47.6742 174.865 49.9318C174.865 52.3106 174.35 54.4091 173.319 56.2273C172.304 58.0303 170.781 59.447 168.751 60.4773C166.721 61.4924 164.206 62 161.206 62H144.865ZM147.706 59.3636H161.206C164.706 59.3636 167.395 58.4848 169.274 56.7273C171.168 54.9697 172.115 52.7045 172.115 49.9318C172.115 47.9773 171.653 46.2273 170.728 44.6818C169.819 43.1364 168.554 41.9167 166.933 41.0227C165.312 40.1136 163.433 39.6591 161.297 39.6591H147.706V59.3636ZM147.706 37.0682H160.956C162.941 37.0682 164.622 36.6364 166.001 35.7727C167.395 34.9091 168.456 33.75 169.183 32.2955C169.925 30.8409 170.297 29.2273 170.297 27.4545C170.297 24.5758 169.403 22.2955 167.615 20.6136C165.827 18.9318 163.281 18.0909 159.978 18.0909H147.706V37.0682ZM211.652 62V15.4545H214.493V59.3636H237.22V62H211.652ZM308.462 38.7273C308.462 43.5303 307.629 47.7273 305.962 51.3182C304.296 54.8939 301.978 57.6742 299.008 59.6591C296.053 61.6439 292.644 62.6364 288.781 62.6364C284.902 62.6364 281.478 61.6439 278.508 59.6591C275.553 57.6591 273.243 54.8712 271.576 51.2955C269.909 47.7045 269.076 43.5152 269.076 38.7273C269.076 33.9242 269.909 29.7348 271.576 26.1591C273.258 22.5833 275.576 19.803 278.531 17.8182C281.485 15.8182 284.902 14.8182 288.781 14.8182C292.644 14.8182 296.053 15.8106 299.008 17.7955C301.978 19.7803 304.296 22.5682 305.962 26.1591C307.629 29.7348 308.462 33.9242 308.462 38.7273ZM305.69 38.7273C305.69 34.4091 304.962 30.6667 303.508 27.5C302.069 24.3333 300.076 21.8864 297.531 20.1591C294.985 18.4167 292.069 17.5455 288.781 17.5455C285.493 17.5455 282.576 18.4091 280.031 20.1364C277.485 21.8485 275.485 24.2955 274.031 27.4773C272.591 30.6439 271.872 34.3939 271.872 38.7273C271.872 43.0152 272.584 46.75 274.008 49.9318C275.447 53.0985 277.44 55.553 279.985 57.2955C282.531 59.0379 285.462 59.9091 288.781 59.9091C292.069 59.9091 294.985 59.0455 297.531 57.3182C300.076 55.5758 302.069 53.1212 303.508 49.9545C304.962 46.7879 305.69 43.0455 305.69 38.7273ZM377.778 30C377.43 28.4242 376.839 26.9015 376.006 25.4318C375.172 23.947 374.104 22.6136 372.801 21.4318C371.513 20.2348 369.998 19.2879 368.256 18.5909C366.528 17.8939 364.589 17.5455 362.438 17.5455C359.15 17.5455 356.233 18.4091 353.688 20.1364C351.157 21.8485 349.172 24.2955 347.733 27.4773C346.309 30.6439 345.597 34.3939 345.597 38.7273C345.597 43.0152 346.309 46.75 347.733 49.9318C349.157 53.1136 351.15 55.5758 353.71 57.3182C356.286 59.0455 359.278 59.9091 362.688 59.9091C365.733 59.9091 368.43 59.2045 370.778 57.7955C373.142 56.3864 374.983 54.3712 376.301 51.75C377.619 49.1288 378.263 45.9924 378.233 42.3409L379.233 42.8182H363.415V40.1818H381.006V42.8182C381.006 46.9242 380.218 50.4621 378.642 53.4318C377.081 56.3864 374.915 58.6591 372.142 60.25C369.384 61.8409 366.233 62.6364 362.688 62.6364C358.688 62.6364 355.195 61.6439 352.21 59.6591C349.225 57.6742 346.907 54.8939 345.256 51.3182C343.619 47.7273 342.801 43.5303 342.801 38.7273C342.801 35.1212 343.271 31.8485 344.21 28.9091C345.15 25.9697 346.491 23.4545 348.233 21.3636C349.975 19.2576 352.051 17.6439 354.46 16.5227C356.869 15.3864 359.528 14.8182 362.438 14.8182C365.074 14.8182 367.445 15.2576 369.551 16.1364C371.657 17 373.475 18.1667 375.006 19.6364C376.551 21.0909 377.801 22.7197 378.756 24.5227C379.71 26.3106 380.354 28.1364 380.688 30H377.778Z" fill="white"/>
</svg>
