<?xml version="1.0" encoding="UTF-8" standalone="no"?>
<!-- Created with Inkscape (http://www.inkscape.org/) -->

<svg
   width="105.96563mm"
   height="85.504341mm"
   viewBox="0 0 105.96563 85.504341"
   version="1.1"
   id="svg1"
   xml:space="preserve"
   inkscape:version="1.4 (86a8ad7, 2024-10-11)"
   sodipodi:docname="micropedia_logo.svg"
   xmlns:inkscape="http://www.inkscape.org/namespaces/inkscape"
   xmlns:sodipodi="http://sodipodi.sourceforge.net/DTD/sodipodi-0.dtd"
   xmlns="http://www.w3.org/2000/svg"
   xmlns:svg="http://www.w3.org/2000/svg"><sodipodi:namedview
     id="namedview1"
     pagecolor="#ffffff"
     bordercolor="#000000"
     borderopacity="0.25"
     inkscape:showpageshadow="2"
     inkscape:pageopacity="0.0"
     inkscape:pagecheckerboard="0"
     inkscape:deskcolor="#d1d1d1"
     inkscape:document-units="mm"
     inkscape:zoom="1.4378367"
     inkscape:cx="145.705"
     inkscape:cy="197.8667"
     inkscape:window-width="1920"
     inkscape:window-height="1009"
     inkscape:window-x="-8"
     inkscape:window-y="-8"
     inkscape:window-maximized="1"
     inkscape:current-layer="layer1" /><defs
     id="defs1" /><g
     inkscape:label="圖層 1"
     inkscape:groupmode="layer"
     id="layer1"
     transform="translate(116.15622,-180.82204)"><path
       id="path3"
       style="fill:#201972;stroke-width:0.273284;fill-opacity:1"
       d="m -102.53586,180.82204 -2.21279,0.55914 -2.21278,0.55965 -1.6614,0.92914 -1.66139,0.92915 -1.58699,1.60197 -1.5875,1.60248 -0.94568,1.79989 -0.94619,1.79989 -0.39894,1.69241 -0.39895,1.6924 -0.004,1.86293 -0.004,1.86242 0.40256,1.57717 0.40256,1.57665 0.8077,1.65984 0.80771,1.65985 1.50171,1.62522 1.50172,1.62471 1.32292,0.83664 1.32291,0.83716 1.19063,0.46974 1.19062,0.46974 1.5875,0.36535 1.5875,0.36484 2.1084,-0.13901 2.108918,-0.1385 1.828312,-0.63613 1.828829,-0.63614 1.443839,-0.9586 1.44384,-0.9586 1.294495,-1.35702 1.294494,-1.35702 0.923458,-1.75803 0.923975,-1.75804 0.404626,-1.55236 0.40411,-1.55287 v -2.31201 -2.312 l -0.655257,-2.06396 -0.655774,-2.06447 -1.078487,-1.64331 -1.078487,-1.64383 -1.242302,-1.09502 -1.242818,-1.09503 -1.159102,-0.68006 -1.158586,-0.68006 -1.744596,-0.63304 -1.74408,-0.63355 -2.126487,-0.14986 z m 41.148393,0.0692 -0.04444,1.38907 -0.04444,1.38906 -0.10387,-0.99219 -0.103869,-0.99219 h -0.380855 -0.380856 v 0.79375 0.79375 l -0.595312,0.0114 -0.595313,0.0114 -0.595312,0.93328 -0.595313,0.93276 v 0.65887 0.65888 l 0.264584,-0.16382 0.264583,-0.1633 v 1.86759 1.86759 h 0.661458 0.661459 l 0.0041,-2.71198 0.0041,-2.71198 0.256315,-0.39688 0.256832,-0.39687 0.0036,0.46302 0.0041,0.46302 h 1.5875 1.5875 v -1.45521 -1.45521 h -0.380855 -0.380855 l -0.10387,0.99219 -0.10387,0.99219 -0.04444,-1.38906 -0.04444,-1.38907 h -0.529167 z m 2.910416,0 v 0.65785 0.65784 l -0.308508,1.15341 -0.308508,1.15394 0.220658,0.50333 0.221175,0.50384 0.311609,1.12603 0.311609,1.12551 -0.356567,0.29611 -0.356051,0.29559 v 0.77928 0.77928 l 0.731221,-0.5209 0.731222,-0.52038 0.657841,0.53485 0.657841,0.53537 0.08578,-0.71727 0.0863,-0.71727 -0.434082,-0.47956 -0.434082,-0.47955 0.255799,-1.01855 0.255798,-1.01854 0.165881,-1.78593 0.165365,-1.78594 h -0.800985 -0.800984 v -0.52917 -0.52917 h -0.529167 z m 37.570834,0.19844 -0.826823,0.16537 -0.826823,0.16536 h -1.025261 -1.02526 v 0.62477 0.62477 l 0.661458,-0.12609 0.661459,-0.12661 v 0.42788 0.42736 h -0.661459 -0.661458 v 0.66146 0.66146 h 0.661458 0.661459 v 2.64583 2.64584 h 0.661458 0.661458 v -2.64584 -2.64583 h 0.396875 0.396875 v -0.66146 -0.66146 h -0.396875 -0.396875 v -0.36586 -0.36587 l 0.529167,-0.1385 0.529167,-0.13849 v -0.58704 z m -60.060417,0.0661 v 0.79375 0.79375 l -0.727604,0.0387 -0.727604,0.0383 -0.859896,-0.0589 -0.859896,-0.0594 v 2.40192 2.40192 h 1.5875 1.5875 v 1.19062 1.19063 h 0.79375 0.79375 v -1.19063 -1.19062 h 1.719792 1.719791 v -2.38125 -2.38125 h -1.719791 -1.719792 v -0.79375 -0.79375 h -0.79375 z m 10.054167,0 v 0.39687 0.39688 h -1.852084 -1.852083 v 0.66146 0.66145 h 0.6196 0.619601 l 0.336413,1.12448 0.335897,1.12448 0.544153,0.76481 0.543636,0.76481 -0.499194,0.36536 -0.499195,0.36483 -1.000455,0.26975 -1.000456,0.26924 v 0.78858 0.78858 l 0.727604,-0.1664 0.727604,-0.16691 1.427303,-0.6351 1.427303,-0.63511 1.615406,0.63201 1.615405,0.63252 0.727604,0.16949 0.727604,0.1695 v -0.76998 -0.77049 l -0.713135,-0.1788 -0.712618,-0.1788 -0.889351,-0.37156 -0.889351,-0.37155 0.682129,-0.99942 0.681612,-0.99994 0.269234,-0.99219 0.268717,-0.99219 h 0.519349 0.518831 v -0.66145 -0.66146 h -1.852083 -1.852084 v -0.39688 -0.39687 h -0.661458 z m 7.069335,0 -0.351399,0.46302 -0.3514,0.46302 -0.0083,0.74982 -0.0088,0.74983 0.330729,-0.10904 0.330729,-0.10852 0.595313,-0.8785 0.595312,-0.8785 v -0.22531 -0.22582 h -0.565857 z m 9.334831,0 v 4.18941 4.1894 l 0.176217,0.17622 0.176733,0.17622 h 4.0566 4.057117 v -4.36563 -4.36562 h -2.927987 -2.92747 l -0.512113,0.27388 -0.511597,0.27389 v -0.27389 -0.27388 h -0.79375 z m 13.537675,0 -0.09715,0.29145 -0.09663,0.29094 h -1.644861 -1.644861 v 1.03198 1.03146 h 0.661458 0.661459 v -0.52917 -0.52916 h 2.778125 2.778125 v 0.52916 0.52917 h 0.79375 0.79375 v -1.05833 -1.05834 h -1.719792 -1.719792 v -0.26458 -0.26458 h -0.771529 z m 6.306075,0 v 0.66146 0.66145 h 1.5875 1.5875 v 0.33332 0.33331 l -0.529166,0.33073 -0.529167,0.33021 v -0.26665 -0.26717 h -0.661458 -0.661459 v 3.175 3.175 h 3.571875 3.571875 v -3.175 -3.175 h -1.609721 -1.609204 l 0.109038,-0.33072 0.109554,-0.33073 1.897041,-0.0775 1.897042,-0.0775 v -0.65009 -0.65009 h -4.365625 z m 16.66875,0 v 2.77812 2.77813 h -1.322916 -1.322917 v 0.66146 0.66145 h 1.322917 1.322916 v 0.92605 0.92604 h 0.661459 0.661458 v -0.92604 -0.92605 h 0.396875 0.396875 v -0.66145 -0.66146 h -0.396875 -0.396875 v -2.77813 -2.77812 h -0.661458 z m -85.064579,0.27233 h 1.7198 1.719787 l 1.656747,0.39068 1.656229,0.39067 1.544609,0.7798 1.544609,0.77979 1.570446,1.46141 1.570964,1.46141 0.06098,0.80409 0.06149,0.80357 h -0.268717 -0.269235 v -0.80926 -0.80925 l -0.264583,0.1633 -0.264583,0.16381 -5.17e-4,0.44752 -10e-4,0.447 -1.064017,0.061 -1.064018,0.0605 -0.522449,0.27957 -0.521932,0.27905 v -0.30954 -0.30954 l -0.550354,0.6997 -0.550354,0.6997 -0.243396,-0.15038 -0.243396,-0.15038 v -0.23048 -0.23047 l 0.595313,-0.0925 0.595312,-0.092 -0.846977,-0.45527 -0.846459,-0.45578 h -0.80977 -0.809253 l -0.460437,0.56379 -0.460437,0.56327 -0.590145,0.66043 -0.590667,0.66042 0.143149,0.23151 0.142627,0.23099 h 0.381372 0.381372 v 0.4129 0.41238 l -0.264583,-0.16382 -0.264583,-0.1633 v 0.41238 0.41238 h -0.224276 -0.223759 l -0.515729,0.46302 -0.51522,0.46302 0.0971,0.46302 0.0977,0.46302 h -0.58187 -0.58136 l 0.15038,0.75138 0.14986,0.75137 -0.76533,0.83871 -0.76585,0.8382 0.10336,0.81958 0.10387,0.81907 0.45372,0.50127 0.45371,0.50126 1.21543,0.001 1.215952,0.001 0.471289,1.1467 0.471289,1.14619 -0.167948,0.4377 -0.167949,0.43718 0.49041,1.19218 0.490409,1.19269 0.576192,5.1e-4 0.576192,0.001 0.548287,-0.69712 0.548287,-0.69711 v -0.32866 -0.32867 l 0.419096,-0.3483 0.419613,-0.34778 -0.108004,-0.73794 -0.108521,-0.73794 0.747242,-0.71572 0.747241,-0.71571 v -0.28474 -0.28474 l -0.592729,-0.26096 -0.593245,-0.26149 -0.617534,-1.12448 -0.617533,-1.12448 h 0.26665 0.266651 l 0.157613,0.46303 0.157613,0.46302 0.514181,0.61546 0.51418,0.61599 0.535368,-0.17002 0.534851,-0.17002 0.398425,-0.39842 0.398426,-0.39843 v -0.27647 -0.27646 l -0.519349,0.1359 -0.519348,0.13591 -0.312125,-0.3762 -0.312126,-0.37569 0.163814,-0.16381 0.163298,-0.16382 0.365352,0.30334 0.364836,0.30283 0.888834,0.10335 0.888835,0.10387 0.09767,0.29249 0.09715,0.29249 h 0.353984 0.353983 l 0.17415,0.79375 0.174149,0.79375 h 0.243913 0.243396 v -0.25425 -0.25425 l 0.578776,-0.5395 0.579293,-0.5395 h 0.337447 0.337964 l 0.27957,0.52245 0.279052,0.52193 -0.309542,1.264 -0.310058,1.26349 -0.921391,1.85209 -0.920874,1.85208 -1.751314,1.71979 -1.750798,1.71979 -1.776119,0.87178 -1.776119,0.87179 -1.795756,0.38033 -1.796271,0.38034 -1.32292,-0.016 -1.32292,-0.0165 -1.66966,-0.36277 -1.66967,-0.36225 -1.90169,-1.0232 -1.90221,-1.02267 -0.0842,-0.43925 -0.0847,-0.43874 1.04593,-0.9989 1.04541,-0.99891 0.95705,-1.14928 0.95705,-1.1498 -0.14831,-0.23926 -0.1478,-0.23978 h 0.24908 0.2496 l 0.13746,-0.52555 0.13746,-0.52607 -1.0325,-0.27802 -1.03301,-0.27802 v -0.24908 -0.24908 l -0.99219,-0.49712 -0.99218,-0.49661 -0.69712,-0.16744 -0.69711,-0.16743 -0.30799,0.37052 -0.30748,0.37104 -0.14159,0.88367 -0.14211,0.88315 0.70331,1.03249 0.7028,1.0325 -0.18086,1.34875 -0.18139,1.34876 -0.19327,0.35501 -0.19275,0.35554 -1.12758,-1.41387 -1.1281,-1.41335 -0.63613,-1.25212 -0.63614,-1.25264 -0.39481,-1.51515 -0.39481,-1.51515 v -0.3297 -0.32918 l 1.10174,0.38861 1.10175,0.38861 0.35346,0.29352 0.35347,0.29352 v -0.42943 -0.42943 h -0.26458 -0.26459 v -0.3514 -0.35192 l -0.59531,0.0212 -0.59531,0.0207 v -0.66146 -0.66146 h 1.12499 1.125 l -5.2e-4,-0.33899 -5.1e-4,-0.339 0.38033,-0.14573 0.38034,-0.14624 -0.13487,-0.35089 -0.13488,-0.35088 0.54829,-0.17415 0.54829,-0.17415 v -0.25838 -0.25838 l 0.33072,0.0429 0.33073,0.0434 0.39688,-0.0357 0.39687,-0.0357 -0.37982,-0.24029 -0.37982,-0.2403 0.34623,-0.41703 0.34623,-0.41703 h 0.26045 0.26045 l -0.15244,0.39688 -0.15245,0.39687 h 0.41548 0.41548 l -0.66301,-1.12447 -0.66301,-1.12448 -0.48834,-0.0956 -0.48834,-0.0956 -0.21136,-0.36742 -0.21187,-0.36742 h -0.38344 -0.38396 l -0.004,0.72761 -0.004,0.7276 -0.23203,0.36639 -0.23151,0.36587 -0.95498,-0.72812 -0.95446,-0.72812 0.008,-0.29921 0.008,-0.29972 0.36277,-0.47853 0.36328,-0.47904 0.17312,0.2806 0.17311,0.28009 h 0.24909 0.24908 v -0.92604 -0.92604 h 0.34623 0.34623 l 0.4253,0.33073 0.42529,0.33073 0.0884,0.50746 0.0884,0.50694 0.29714,0.0992 0.29714,0.0987 0.14366,-0.55087 0.14417,-0.55087 -1.10225,-1.03404 -1.10278,-1.03405 0.53278,-0.53847 0.53227,-0.53846 0.96635,0.26665 0.96635,0.26716 0.50333,0.85318 0.50333,0.8537 -0.0971,0.84697 -0.0972,0.84646 0.57051,0.57051 0.56999,0.56999 0.30954,-0.62322 0.30955,-0.62321 1.3162,-0.71314 1.31619,-0.71365 -0.0341,-0.21239 -0.0346,-0.21291 0.24753,-0.65112 0.24753,-0.65112 -0.15968,-0.63666 -0.15968,-0.63665 0.47543,-0.5333 0.47594,-0.5333 -0.59635,0.18603 -0.59686,0.18552 -0.1478,-0.38551 -0.14779,-0.3855 -0.77721,-0.15503 -0.7767,-0.15555 -0.61753,0.23461 -0.61702,0.23462 -0.31626,-0.19534 -0.31626,-0.19534 0.70848,-0.32298 0.70797,-0.32246 1.61437,-0.38085 z m 82.683329,0.25683 v 2.38125 2.38125 h 0.396875 0.396875 v -2.38125 -2.38125 h -0.396875 z m 1.322917,0 v 2.40348 2.40347 l 0.330729,-0.10956 0.330729,-0.10955 0.07648,-2.29392 0.07648,-2.29392 h -0.40721 z m -33.866667,0.79375 h 2.78691 2.786393 l -0.07441,2.97657 -0.07493,2.97656 -2.71198,0.0755 -2.711979,0.0754 v -3.05201 z m 5.291667,0.26097 -1.389063,0.10697 -1.389062,0.10749 -1.124479,0.0269 -1.124479,0.0269 v 0.52917 0.52916 h 1.270723 1.270723 l 0.273369,1.33429 0.272851,1.33429 -0.220658,0.13642 -0.221175,0.13694 v 0.64803 0.64802 l 0.529167,-0.33073 0.529166,-0.33021 0.52555,0.32814 0.525549,0.32815 h 0.135909 0.135909 v -0.51367 -0.51314 l -0.251148,-0.15555 -0.251147,-0.15503 0.155546,-1.31568 0.156063,-1.31568 h -0.310059 -0.310058 l -0.239262,0.59531 -0.239262,0.59531 -0.01705,-0.7276 -0.01654,-0.72761 h 0.661459 0.661458 v -0.66352 z m -24.077083,0.53278 h 1.5875 1.5875 v 0.29508 0.29455 l -0.571025,1.01596 -0.571025,1.01596 -0.330212,0.12661 -0.330212,0.1266 -0.387574,-0.44493 -0.38809,-0.44545 -0.298173,-0.57774 -0.298689,-0.57775 v -0.41444 z m 14.022916,0 h 0.264584 0.264583 v 1.32292 1.32292 h -0.08837 -0.08785 l -0.176733,-0.17622 -0.176217,-0.17622 v -1.1467 z m 15.08125,0 v 0.37879 0.37827 l 0.595313,0.0977 0.595312,0.0982 -1.521354,0.33589 -1.521354,0.33642 v 0.47645 0.47594 l 1.124479,-0.21084 1.124479,-0.21084 0.727604,-0.2775 0.727605,-0.2775 v 0.23306 0.23306 l -1.237651,0.42168 -1.238167,0.42168 h -0.613916 -0.614433 v 0.52917 0.52916 h 0.658358 0.658874 l 1.325501,-0.50332 1.326017,-0.50385 v 0.20671 0.20619 l -1.319816,0.56792 -1.319816,0.56792 -0.796851,0.15917 -0.79685,0.15916 v 0.49609 0.4961 h 0.534334 0.534334 l 1.626774,-0.66094 1.626774,-0.66095 0.125574,0.12558 0.125574,0.12557 -0.334863,0.40308 -0.334864,0.40307 h -0.628902 -0.628902 v 0.52917 0.52917 l 1.124479,-0.004 1.124479,-0.004 0.366903,-0.23255 0.366903,-0.23203 0.131774,-1.37149 0.131775,-1.37149 0.393258,0.81235 0.393774,0.81236 0.858863,0.53071 0.858862,0.53072 h 0.299207 0.299723 v -0.49764 -0.49816 l -1.116728,-1.11673 -1.116211,-1.11621 0.719336,-0.52452 0.719853,-0.524 v -0.37465 -0.37517 h -0.553455 -0.553971 l -0.694015,0.54622 -0.694531,0.54622 -0.339514,-0.46457 -0.339514,-0.46406 v -0.21394 -0.21446 h 0.79375 0.79375 v -0.39687 -0.39688 h -2.248958 z m -40.216666,0.79375 h 0.926041 0.926042 v 1.05834 1.05833 h -0.749825 -0.749308 l -0.176734,-0.17622 -0.176216,-0.17621 v -0.88212 z m 3.439583,0 h 0.926042 0.926041 v 1.05834 1.05833 h -0.926041 -0.926042 v -1.05833 z m 29.104167,0.31265 -1.190625,0.0181 -1.190625,0.0181 v 1.14877 1.14825 h 1.190625 1.190625 v -1.16634 z m 17.727083,0.21652 h 2.248958 2.248959 v 1.85208 1.85209 h -2.267562 -2.267045 l 0.08423,-0.59531 0.08475,-0.59532 1.918229,-0.0775 1.918229,-0.0775 v -0.65009 -0.65009 h -1.984375 -1.984375 v -0.52916 z m -29.710331,0.23616 -0.261483,0.26097 -0.260966,0.26096 0.163814,0.42788 0.164331,0.42737 1.656747,-0.0791 1.657263,-0.0791 v -0.52917 -0.52916 l -1.560112,-0.0801 z m 10.395748,0.29301 h 0.396875 0.396875 v 0.39687 0.39688 h -0.396875 -0.396875 v -0.39688 z m 27.252083,0 v 0.88935 0.88883 l -0.164848,1.29398 -0.164331,1.29346 0.609782,-0.58497 0.610299,-0.58498 0.115238,-1.59784 0.115755,-1.59783 h -0.561206 z m 2.910417,0 v 1.85208 1.85208 h 0.264583 0.264583 v -1.85208 -1.85208 h -0.264583 z m -70.470118,0.52916 -0.483691,0.43822 -0.483691,0.4377 0.01654,0.4222 0.01705,0.42168 0.230994,-0.57258 0.230477,-0.57257 0.480074,-0.27906 0.480074,-0.27957 -0.243913,-0.008 z m 29.837456,0.79375 -0.02584,0.46303 -0.02635,0.46302 -0.207222,1.31878 -0.207223,1.31826 0.634587,-0.42116 0.634587,-0.42116 0.17725,-0.63252 0.17725,-0.63304 0.02635,-0.7276 0.02636,-0.72761 h -0.604614 z m 1.738912,0 v 1.27021 1.27021 l 0.317293,0.31729 0.31781,0.31729 h 0.47594 0.476457 v -0.51314 -0.51367 l -0.264584,-0.16381 -0.264583,-0.1633 v -0.91054 -0.91054 h -0.529167 z m 7.9375,0.52917 v 0.52917 0.52916 h 1.190625 1.190625 v -0.52916 -0.52917 h -1.190625 z m -50.016583,1.62109 -0.49506,0.0377 -0.49506,0.0372 0.1204,0.31368 0.12041,0.31316 0.50901,-0.13281 0.50901,-0.13333 -0.13435,-0.21755 z m 1.15342,2.08308 -0.30128,0.66146 -0.30127,0.66145 h 0.2589 0.2589 v -0.26458 -0.26458 h 0.25631 0.25632 l -0.1664,0.43305 -0.16588,0.43304 0.32659,-0.10903 0.3266,-0.10852 -0.062,-0.25787 -0.062,-0.25838 -0.12092,-0.46302 -0.12144,-0.46302 h -0.1912 z m 80.083996,1.58801 -19.380729,5.2e-4 -19.380729,5.2e-4 -7.276042,18.90272 -7.276042,18.90221 -0.154512,-0.18397 -0.154513,-0.18345 -5.109249,-13.36146 -5.109249,-13.36198 -0.19637,-0.37569 -0.195854,-0.3762 -0.441316,0.85318 -0.4408,0.85266 -1.877405,1.97611 -1.876888,1.9761 -1.766301,1.17461 -1.766817,1.17409 -1.964738,0.78238 -1.964738,0.78186 -1.5875,0.30644 -1.587504,0.30593 -3.10937,-0.0853 -3.10937,-0.0858 v 0.52917 l -5.1e-4,0.52916 -1.98335,22.07256 -1.98385,22.07255 v 0.21859 l -10e-4,0.21963 h 7.40834 7.408329 l 0.0067,-0.0661 0.0072,-0.0661 1.53789,-19.24999 1.538408,-19.24999 0.21084,-0.19689 0.210839,-0.19688 0.111621,0.26458 0.111105,0.26458 6.665743,19.05 6.665226,19.05 4.403866,0.0729 4.403865,0.0723 0.259933,-0.7338 0.259932,-0.73432 5.355745,-15.34584 5.355746,-15.34583 0.224792,-0.39688 0.22531,-0.39687 0.0083,16.6026 0.0078,16.60261 16.602605,-0.005 16.602604,-0.005 c 0.961707,-2.22227 2.176638,-4.23273 4.101041,-5.78879 v -3.58325 -3.58324 h -9.004101 -9.004102 l -0.115238,-0.33073 -0.115239,-0.33073 -0.537951,-5.87664 -0.537952,-5.87613 v -0.54002 -0.5395 h 9.260417 9.260416 v -6.48229 -6.4823 h -9.921875 -9.921875 l -0.0041,-0.59531 -0.0036,-0.59583 -0.523999,-5.68802 -0.523482,-5.68854 -0.001,-0.33073 -10e-4,-0.33073 h 10.847916 10.847917 v -6.48229 z m -72.196627,9.79269 -0.414445,0.15864 -0.413928,0.15917 v 0.68626 0.68575 l 0.234611,-0.25115 0.235128,-0.25166 0.179317,-0.59325 z m 78.877356,54.76255 a 4.5639644,4.7511587 0 0 0 -4.564062,4.75113 4.5639644,4.7511587 0 0 0 4.564062,4.75113 4.5639644,4.7511587 0 0 0 4.564063,-4.75113 4.5639644,4.7511587 0 0 0 -4.564063,-4.75113 z" /></g></svg>
