<svg width="400" height="294" viewBox="0 0 400 294" fill="none" xmlns="http://www.w3.org/2000/svg">
<g clip-path="url(#clip0_539_997)">
<rect width="400" height="294" rx="10" fill="#35363A" fill-opacity="0.9"/>
<rect width="400" height="294" rx="10" fill="#11111B" fill-opacity="0.1"/>
<rect x="0.5" y="0.5" width="399" height="293" rx="9.5" stroke="#9F9FDE" stroke-opacity="0.2"/>
<path d="M160 38H240V64H160V38Z" fill="#37373A"/>
<path d="M120 70H280V82H120V70Z" fill="#37373A"/>
<rect x="116" y="108" width="168" height="20" rx="4" fill="#37373A"/>
<mask id="path-7-inside-1_539_997" fill="white">
<path d="M126 113H136V123H126V113Z"/>
</mask>
<path d="M126 113H136V123H126V113Z" fill="#4B4B4D"/>
<path d="M126 123H127V113H126H125V123H126Z" fill="#4B4B4D" mask="url(#path-7-inside-1_539_997)"/>
<mask id="path-9-inside-2_539_997" fill="white">
<path d="M142 114H205V122H142V114Z"/>
</mask>
<path d="M142 114H205V122H142V114Z" fill="#4B4B4D"/>
<path d="M142 122H143V114H142H141V122H142Z" fill="#4B4B4D" mask="url(#path-9-inside-2_539_997)"/>
<rect x="116" y="134" width="168" height="26" rx="4" fill="#37373A"/>
<mask id="path-12-inside-3_539_997" fill="white">
<path d="M126 142H136V152H126V142Z"/>
</mask>
<path d="M126 142H136V152H126V142Z" fill="#4B4B4D"/>
<path d="M126 152H127V142H126H125V152H126Z" fill="#4B4B4D" mask="url(#path-12-inside-3_539_997)"/>
<mask id="path-14-inside-4_539_997" fill="white">
<path d="M142 143H205V151H142V143Z"/>
</mask>
<path d="M142 143H205V151H142V143Z" fill="#4B4B4D"/>
<path d="M142 151H143V143H142H141V151H142Z" fill="#4B4B4D" mask="url(#path-14-inside-4_539_997)"/>
<mask id="path-16-inside-5_539_997" fill="white">
<path d="M262 143H274V151H262V143Z"/>
</mask>
<path d="M262 143H274V151H262V143Z" fill="#4B4B4D"/>
<path d="M262 151H263V143H262H261V151H262Z" fill="#4B4B4D" mask="url(#path-16-inside-5_539_997)"/>
<path d="M242 143H254V151H242V143Z" fill="#666671"/>
<mask id="path-19-inside-6_539_997" fill="white">
<path d="M256 143H260V151H256V143Z"/>
</mask>
<path d="M256 143H260V151H256V143Z" fill="#4B4B4D"/>
<path d="M256 151H257V143H256H255V151H256Z" fill="#4B4B4D" mask="url(#path-19-inside-6_539_997)"/>
<rect x="116" y="166" width="168" height="78" rx="4" fill="#37373A"/>
<mask id="path-22-inside-7_539_997" fill="white">
<path d="M128 183C128 178.029 132.029 174 137 174H138C142.971 174 147 178.029 147 183C147 187.971 142.971 192 138 192H137C132.029 192 128 187.971 128 183Z"/>
</mask>
<path d="M128 183C128 178.029 132.029 174 137 174H138C142.971 174 147 178.029 147 183C147 187.971 142.971 192 138 192H137C132.029 192 128 187.971 128 183Z" fill="#4B4B4D"/>
<path d="M128 174H147H128M128 174M147 192H128H147M136 192C131.029 192 127 187.971 127 183C127 178.029 131.029 174 136 174H137C132.582 174 129 178.029 129 183C129 187.971 132.582 192 137 192H136ZM137 192M147 174V192V174" fill="#4B4B4D" mask="url(#path-22-inside-7_539_997)"/>
<mask id="path-24-inside-8_539_997" fill="white">
<path d="M128 195H147V199H128V195Z"/>
</mask>
<path d="M128 195H147V199H128V195Z" fill="#4B4B4D"/>
<path d="M128 199H129V195H128H127V199H128Z" fill="#4B4B4D" mask="url(#path-24-inside-8_539_997)"/>
<mask id="path-26-inside-9_539_997" fill="white">
<path d="M153 183C153 178.029 157.029 174 162 174H163C167.971 174 172 178.029 172 183C172 187.971 167.971 192 163 192H162C157.029 192 153 187.971 153 183Z"/>
</mask>
<path d="M153 183C153 178.029 157.029 174 162 174H163C167.971 174 172 178.029 172 183C172 187.971 167.971 192 163 192H162C157.029 192 153 187.971 153 183Z" fill="#4B4B4D"/>
<path d="M153 174H172H153M153 174M172 192H153H172M161 192C156.029 192 152 187.971 152 183C152 178.029 156.029 174 161 174H162C157.582 174 154 178.029 154 183C154 187.971 157.582 192 162 192H161ZM162 192M172 174V192V174" fill="#4B4B4D" mask="url(#path-26-inside-9_539_997)"/>
<mask id="path-28-inside-10_539_997" fill="white">
<path d="M153 195H172V199H153V195Z"/>
</mask>
<path d="M153 195H172V199H153V195Z" fill="#4B4B4D"/>
<path d="M153 199H154V195H153H152V199H153Z" fill="#4B4B4D" mask="url(#path-28-inside-10_539_997)"/>
<mask id="path-30-inside-11_539_997" fill="white">
<path d="M178 183C178 178.029 182.029 174 187 174H188C192.971 174 197 178.029 197 183C197 187.971 192.971 192 188 192H187C182.029 192 178 187.971 178 183Z"/>
</mask>
<path d="M178 183C178 178.029 182.029 174 187 174H188C192.971 174 197 178.029 197 183C197 187.971 192.971 192 188 192H187C182.029 192 178 187.971 178 183Z" fill="#4B4B4D"/>
<path d="M178 174H197H178M178 174M197 192H178H197M186 192C181.029 192 177 187.971 177 183C177 178.029 181.029 174 186 174H187C182.582 174 179 178.029 179 183C179 187.971 182.582 192 187 192H186ZM187 192M197 174V192V174" fill="#4B4B4D" mask="url(#path-30-inside-11_539_997)"/>
<mask id="path-32-inside-12_539_997" fill="white">
<path d="M178 195H197V199H178V195Z"/>
</mask>
<path d="M178 195H197V199H178V195Z" fill="#4B4B4D"/>
<path d="M178 199H179V195H178H177V199H178Z" fill="#4B4B4D" mask="url(#path-32-inside-12_539_997)"/>
<mask id="path-34-inside-13_539_997" fill="white">
<path d="M203 183C203 178.029 207.029 174 212 174H213C217.971 174 222 178.029 222 183C222 187.971 217.971 192 213 192H212C207.029 192 203 187.971 203 183Z"/>
</mask>
<path d="M203 183C203 178.029 207.029 174 212 174H213C217.971 174 222 178.029 222 183C222 187.971 217.971 192 213 192H212C207.029 192 203 187.971 203 183Z" fill="#4B4B4D"/>
<path d="M203 174H222H203M203 174M222 192H203H222M211 192C206.029 192 202 187.971 202 183C202 178.029 206.029 174 211 174H212C207.582 174 204 178.029 204 183C204 187.971 207.582 192 212 192H211ZM212 192M222 174V192V174" fill="#4B4B4D" mask="url(#path-34-inside-13_539_997)"/>
<mask id="path-36-inside-14_539_997" fill="white">
<path d="M203 195H222V199H203V195Z"/>
</mask>
<path d="M203 195H222V199H203V195Z" fill="#4B4B4D"/>
<path d="M203 199H204V195H203H202V199H203Z" fill="#4B4B4D" mask="url(#path-36-inside-14_539_997)"/>
<mask id="path-38-inside-15_539_997" fill="white">
<path d="M228 183C228 178.029 232.029 174 237 174H238C242.971 174 247 178.029 247 183C247 187.971 242.971 192 238 192H237C232.029 192 228 187.971 228 183Z"/>
</mask>
<path d="M228 183C228 178.029 232.029 174 237 174H238C242.971 174 247 178.029 247 183C247 187.971 242.971 192 238 192H237C232.029 192 228 187.971 228 183Z" fill="#4B4B4D"/>
<path d="M228 174H247H228M228 174M247 192H228H247M236 192C231.029 192 227 187.971 227 183C227 178.029 231.029 174 236 174H237C232.582 174 229 178.029 229 183C229 187.971 232.582 192 237 192H236ZM237 192M247 174V192V174" fill="#4B4B4D" mask="url(#path-38-inside-15_539_997)"/>
<mask id="path-40-inside-16_539_997" fill="white">
<path d="M228 195H247V199H228V195Z"/>
</mask>
<path d="M228 195H247V199H228V195Z" fill="#4B4B4D"/>
<path d="M228 199H229V195H228H227V199H228Z" fill="#4B4B4D" mask="url(#path-40-inside-16_539_997)"/>
<mask id="path-42-inside-17_539_997" fill="white">
<path d="M253 183C253 178.029 257.029 174 262 174H263C267.971 174 272 178.029 272 183C272 187.971 267.971 192 263 192H262C257.029 192 253 187.971 253 183Z"/>
</mask>
<path d="M253 183C253 178.029 257.029 174 262 174H263C267.971 174 272 178.029 272 183C272 187.971 267.971 192 263 192H262C257.029 192 253 187.971 253 183Z" fill="#4B4B4D"/>
<path d="M253 174H272H253M253 174M272 192H253H272M261 192C256.029 192 252 187.971 252 183C252 178.029 256.029 174 261 174H262C257.582 174 254 178.029 254 183C254 187.971 257.582 192 262 192H261ZM262 192M272 174V192V174" fill="#4B4B4D" mask="url(#path-42-inside-17_539_997)"/>
<mask id="path-44-inside-18_539_997" fill="white">
<path d="M253 195H272V199H253V195Z"/>
</mask>
<path d="M253 195H272V199H253V195Z" fill="#4B4B4D"/>
<path d="M253 199H254V195H253H252V199H253Z" fill="#4B4B4D" mask="url(#path-44-inside-18_539_997)"/>
<mask id="path-46-inside-19_539_997" fill="white">
<path d="M128 220C128 215.029 132.029 211 137 211H138C142.971 211 147 215.029 147 220C147 224.971 142.971 229 138 229H137C132.029 229 128 224.971 128 220Z"/>
</mask>
<path d="M128 220C128 215.029 132.029 211 137 211H138C142.971 211 147 215.029 147 220C147 224.971 142.971 229 138 229H137C132.029 229 128 224.971 128 220Z" fill="#4B4B4D"/>
<path d="M128 211H147H128M128 211M147 229H128H147M136 229C131.029 229 127 224.971 127 220C127 215.029 131.029 211 136 211H137C132.582 211 129 215.029 129 220C129 224.971 132.582 229 137 229H136ZM137 229M147 211V229V211" fill="#4B4B4D" mask="url(#path-46-inside-19_539_997)"/>
<mask id="path-48-inside-20_539_997" fill="white">
<path d="M128 232H147V236H128V232Z"/>
</mask>
<path d="M128 232H147V236H128V232Z" fill="#4B4B4D"/>
<path d="M128 236H129V232H128H127V236H128Z" fill="#4B4B4D" mask="url(#path-48-inside-20_539_997)"/>
<mask id="path-50-inside-21_539_997" fill="white">
<path d="M153 220C153 215.029 157.029 211 162 211H163C167.971 211 172 215.029 172 220C172 224.971 167.971 229 163 229H162C157.029 229 153 224.971 153 220Z"/>
</mask>
<path d="M153 220C153 215.029 157.029 211 162 211H163C167.971 211 172 215.029 172 220C172 224.971 167.971 229 163 229H162C157.029 229 153 224.971 153 220Z" fill="#4B4B4D"/>
<path d="M153 211H172H153M153 211M172 229H153H172M161 229C156.029 229 152 224.971 152 220C152 215.029 156.029 211 161 211H162C157.582 211 154 215.029 154 220C154 224.971 157.582 229 162 229H161ZM162 229M172 211V229V211" fill="#4B4B4D" mask="url(#path-50-inside-21_539_997)"/>
<mask id="path-52-inside-22_539_997" fill="white">
<path d="M153 232H172V236H153V232Z"/>
</mask>
<path d="M153 232H172V236H153V232Z" fill="#4B4B4D"/>
<path d="M153 236H154V232H153H152V236H153Z" fill="#4B4B4D" mask="url(#path-52-inside-22_539_997)"/>
<mask id="path-54-inside-23_539_997" fill="white">
<path d="M178 220C178 215.029 182.029 211 187 211H188C192.971 211 197 215.029 197 220C197 224.971 192.971 229 188 229H187C182.029 229 178 224.971 178 220Z"/>
</mask>
<path d="M178 220C178 215.029 182.029 211 187 211H188C192.971 211 197 215.029 197 220C197 224.971 192.971 229 188 229H187C182.029 229 178 224.971 178 220Z" fill="#4B4B4D"/>
<path d="M178 211H197H178M178 211M197 229H178H197M186 229C181.029 229 177 224.971 177 220C177 215.029 181.029 211 186 211H187C182.582 211 179 215.029 179 220C179 224.971 182.582 229 187 229H186ZM187 229M197 211V229V211" fill="#4B4B4D" mask="url(#path-54-inside-23_539_997)"/>
<mask id="path-56-inside-24_539_997" fill="white">
<path d="M178 232H197V236H178V232Z"/>
</mask>
<path d="M178 232H197V236H178V232Z" fill="#4B4B4D"/>
<path d="M178 236H179V232H178H177V236H178Z" fill="#4B4B4D" mask="url(#path-56-inside-24_539_997)"/>
<path d="M203 220C203 215.029 207.029 211 212 211H213C217.971 211 222 215.029 222 220C222 224.971 217.971 229 213 229H212C207.029 229 203 224.971 203 220Z" fill="#898999"/>
<path d="M203 232H222V236H203V232Z" fill="#898999"/>
</g>
<defs>
<clipPath id="clip0_539_997">
<rect width="400" height="294" rx="10" fill="white"/>
</clipPath>
</defs>
</svg>
