<svg width="400" height="294" viewBox="0 0 400 294" fill="none" xmlns="http://www.w3.org/2000/svg">
<g clip-path="url(#clip0_530_2340)">
<rect width="400" height="294" rx="10" fill="#35363A" fill-opacity="0.9"/>
<rect width="400" height="294" rx="10" fill="#11111B" fill-opacity="0.1"/>
<rect x="0.5" y="0.5" width="399" height="293" rx="9.5" stroke="#9F9FDE" stroke-opacity="0.2"/>
<rect width="400" height="20" fill="#37373A"/>
<path d="M20 0H120V20H20V0Z" fill="#484850"/>
<rect x="36" y="6" width="8" height="8" fill="#666671"/>
<rect x="50" y="6" width="48" height="8" fill="#666671"/>
<rect x="10" y="26" width="22" height="6" fill="#484850"/>
<rect x="58" y="26" width="43" height="6" fill="#484850"/>
<rect x="10" y="38" width="30" height="6" fill="#484850"/>
<rect x="58" y="38" width="79" height="6" fill="#484850"/>
<rect x="10" y="50" width="30" height="6" fill="#484850"/>
<rect x="58" y="50" width="53" height="6" fill="#484850"/>
<rect x="10" y="62" width="30" height="6" fill="#898999"/>
<rect x="58" y="62" width="140" height="6" fill="#898999"/>
<rect x="10" y="74" width="30" height="6" fill="#898999"/>
<rect x="69" y="74" width="20" height="6" fill="#898999"/>
<rect x="103" y="74" width="60" height="6" fill="#898999"/>
<rect x="10" y="86" width="30" height="6" fill="#898999"/>
<rect x="69" y="86" width="20" height="6" fill="#898999"/>
<rect x="103" y="86" width="34" height="6" fill="#898999"/>
<rect x="10" y="98" width="30" height="6" fill="#898999"/>
<rect x="58" y="98" width="140" height="6" fill="#898999"/>
<rect x="10" y="110" width="30" height="6" fill="#484850"/>
<rect x="58" y="110" width="79" height="6" fill="#484850"/>
<rect x="10" y="122" width="22" height="6" fill="#37373A"/>
<rect x="58" y="122" width="43" height="6" fill="#37373A"/>
<rect x="10" y="134" width="30" height="6" fill="#37373A"/>
<rect x="58" y="134" width="53" height="6" fill="#37373A"/>
<rect x="10" y="146" width="30" height="6" fill="#37373A"/>
<rect x="58" y="146" width="171" height="6" fill="#37373A"/>
<rect x="10" y="158" width="30" height="6" fill="#37373A"/>
<rect x="58" y="158" width="29" height="6" fill="#37373A"/>
<rect x="10" y="170" width="30" height="6" fill="#484850"/>
<rect x="10" y="182" width="30" height="6" fill="#37373A"/>
<rect x="137" y="182" width="86" height="6" fill="#37373A"/>
<rect x="10" y="268" width="10" height="6" fill="#484850"/>
<rect x="30" y="268" width="76" height="6" fill="#37373A"/>
</g>
<defs>
<clipPath id="clip0_530_2340">
<rect width="400" height="294" rx="10" fill="white"/>
</clipPath>
</defs>
</svg>
