<svg width="400" height="294" viewBox="0 0 400 294" fill="none" xmlns="http://www.w3.org/2000/svg">
<g clip-path="url(#clip0_536_2118)">
<rect width="400" height="294" rx="10" fill="#111B12" fill-opacity="0.1"/>
<rect width="400" height="130" fill="url(#paint0_linear_536_2118)"/>
<mask id="path-3-inside-1_536_2118" fill="white">
<path d="M20 91H130V107H20V91Z"/>
</mask>
<path d="M20 91H130V107H20V91Z" fill="#4B4D4B"/>
<path d="M20 107H21V91H20H19V107H20Z" fill="#4B4D4B" mask="url(#path-3-inside-1_536_2118)"/>
<mask id="path-5-inside-2_536_2118" fill="white">
<path d="M290 74C290 71.7909 291.791 70 294 70H376C378.209 70 380 71.7909 380 74V116C380 118.209 378.209 120 376 120H294C291.791 120 290 118.209 290 116V74Z"/>
</mask>
<path d="M290 74C290 71.7909 291.791 70 294 70H376C378.209 70 380 71.7909 380 74V116C380 118.209 378.209 120 376 120H294C291.791 120 290 118.209 290 116V74Z" fill="#4B4D4B"/>
<path d="M290 70H380H290M290 70M380 120H290H380M294 120C291.239 120 289 117.761 289 115V75C289 72.2386 291.239 70 294 70C292.343 70 291 71.7909 291 74V116C291 118.209 292.343 120 294 120ZM294 120M380 70V120V70" fill="#4B4D4B" mask="url(#path-5-inside-2_536_2118)"/>
<mask id="path-7-inside-3_536_2118" fill="white">
<path d="M20 112H100V120H20V112Z"/>
</mask>
<path d="M20 112H100V120H20V112Z" fill="#4B4D4B"/>
<path d="M20 120H21V112H20H19V120H20Z" fill="#4B4D4B" mask="url(#path-7-inside-3_536_2118)"/>
<g clip-path="url(#clip1_536_2118)">
<rect width="400" height="164" transform="translate(0 130)" fill="#373A37"/>
<rect x="20" y="144" width="119" height="96" rx="4" fill="#4B4D4B"/>
<rect x="20" y="144" width="119" height="46" fill="#667166"/>
<rect x="26" y="199" width="42" height="8" fill="#667166"/>
<rect x="26" y="195" width="17" height="2" fill="#667166"/>
<rect x="26" y="230" width="2" height="2" fill="#667166"/>
<rect x="29" y="230" width="16" height="2" fill="#667166"/>
<rect x="49" y="230" width="2" height="2" fill="#667166"/>
<rect x="52" y="230" width="16" height="2" fill="#667166"/>
<rect x="26" y="209" width="107" height="2" fill="#667166"/>
<rect x="26" y="212" width="107" height="2" fill="#667166"/>
<rect x="26" y="215" width="78" height="2" fill="#667166"/>
<rect x="151" y="144" width="119" height="96" rx="4" fill="#4B4D4B"/>
<rect x="151" y="144" width="119" height="46" fill="#667166"/>
<rect x="157" y="199" width="42" height="8" fill="#667166"/>
<rect x="157" y="195" width="34" height="2" fill="#667166"/>
<rect x="157" y="230" width="2" height="2" fill="#667166"/>
<rect x="160" y="230" width="16" height="2" fill="#667166"/>
<rect x="180" y="230" width="2" height="2" fill="#667166"/>
<rect x="183" y="230" width="10" height="2" fill="#667166"/>
<rect x="197" y="230" width="2" height="2" fill="#667166"/>
<rect x="200" y="230" width="18" height="2" fill="#667166"/>
<rect x="219" y="230" width="9" height="2" fill="#667166"/>
<rect x="229" y="230" width="14" height="2" fill="#667166"/>
<rect x="157" y="209" width="107" height="2" fill="#667166"/>
<rect x="157" y="212" width="107" height="2" fill="#667166"/>
<rect x="157" y="215" width="12" height="2" fill="#667166"/>
<rect x="20" y="252" width="119" height="96" rx="4" fill="#4B4D4B"/>
<rect x="20" y="252" width="119" height="46" fill="#667166"/>
<rect x="151" y="252" width="119" height="96" rx="4" fill="#4B4D4B"/>
<rect x="151" y="252" width="119" height="46" fill="#667166"/>
<rect x="290" y="144" width="90" height="50" rx="4" fill="#4B4D4B"/>
<rect x="296" y="150" width="14" height="14" rx="7" fill="#667166"/>
<rect x="314" y="152" width="39" height="6" fill="#667166"/>
<rect x="314" y="160" width="27" height="3" fill="#667168" fill-opacity="0.6"/>
<rect x="314" y="167" width="51" height="3" fill="#667166"/>
<rect x="314" y="171" width="32" height="3" fill="#667166"/>
<rect x="314" y="175" width="45" height="3" fill="#667166"/>
<rect x="314" y="184" width="3" height="3" fill="#667166"/>
<rect x="323" y="184" width="3" height="3" fill="#667166"/>
<rect x="332" y="184" width="3" height="3" fill="#667166"/>
<rect x="341" y="184" width="3" height="3" fill="#667166"/>
<rect x="350" y="184" width="3" height="3" fill="#667166"/>
<g clip-path="url(#clip2_536_2118)">
<rect x="290" y="204" width="90" height="38" rx="4" fill="#4B4D4B"/>
<rect x="296" y="215" width="39" height="6" fill="#667166"/>
<rect x="296" y="210" width="27" height="3" fill="#667168" fill-opacity="0.6"/>
<rect x="357.506" y="212" width="29" height="29" transform="rotate(15 357.506 212)" fill="#667168" fill-opacity="0.6"/>
<rect x="296" y="225" width="51" height="3" fill="#667166"/>
<rect x="296" y="229" width="32" height="3" fill="#667166"/>
<rect x="296" y="233" width="45" height="3" fill="#667166"/>
</g>
</g>
</g>
<rect x="0.5" y="0.5" width="399" height="293" rx="9.5" stroke="#9FDEAA" stroke-opacity="0.2"/>
<defs>
<linearGradient id="paint0_linear_536_2118" x1="200" y1="0" x2="200" y2="130" gradientUnits="userSpaceOnUse">
<stop stop-color="#242B23"/>
<stop offset="1" stop-color="#373A37"/>
</linearGradient>
<clipPath id="clip0_536_2118">
<rect width="400" height="294" rx="10" fill="white"/>
</clipPath>
<clipPath id="clip1_536_2118">
<rect width="400" height="164" fill="white" transform="translate(0 130)"/>
</clipPath>
<clipPath id="clip2_536_2118">
<rect x="290" y="204" width="90" height="38" rx="4" fill="white"/>
</clipPath>
</defs>
</svg>
