<svg width="27" height="40" viewBox="0 0 27 40" fill="none" xmlns="http://www.w3.org/2000/svg">
<g clip-path="url(#clip0_12_2372)">
<path d="M13.5 20C13.5 16.3557 16.4913 13.4012 20.1813 13.4012C23.8712 13.4012 26.8626 16.3557 26.8626 20C26.8626 23.6445 23.8712 26.5988 20.1813 26.5988C16.4913 26.5988 13.5 23.6445 13.5 20Z" fill="#1ABCFE"/>
<path d="M0.137207 33.1976C0.137207 29.5532 3.12851 26.5988 6.81849 26.5988H13.4998V33.1976C13.4998 36.842 10.5085 39.7963 6.81849 39.7963C3.12851 39.7963 0.137207 36.842 0.137207 33.1976Z" fill="#0ACF83"/>
<path d="M13.5 0.203613V13.4012H20.1813C23.8713 13.4012 26.8626 10.4468 26.8626 6.8024C26.8626 3.158 23.8713 0.203613 20.1813 0.203613H13.5Z" fill="#FF7262"/>
<path d="M0.137207 6.80241C0.137207 10.4468 3.12851 13.4012 6.81849 13.4012H13.4998V0.203613H6.81849C3.12851 0.203613 0.137207 3.15799 0.137207 6.80241Z" fill="#F24E1E"/>
<path d="M0.137207 20C0.137207 23.6445 3.12851 26.5988 6.81849 26.5988H13.4998V13.4012H6.81849C3.12851 13.4012 0.137207 16.3557 0.137207 20Z" fill="#A259FF"/>
</g>
<defs>
<clipPath id="clip0_12_2372">
<rect width="27" height="40" fill="white"/>
</clipPath>
</defs>
</svg>
