<svg width="36" height="40" viewBox="0 0 36 40" fill="none" xmlns="http://www.w3.org/2000/svg">
<path d="M17.765 40C17.2288 40 16.6963 39.8595 16.2263 39.5891L11.3283 36.6921C10.5968 36.2834 10.9538 36.1388 11.195 36.0555C12.1704 35.7143 12.3684 35.6373 13.4095 35.0466C13.519 34.9842 13.6622 35.0062 13.7742 35.0723L17.537 37.303C17.6728 37.3764 17.8656 37.3764 17.9916 37.303L32.663 28.8424C32.7988 28.7654 32.887 28.6076 32.887 28.4462V11.5324C32.887 11.3636 32.7988 11.2132 32.66 11.1288L17.9945 2.67557C17.8587 2.59485 17.6787 2.59485 17.5428 2.67557L2.88029 11.1288C2.73816 11.2095 2.64782 11.3673 2.64782 11.5287V28.4425C2.64782 28.6039 2.73596 28.758 2.87551 28.8351L6.89315 31.1538C9.07458 32.2435 10.4077 30.9594 10.4077 29.6679V12.9743C10.4077 12.7358 10.595 12.5523 10.8337 12.5523H12.6919C12.9233 12.5523 13.1143 12.7358 13.1143 12.9743V29.6753C13.1143 32.5811 11.5278 34.2504 8.76976 34.2504C7.92143 34.2504 7.25305 34.2504 5.38745 33.3332L1.53875 31.1171C0.58759 30.5668 0 29.5395 0 28.4425V11.5287C0 10.428 0.58759 9.40072 1.53875 8.85772L16.2248 0.393493C17.1539 -0.131164 18.3879 -0.131164 19.3096 0.393493L33.9773 8.86139C34.9248 9.40806 35.5161 10.4317 35.5161 11.5324V28.4462C35.5161 29.5432 34.9248 30.5668 33.9773 31.1171L19.3096 39.5814C18.8396 39.8529 18.3071 39.9923 17.7635 39.9923" fill="#689F63"/>
<path d="M22.2956 28.345C15.8762 28.345 14.5303 25.4011 14.5303 22.9319C14.5303 22.6971 14.7198 22.5099 14.9552 22.5099H16.8501C17.0595 22.5099 17.2358 22.6622 17.2688 22.8688C17.5553 24.7979 18.4073 25.7709 22.289 25.7709C25.3812 25.7709 26.6959 25.0731 26.6959 23.4349C26.6959 22.492 26.3213 21.7912 21.5178 21.3216C17.5002 20.9253 15.0176 20.0411 15.0176 16.8308C15.0176 13.8736 17.5149 12.1125 21.6978 12.1125C26.3948 12.1125 28.7231 13.7416 29.0169 17.2417C29.0279 17.3628 28.9839 17.4802 28.9031 17.5683C28.8223 17.6526 28.7084 17.704 28.5909 17.704H26.6849C26.4866 17.704 26.314 17.5646 26.2736 17.3738C25.8145 15.3449 24.7055 14.6955 21.6904 14.6955C18.3155 14.6955 17.9225 15.8695 17.9225 16.7501C17.9225 17.8177 18.3852 18.1296 22.939 18.7313C27.4488 19.3293 29.5898 20.1732 29.5898 23.3395C29.5898 26.5315 26.9236 28.3623 22.2743 28.3623" fill="#689F63"/>
</svg>
