<svg width="33" height="40" viewBox="0 0 33 40" fill="none" xmlns="http://www.w3.org/2000/svg">
<path d="M12.2828 37.9867C12.2828 37.9867 15.5703 37.2313 16.5076 37.2732C17.4449 37.3152 19.4593 37.8171 21.3479 37.6291C23.2365 37.4411 27.8948 31.6496 27.8948 31.6496C27.8948 31.6496 30.9166 27.9984 30.0352 23.5498C29.1539 19.1013 25.6286 15.7019 25.0411 14.9885C24.4535 14.275 23.0266 12.2605 23.2784 8.6933C23.5302 5.12606 22.6069 -0.203804 17.0252 0.00607653C11.4434 0.215891 11.1917 4.74837 11.1497 7.09855C11.1077 9.44873 11.5694 11.631 10.6041 13.6035C9.63886 15.576 5.73586 20.1505 4.98043 22.9623C4.225 25.7741 4.60275 28.6698 4.60275 28.6698L12.2828 37.9867Z" fill="#231F20"/>
<path d="M12.4976 37.7768C12.4976 37.7768 11.4437 40.043 8.26875 39.0702C7.8282 38.9799 6.16672 38.2964 5.65525 38.0749C5.35498 37.9448 5.03616 37.8623 4.7098 37.8378C3.15581 37.7215 0.614417 37.6756 0.270754 36.1395C-0.0473465 34.7171 0.997671 34.4376 0.570238 32.7147C0.14274 30.9919 0.914099 30.1863 1.42438 29.9933C1.93467 29.8003 3.05139 29.4891 3.36641 29.085C4.21852 27.9923 4.91228 26.736 6.2672 27.0197C7.45714 27.2689 8.26816 28.3784 8.84196 29.7766C9.41589 31.1748 9.57812 31.6199 10.3716 32.5312C11.1651 33.4425 13.3909 35.8683 12.4976 37.7768Z" fill="#F7B820"/>
<path d="M5.89306 27.1893C5.04645 27.1893 4.49697 27.9268 3.87119 28.7663C3.7597 28.9157 3.64741 29.0666 3.53238 29.2142C3.2405 29.588 2.47097 29.8522 1.85286 30.0645C1.71869 30.1107 1.59736 30.1523 1.49904 30.1894C1.07574 30.3498 0.379496 31.0734 0.774024 32.6643C1.01589 33.638 0.810665 34.1981 0.629493 34.6922C0.474015 35.1171 0.339578 35.4838 0.475916 36.0935C0.758752 37.3578 2.83253 37.4991 4.34693 37.6021L4.72566 37.6286C5.06834 37.6543 5.40938 37.7396 5.73896 37.8822C6.30653 38.1282 7.90483 38.7812 8.31116 38.8649C11.2949 39.7781 12.2977 37.7092 12.3079 37.6882V37.6876C13.1085 35.9773 11.1492 33.7382 10.3125 32.7821L10.2139 32.669C9.43371 31.7732 9.24048 31.3016 8.72404 30.0416L8.64833 29.8563C8.01547 28.3146 7.20007 27.4292 6.22479 27.2251C6.10923 27.2008 5.99878 27.1893 5.89306 27.1893ZM9.75044 39.5212C9.29816 39.5212 8.78578 39.4482 8.20759 39.2709C7.72012 39.172 5.88814 38.4045 5.57227 38.2675C5.28557 38.1434 4.99047 38.0694 4.69453 38.0472L4.31855 38.0207C2.67214 37.9087 0.417448 37.7554 0.0665742 36.1852C-0.0968347 35.4554 0.0720144 34.9938 0.235489 34.5479C0.411483 34.0678 0.577579 33.6144 0.366911 32.7654C-0.0978834 30.8922 0.766421 30.018 1.35038 29.797C1.45231 29.7585 1.57796 29.7153 1.71653 29.6678C2.22209 29.494 2.98637 29.2316 3.20117 28.9562C3.31456 28.8108 3.42495 28.6625 3.5348 28.5154C4.25812 27.5446 5.00771 26.542 6.31059 26.8141C7.43046 27.0488 8.3478 28.0186 9.03637 29.6967L9.1126 29.8823C9.6236 31.1297 9.7958 31.5497 10.5303 32.3935L10.6284 32.5058C11.5192 33.5235 13.6047 35.9071 12.6883 37.8658C12.6702 37.9032 11.8764 39.5212 9.75044 39.5212Z" fill="#231F20"/>
<path d="M11.2652 33.146C11.2652 33.146 12.6445 36.451 16.6512 35.9584C20.6579 35.4658 21.3803 34.0536 21.3803 34.0536L23.9748 31.1635L28.9667 27.8137C28.9667 27.8137 29.4265 26.7628 28.3427 26.0403C27.259 25.3178 26.5365 24.9894 26.5365 24.9894C26.5365 24.9894 27.049 24.1113 26.6021 22.2307C26.0753 20.0139 24.7184 18.4421 23.8416 17.6191C23.3767 17.1828 23.3148 17.287 23.6865 17.7797C24.473 18.8224 25.7235 20.5938 25.8797 21.5083C26.2409 23.2488 25.8139 24.661 25.8139 24.661L25.0258 24.6282C25.0258 24.6282 24.5003 22.4606 23.121 19.6363C21.7416 16.812 20.2966 12.674 19.9682 11.6559C19.6398 10.6378 16.8483 12.7068 16.8483 12.7068L12.4147 12.5098C12.4147 12.5098 12.5132 14.119 11.9548 15.6296C11.3966 17.1404 9.4261 21.2783 8.83493 22.9861C8.24383 24.6938 8.24383 26.3687 8.24383 26.3687C8.24383 26.3687 7.09433 24.5296 7.5213 22.8547C7.79785 21.7697 8.56435 19.9289 9.07005 18.7668C9.34502 18.1348 9.27148 18.0905 8.90179 18.7045C8.04771 20.123 6.6686 22.754 6.89729 24.6282C7.21435 27.2261 8.7218 27.853 9.18174 28.1274C9.31625 28.2077 9.44786 28.2902 9.57483 28.3818C10.3826 28.9655 12.8717 30.8909 12.5132 32.2145C12.2505 33.3967 11.2652 33.146 11.2652 33.146Z" fill="white"/>
<path d="M11.2652 33.146C11.2652 33.146 12.6445 36.451 16.6512 35.9584C20.6579 35.4658 21.3803 34.0536 21.3803 34.0536L23.9748 31.1635L28.9667 27.8137C28.9667 27.8137 29.4265 26.7628 28.3427 26.0403C27.259 25.3178 26.5365 24.9894 26.5365 24.9894C26.5365 24.9894 27.049 24.1113 26.6021 22.2307C26.0753 20.0139 24.7184 18.4421 23.8416 17.6191C23.3767 17.1828 23.3148 17.287 23.6865 17.7797C24.473 18.8224 25.7235 20.5938 25.8797 21.5083C26.2409 23.2488 25.8139 24.661 25.8139 24.661L25.0258 24.6282C25.0258 24.6282 24.5003 22.4606 23.121 19.6363C21.7416 16.812 20.2966 12.674 19.9682 11.6559C19.6398 10.6378 16.8483 12.7068 16.8483 12.7068L12.4147 12.5098C12.4147 12.5098 12.5132 14.119 11.9548 15.6296C11.3966 17.1404 9.4261 21.2783 8.83493 22.9861C8.24383 24.6938 8.24383 26.3687 8.24383 26.3687C8.24383 26.3687 7.09433 24.5296 7.5213 22.8547C7.79785 21.7697 8.56435 19.9289 9.07005 18.7668C9.34502 18.1348 9.27148 18.0905 8.90179 18.7045C8.04771 20.123 6.6686 22.754 6.89729 24.6282C7.21435 27.2261 8.7218 27.853 9.18174 28.1274C9.31625 28.2077 9.44786 28.2902 9.57483 28.3818C10.3826 28.9655 12.8717 30.8909 12.5132 32.2145C12.2505 33.3967 11.2652 33.146 11.2652 33.146Z" stroke="#231F20" stroke-width="0.5" stroke-miterlimit="10"/>
<path d="M14.8063 8.97C14.8063 8.97 14.9142 7.37951 14.2601 6.512C13.6618 5.71862 12.4783 5.52356 12.0101 7.11024C11.5419 8.69687 12.2572 9.76331 12.8034 10.2836C13.3497 10.8037 14.8063 8.97 14.8063 8.97Z" fill="white"/>
<path d="M19.2938 10.3765C19.2938 10.3765 20.1391 9.54219 20.1912 8.35874C20.2432 7.1753 19.723 5.52359 18.2664 5.52359C16.8098 5.52359 16.2635 6.68291 16.2376 7.94999C16.2116 9.21714 16.3156 9.45121 16.3156 9.45121L19.2938 10.3765Z" fill="white"/>
<path d="M13.9611 9.37313C13.9611 9.37313 14.0782 8.22868 13.7791 7.76042C13.4799 7.29228 12.7289 7.21219 12.7256 8.24166C12.7219 9.36009 13.4539 9.93237 13.4539 9.93237L13.9611 9.37313Z" fill="#231F20"/>
<path d="M18.2924 9.84129C18.2924 9.84129 18.9297 9.47718 19.0077 8.86589C19.0858 8.25467 18.9794 7.1291 18.2141 7.05818C17.5121 6.99316 17.252 8.0986 17.252 8.76187C17.252 9.42514 17.5771 10.1404 17.5771 10.1404L18.2924 9.84129Z" fill="#231F20"/>
<path d="M15.4959 14.3282C15.4959 14.3282 16.5079 14.4193 17.9679 13.3268C18.3999 13.0267 19.6516 12.8846 20.1944 11.8962C20.737 10.9078 19.8787 10.2706 19.8787 10.2706C19.8787 10.2706 19.6056 10.0076 18.64 9.7136C18.2763 9.60283 17.9253 9.45345 17.5994 9.25773C17.0358 8.91924 16.2955 8.48244 15.5869 8.52786C14.5725 8.59289 13.8962 9.19113 13.5061 9.55531C13.1159 9.91942 11.7113 10.4916 11.7113 11.168C11.7113 11.8442 11.4994 11.9276 13.2302 13.1111C13.9098 13.6343 14.4814 14.2502 15.4959 14.3282Z" fill="#F7B820"/>
<path d="M15.508 14.1886C15.5274 14.1881 16.5005 14.2501 17.8843 13.2147C18.0302 13.1133 18.2371 13.0355 18.4767 12.9453C19.0282 12.7379 19.7143 12.48 20.0717 11.8288C20.5475 10.9622 19.8261 10.4056 19.7952 10.3824C19.7802 10.3698 19.5058 10.1234 18.5994 9.84735C18.2101 9.72871 17.8496 9.57081 17.5277 9.37764C16.9984 9.05954 16.2696 8.62694 15.596 8.66744C14.5928 8.73161 13.9237 9.35713 13.602 9.65746C13.4744 9.7763 13.2634 9.90582 13.0195 10.0556C12.5265 10.3584 11.8515 10.7726 11.8515 11.1677C11.8515 11.241 11.849 11.3073 11.8469 11.3688C11.8302 11.826 11.8247 11.9802 13.3094 12.9953C13.4304 13.0885 13.5422 13.1792 13.6534 13.2699C14.1945 13.7107 14.7057 14.1269 15.5066 14.1884L15.508 14.1886ZM15.5599 14.4701C15.5176 14.4701 15.4922 14.4682 15.4845 14.4673C14.5967 14.399 14.0272 13.9353 13.4766 13.4869C13.3673 13.3978 13.2577 13.3085 13.1451 13.2218C11.608 12.1712 11.5457 11.9528 11.5673 11.3587C11.5695 11.3003 11.5717 11.2371 11.5717 11.1677C11.5717 10.616 12.2934 10.1731 12.873 9.81733C13.0946 9.68119 13.3041 9.55252 13.411 9.45302C13.7564 9.13033 14.4751 8.45894 15.578 8.38815C16.3502 8.33709 17.111 8.80077 17.6717 9.13768C17.9739 9.31911 18.3133 9.46783 18.6808 9.57959C19.6507 9.87494 19.9455 10.1403 19.9758 10.1695C19.9775 10.1695 20.9098 10.8838 20.3171 11.9632C19.9097 12.7054 19.1386 12.9953 18.5754 13.2071C18.3532 13.2907 18.1614 13.3628 18.048 13.4415C16.7757 14.3939 15.8297 14.4698 15.5599 14.4701Z" fill="#231F20"/>
<path d="M15.9818 9.55585C16.0705 9.60711 16.2722 9.63405 16.3504 9.7346C16.4286 9.83508 16.7198 9.80952 16.725 9.5784C16.7302 9.34735 16.2198 9.35364 16.0637 9.40693C15.9111 9.45904 15.9454 9.53475 15.9818 9.55585Z" fill="#231F20"/>
<path d="M14.8132 9.64876C14.9389 9.58321 15.0544 9.59665 15.0804 9.55194C15.1065 9.50731 14.8847 9.31611 14.5107 9.48122C14.2464 9.59796 14.3352 9.69798 14.3879 9.75671C14.4847 9.86473 14.6677 9.72466 14.8132 9.64876Z" fill="#231F20"/>
<path d="M15.2779 13.0656C13.4678 13.0656 12.322 11.3909 12.2732 11.3183C12.2258 11.2481 12.2448 11.153 12.3148 11.1058C12.3848 11.059 12.48 11.0769 12.5276 11.1473C12.539 11.164 13.66 12.8118 15.3731 12.7574C17.103 12.6951 19.0256 10.8927 19.0448 10.8744C19.1064 10.8162 19.2031 10.8187 19.2615 10.8804C19.3195 10.9419 19.3168 11.0389 19.2555 11.0971C19.1735 11.1747 17.2284 12.9974 15.3839 13.0636C15.3486 13.065 15.3129 13.0656 15.2779 13.0656Z" fill="#231F20"/>
<path d="M21.894 38.9518C21.894 38.9518 23.5727 40.8403 26.1747 38.9518C27.5605 38.1131 27.5687 37.7883 28.2668 37.096C28.4992 36.8656 28.7706 36.6781 29.0673 36.5397C30.4794 35.8811 33.0651 34.957 32.7636 33.412C32.4279 31.6914 31.2108 32.0271 31.0009 30.2646C30.7911 28.5019 29.9098 28.0402 29.3642 28.0402C28.8187 28.0402 26.9571 27.9632 26.5375 27.6695C26.1177 27.3757 24.9576 26.2409 23.7825 26.9727C22.6074 27.7045 22.2717 29.0055 22.2297 30.5163C22.1877 32.0271 22.3136 32.4469 21.894 33.58C21.4743 34.7131 20.3831 37.483 21.894 38.9518Z" fill="#F7B820"/>
<path d="M22.0509 38.8123C22.1192 38.8885 23.6456 40.5284 26.0514 38.7817C27.0264 38.1909 27.2923 37.8792 27.629 37.4843C27.7686 37.3206 27.9132 37.1512 28.1189 36.947C28.3668 36.7011 28.6559 36.5 28.9783 36.3495C29.1469 36.2707 29.3322 36.1885 29.5271 36.1018C30.9046 35.489 32.7911 34.6498 32.5575 33.4524C32.4072 32.6815 32.0741 32.3678 31.7213 32.0354C31.3221 31.6592 30.9094 31.2703 30.7925 30.2894C30.6135 28.784 29.9113 28.25 29.3641 28.25C29.3404 28.25 26.9753 28.2325 26.4167 27.8412C26.3627 27.8032 26.2968 27.7522 26.2206 27.6928C25.724 27.3064 24.7994 26.5867 23.8934 27.151C22.9363 27.747 22.4879 28.7867 22.4395 30.5222C22.4296 30.8722 22.4291 31.1633 22.4285 31.4179C22.4266 32.2759 22.4255 32.7484 22.0908 33.6529L22.0531 33.7549C21.6393 34.8665 20.6709 37.47 22.0402 38.8011C22.0441 38.8047 22.0473 38.8084 22.0509 38.8123ZM23.9214 39.9999C22.6329 40.0001 21.8292 39.1886 21.7445 39.0989C20.1837 37.5764 21.2177 34.796 21.6595 33.6084L21.6972 33.507C22.006 32.673 22.0069 32.2533 22.0088 31.4171C22.0094 31.1591 22.0099 30.8646 22.0197 30.5107C22.0552 29.2373 22.275 27.6641 23.6716 26.7947C24.8267 26.0751 25.9421 26.9442 26.4783 27.3617C26.5479 27.4158 26.6083 27.4628 26.6578 27.4974C26.9739 27.7191 28.5633 27.8303 29.3641 27.8303C30.0831 27.8303 30.9977 28.4612 31.2096 30.2397C31.3081 31.0692 31.6331 31.3756 32.0094 31.73C32.3766 32.0761 32.7934 32.4686 32.9696 33.372C33.2671 34.8976 31.204 35.8152 29.6975 36.4852C29.5052 36.5708 29.3224 36.6522 29.156 36.7298C28.8775 36.8599 28.628 37.0331 28.4146 37.2449C28.2211 37.437 28.0823 37.5996 27.9481 37.7567C27.6014 38.1637 27.3016 38.515 26.2834 39.1312C25.3877 39.7815 24.5892 39.9999 23.9214 39.9999Z" fill="#231F20"/>
<path d="M25.1198 29.4403C25.1198 29.4403 26.3554 30.0645 27.773 28.751C29.1906 27.4374 28.5793 26.8653 28.1761 26.5011C27.773 26.1369 25.9651 25.0575 24.9247 25.2786C23.8843 25.4997 23.8269 26.6607 23.9363 27.4187C24.0403 28.1397 24.2784 29.0501 25.1198 29.4403Z" fill="#231F20"/>
</svg>
