<svg width="33" height="40" viewBox="0 0 33 40" fill="none" xmlns="http://www.w3.org/2000/svg">
<g clip-path="url(#clip0_12_1963)">
<path d="M14.6673 1.76301C19.915 -1.59284 27.2145 -0.0336006 30.8811 5.2884C32.6639 7.76288 33.3699 10.8813 32.7981 13.932C32.5627 15.3557 32.0244 16.7116 31.2171 17.932C32.3945 20.1353 32.7647 22.6781 32.3274 25.1527C31.8228 28.1017 30.0738 30.7118 27.5511 32.305L18.3001 38.2376C13.0525 41.5934 5.7866 40.0339 2.08623 34.7122C0.337029 32.2377 -0.369902 29.1188 0.168256 26.1019C0.403717 24.6782 0.94205 23.3222 1.74931 22.1019C0.571941 19.8985 0.201651 17.3557 0.638959 14.8812C1.14357 11.9321 2.8934 9.32203 5.4163 7.72883L14.6673 1.76301ZM27.0794 7.72883C25.3302 5.18657 22.2021 4.00008 19.2083 4.77961C18.5355 4.98299 17.8963 5.25441 17.3245 5.62726L8.07353 11.5589C6.55977 12.5081 5.4837 14.1019 5.18095 15.8646C4.8446 17.695 5.28171 19.5596 6.32451 21.0511C8.07372 23.5932 11.2019 24.7798 14.1956 24.0003C14.8682 23.8309 15.5076 23.5596 16.0794 23.1868L19.6116 20.9153C19.7798 20.8137 19.982 20.7458 20.1839 20.678C21.0919 20.4409 22.0333 20.7796 22.5716 21.5589C22.8743 21.9995 23.0094 22.5761 22.9085 23.1185C22.8076 23.6608 22.5044 24.1015 22.0335 24.4066L12.8167 30.3392C12.6485 30.4409 12.4462 30.5087 12.2444 30.5765C11.3365 30.8135 10.3949 30.4407 9.85673 29.6614C9.58762 29.2547 9.45298 28.7454 9.48662 28.2708L9.51982 27.932L9.18388 27.8304C7.87195 27.4236 6.66018 26.8139 5.55009 26.0003L5.07939 25.6614L4.91142 26.2034C4.84417 26.5084 4.77652 26.7794 4.70927 27.0843C4.40653 28.9147 4.81066 30.7793 5.88701 32.2708C7.63618 34.8131 10.7643 35.9995 13.7581 35.22C14.4309 35.0167 15.07 34.7452 15.6419 34.3724L24.8929 28.4407C26.4065 27.4917 27.4836 25.8986 27.7864 24.1361C28.0892 22.3057 27.685 20.441 26.6087 18.9495C24.8595 16.4073 21.7314 15.2208 18.7376 16.0003C18.0648 16.2037 17.4247 16.4741 16.8528 16.847L13.3216 19.1185C13.1534 19.2202 12.9511 19.288 12.7493 19.3558C11.8411 19.5931 10.8989 19.2545 10.3606 18.4749C10.0579 18.0343 9.92382 17.4577 10.0247 16.9153C10.1256 16.3731 10.428 15.9323 10.8987 15.6273L20.1165 9.69465C20.2846 9.59308 20.4861 9.52508 20.6878 9.45734C21.596 9.22005 22.5382 9.55952 23.0765 10.3392C23.3455 10.7459 23.4802 11.2543 23.4466 11.7288L23.4134 12.0677L23.7493 12.1693C25.0612 12.576 26.272 13.1868 27.3821 14.0003L27.8528 14.3392L28.0218 13.7962C28.1226 13.4913 28.1899 13.2203 28.2571 12.9153C28.5599 11.0848 28.1558 9.22035 27.0794 7.72883Z" fill="#FF3E00"/>
</g>
<defs>
<clipPath id="clip0_12_1963">
<rect width="33" height="40" fill="white"/>
</clipPath>
</defs>
</svg>
