<svg width="40" height="40" viewBox="0 0 40 40" fill="none" xmlns="http://www.w3.org/2000/svg">
<g clip-path="url(#clip0_12_1919)">
<mask id="mask0_12_1919" style="mask-type:luminance" maskUnits="userSpaceOnUse" x="0" y="0" width="40" height="40">
<path d="M0 0H40V40H0V0Z" fill="white"/>
</mask>
<g mask="url(#mask0_12_1919)">
<path d="M31.9306 13.6264C32.9833 15.5472 33.5824 17.7515 33.5824 20.0963C33.5824 25.0717 30.886 29.4155 26.8767 31.7531L30.9957 19.8436C31.7651 17.9196 32.0213 16.3812 32.0213 15.0133C32.0213 14.5168 31.9886 14.056 31.9306 13.6264ZM21.9551 13.7733C22.767 13.7306 23.4986 13.6452 23.4986 13.6452C24.2253 13.5591 24.1395 12.4912 23.4126 12.5337C23.4126 12.5337 21.2281 12.7052 19.818 12.7052C18.4929 12.7052 16.2662 12.5337 16.2662 12.5337C15.5389 12.4912 15.4537 13.6022 16.1806 13.6452C16.1806 13.6452 16.8686 13.7306 17.5953 13.7733L19.6962 19.5303L16.7445 28.3815L11.8337 13.7733C12.6462 13.7306 13.377 13.6452 13.377 13.6452C14.1032 13.5591 14.0175 12.4912 13.2908 12.5337C13.2908 12.5337 11.1068 12.7052 9.69652 12.7052C9.44351 12.7052 9.14525 12.699 8.82858 12.6888C11.24 9.02787 15.3848 6.61026 20.0965 6.61026C23.6073 6.61026 26.8041 7.95263 29.2033 10.151C29.1453 10.1476 29.0886 10.1403 29.0287 10.1403C27.704 10.1403 26.764 11.2942 26.764 12.5337C26.764 13.6452 27.4053 14.5855 28.0887 15.6968C28.6016 16.595 29.2006 17.7488 29.2006 19.4161C29.2006 20.5703 28.7567 21.9098 28.1745 23.7758L26.8289 28.2703L21.9551 13.7733ZM20.0965 33.5834C18.7727 33.5834 17.4951 33.3893 16.2865 33.0339L20.3333 21.276L24.4784 32.633C24.5057 32.6996 24.5392 32.761 24.5749 32.8188C23.1732 33.3123 21.667 33.5834 20.0965 33.5834ZM6.61049 20.0963C6.61049 18.141 7.02985 16.285 7.77827 14.6079L14.2114 32.2336C9.71224 30.0479 6.61049 25.4344 6.61049 20.0963ZM20.0965 5.09676C11.8256 5.09676 5.09668 11.8255 5.09668 20.0963C5.09668 28.3674 11.8256 35.0969 20.0965 35.0969C28.3673 35.0969 35.0965 28.3674 35.0965 20.0963C35.0965 11.8255 28.3673 5.09676 20.0965 5.09676Z" fill="#3858E9"/>
</g>
</g>
<defs>
<clipPath id="clip0_12_1919">
<rect width="40" height="40" fill="white"/>
</clipPath>
</defs>
</svg>
